<svg width="18" height="17" viewBox="0 0 18 17" fill="none" xmlns="http://www.w3.org/2000/svg">
<path d="M8.00008 16.25C7.71675 16.25 7.47925 16.1542 7.28758 15.9625C7.09591 15.7708 7.00008 15.5333 7.00008 15.25V9.25L1.20008 1.85C0.95008 1.51667 0.91258 1.16667 1.08758 0.8C1.26258 0.433333 1.56675 0.25 2.00008 0.25H16.0001C16.4334 0.25 16.7376 0.433333 16.9126 0.8C17.0876 1.16667 17.0501 1.51667 16.8001 1.85L11.0001 9.25V15.25C11.0001 15.5333 10.9042 15.7708 10.7126 15.9625C10.5209 16.1542 10.2834 16.25 10.0001 16.25H8.00008ZM9.00008 8.55L13.9501 2.25H4.05008L9.00008 8.55Z" fill="#717275"/>
</svg>
