<svg width="21" height="21" viewBox="0 0 21 21" fill="none" xmlns="http://www.w3.org/2000/svg">
<path d="M10.502 18.8779C12.6237 18.8779 14.6585 18.0351 16.1588 16.5348C17.6591 15.0345 18.502 12.9997 18.502 10.8779C18.502 8.7562 17.6591 6.72137 16.1588 5.22108C14.6585 3.72078 12.6237 2.87793 10.502 2.87793C8.38022 2.87793 6.34539 3.72078 4.8451 5.22108C3.34481 6.72137 2.50195 8.7562 2.50195 10.8779C2.50195 12.9997 3.34481 15.0345 4.8451 16.5348C6.34539 18.0351 8.38022 18.8779 10.502 18.8779ZM10.502 0.87793C11.8152 0.87793 13.1155 1.13659 14.3288 1.63913C15.542 2.14168 16.6444 2.87828 17.573 3.80686C18.5016 4.73545 19.2382 5.83784 19.7407 7.0511C20.2433 8.26435 20.502 9.56471 20.502 10.8779C20.502 13.5301 19.4484 16.0736 17.573 17.949C15.6977 19.8244 13.1541 20.8779 10.502 20.8779C4.97195 20.8779 0.501953 16.3779 0.501953 10.8779C0.501953 8.22576 1.55552 5.68223 3.43089 3.80686C5.30625 1.9315 7.84979 0.87793 10.502 0.87793V0.87793ZM11.002 5.87793V11.1279L15.502 13.7979L14.752 15.0279L9.50195 11.8779V5.87793H11.002Z" fill="#96989C"/>
</svg>
