<svg width="77" height="33" viewBox="0 0 77 33" fill="none" xmlns="http://www.w3.org/2000/svg">
<path d="M25.7415 32.5439H33.1242L31.4311 29.7695L25.7415 32.5439ZM30.0507 27.5129L22.3758 14.9468L37.2551 0.543946H25.5011C24.5796 0.543445 23.6945 0.902179 23.035 1.54346L12.6122 11.6932L13.7858 0.543946H3.17178L-2.78633e-05 30.6351C-0.0257861 30.8763 -0.000303348 31.1202 0.0747633 31.351C0.14983 31.5818 0.272799 31.7942 0.435674 31.9745C0.598548 32.1548 0.797681 32.2989 1.02012 32.3975C1.24256 32.496 1.48332 32.5468 1.72676 32.5465H10.4124L11.1336 25.7895L14.3338 22.6982L19.964 31.5676C20.1536 31.866 20.4158 32.1117 20.7263 32.282C21.0368 32.4522 21.3855 32.5414 21.7399 32.5414H25.7415L27.7604 28.5304L30.0507 27.5129Z" fill="#2D2A70"/>
<path d="M36.4486 32.5439L50.8238 23.8342L52.654 31.2302C52.7465 31.6059 52.9629 31.9398 53.2685 32.1785C53.5741 32.4171 53.9512 32.5467 54.3394 32.5465H63.6454L59.4887 18.5765L75.3193 8.98317L75.3865 8.33915L25.7544 32.5414L36.4486 32.5439ZM58.0024 13.5712L54.1223 0.543945H44.9791C44.043 0.543898 43.1253 0.803367 42.3286 1.29334C41.532 1.78331 40.8879 2.48446 40.4683 3.31838L27.401 29.2337L75.4822 7.3757L75.5571 6.64151L58.0024 13.5712ZM42.5492 19.6687L45.7546 12.9091L46.5999 11.0415C46.6495 10.9333 46.7316 10.8431 46.8348 10.7834C46.9381 10.7237 47.0574 10.6974 47.1762 10.7082C47.2951 10.7189 47.4077 10.7662 47.4985 10.8434C47.5892 10.9206 47.6537 11.024 47.683 11.1393L49.1487 17.0643L42.5492 19.6687Z" fill="#ED6B23"/>
<path d="M69.6737 0.543945C68.4264 0.54421 67.2235 1.00478 66.297 1.8368C65.3704 2.66882 64.7859 3.81332 64.6562 5.0495L64.0099 11.2012L75.5623 6.64151L76.1905 0.543945H69.6737ZM61.7635 32.5439H72.8791L75.3142 8.98574L63.4878 16.1575L61.7635 32.5439Z" fill="#2D2A70"/>
</svg>
