<svg width="24" height="25" viewBox="0 0 24 25" fill="none" xmlns="http://www.w3.org/2000/svg">
<path d="M9.5 3.25C11.2239 3.25 12.8772 3.93482 14.0962 5.15381C15.3152 6.37279 16 8.02609 16 9.75C16 11.36 15.41 12.84 14.44 13.98L14.71 14.25H15.5L20.5 19.25L19 20.75L14 15.75V14.96L13.73 14.69C12.59 15.66 11.11 16.25 9.5 16.25C7.77609 16.25 6.12279 15.5652 4.90381 14.3462C3.68482 13.1272 3 11.4739 3 9.75C3 8.02609 3.68482 6.37279 4.90381 5.15381C6.12279 3.93482 7.77609 3.25 9.5 3.25ZM9.5 5.25C7 5.25 5 7.25 5 9.75C5 12.25 7 14.25 9.5 14.25C12 14.25 14 12.25 14 9.75C14 7.25 12 5.25 9.5 5.25Z" fill="#717275"/>
</svg>
