<svg width="18" height="21" viewBox="0 0 20 21" fill="none" xmlns="http://www.w3.org/2000/svg">
<path d="M2 18.25C1.45 18.25 0.979167 18.0542 0.5875 17.6625C0.195833 17.2708 0 16.8 0 16.25V2.25C0 1.7 0.195833 1.22917 0.5875 0.8375C0.979167 0.445833 1.45 0.25 2 0.25H16C16.55 0.25 17.0208 0.445833 17.4125 0.8375C17.8042 1.22917 18 1.7 18 2.25V8.95C17.6833 8.8 17.3583 8.67083 17.025 8.5625C16.6917 8.45417 16.35 8.375 16 8.325V2.25H2V16.25H8.05C8.1 16.6167 8.17917 16.9667 8.2875 17.3C8.39583 17.6333 8.525 17.95 8.675 18.25H2ZM2 16.25V2.25V8.325V8.25V16.25ZM4 14.25H8.075C8.125 13.9 8.20417 13.5583 8.3125 13.225C8.42083 12.8917 8.54167 12.5667 8.675 12.25H4V14.25ZM4 10.25H10.1C10.6333 9.75 11.2292 9.33333 11.8875 9C12.5458 8.66667 13.25 8.44167 14 8.325V8.25H4V10.25ZM4 6.25H14V4.25H4V6.25ZM15 20.25C13.6167 20.25 12.4375 19.7625 11.4625 18.7875C10.4875 17.8125 10 16.6333 10 15.25C10 13.8667 10.4875 12.6875 11.4625 11.7125C12.4375 10.7375 13.6167 10.25 15 10.25C16.3833 10.25 17.5625 10.7375 18.5375 11.7125C19.5125 12.6875 20 13.8667 20 15.25C20 16.6333 19.5125 17.8125 18.5375 18.7875C17.5625 19.7625 16.3833 20.25 15 20.25ZM14.5 18.25H15.5V15.75H18V14.75H15.5V12.25H14.5V14.75H12V15.75H14.5V18.25Z" fill="white"/>
</svg>
