<svg width="20" height="20" viewBox="0 0 20 20" fill="none" xmlns="http://www.w3.org/2000/svg">
<path d="M5.79359 11.3399L1.60359 7.15995C0.0435938 5.58995 0.0435938 3.05995 1.60359 1.49995L8.62359 8.49995L5.79359 11.3399ZM11.1036 10.9999L17.9836 17.8799L16.5736 19.2899L9.69359 12.4099L2.81359 19.2899L1.40359 17.8799L11.0536 8.21995L10.8536 7.99995C10.0736 7.22995 10.0736 5.96995 10.8536 5.18995L15.1936 0.819946L16.1236 1.73995L12.8836 4.99995L13.8436 5.93995L17.0836 2.68995L18.0036 3.60995L14.7536 6.84995L15.6936 7.80995L18.9536 4.55995L19.8736 5.49995L15.5036 9.83995C14.7236 10.6199 13.4636 10.6199 12.6936 9.83995L12.4736 9.63995L11.1036 10.9999Z" fill="#717275"/>
</svg>
