<svg width="19" height="20" viewBox="0 0 19 20" fill="none" xmlns="http://www.w3.org/2000/svg">
<path d="M6.19336 4C5.64336 4 5.17253 3.80417 4.78086 3.4125C4.38919 3.02083 4.19336 2.55 4.19336 2C4.19336 1.45 4.38919 0.979167 4.78086 0.5875C5.17253 0.195833 5.64336 0 6.19336 0C6.74336 0 7.21419 0.195833 7.60586 0.5875C7.99753 0.979167 8.19336 1.45 8.19336 2C8.19336 2.55 7.99753 3.02083 7.60586 3.4125C7.21419 3.80417 6.74336 4 6.19336 4ZM11.6934 18H5.24336C4.69336 18 4.18919 17.8042 3.73086 17.4125C3.27253 17.0208 2.98503 16.55 2.86836 16L0.693359 5H2.74336L4.94336 16H11.6934V18ZM17.1934 20L14.2934 15H7.34336C6.86003 15 6.43919 14.8542 6.08086 14.5625C5.72253 14.2708 5.49336 13.8833 5.39336 13.4L4.29336 8.05C4.11003 7.25 4.29753 6.54167 4.85586 5.925C5.41419 5.30833 6.09336 5 6.89336 5C7.47669 5 8.00586 5.175 8.48086 5.525C8.95586 5.875 9.26003 6.35 9.39336 6.95L10.4934 12H13.7434C14.0934 12 14.4184 12.0917 14.7184 12.275C15.0184 12.4583 15.26 12.7 15.4434 13L18.9434 19L17.1934 20Z" fill="#717275"/>
</svg>
