<svg width="23" height="18" viewBox="0 0 23 18" fill="none" xmlns="http://www.w3.org/2000/svg">
<path d="M11.6936 18L15.2936 13.2C14.2936 12.45 13.0436 12 11.6936 12C10.3436 12 9.09355 12.45 8.09355 13.2L11.6936 18ZM11.6936 0C7.64355 0 3.90355 1.34 0.893555 3.6L2.69355 6C5.19355 4.12 8.31355 3 11.6936 3C15.0736 3 18.1936 4.12 20.6936 6L22.4936 3.6C19.4836 1.34 15.7436 0 11.6936 0ZM11.6936 6C8.99356 6 6.50355 6.89 4.49355 8.4L6.29355 10.8C7.79355 9.67 9.66356 9 11.6936 9C13.7236 9 15.5936 9.67 17.0936 10.8L18.8936 8.4C16.8836 6.89 14.3936 6 11.6936 6Z" fill="#717275"/>
</svg>
