<svg width="17" height="16" viewBox="0 0 17 16" fill="none" xmlns="http://www.w3.org/2000/svg">
<path d="M8.69336 0C9.75423 0 10.7716 0.421427 11.5218 1.17157C12.2719 1.92172 12.6934 2.93913 12.6934 4C12.6934 5.06087 12.2719 6.07828 11.5218 6.82843C10.7716 7.57857 9.75423 8 8.69336 8C7.63249 8 6.61508 7.57857 5.86493 6.82843C5.11479 6.07828 4.69336 5.06087 4.69336 4C4.69336 2.93913 5.11479 1.92172 5.86493 1.17157C6.61508 0.421427 7.63249 0 8.69336 0ZM8.69336 10C13.1134 10 16.6934 11.79 16.6934 14V16H0.693359V14C0.693359 11.79 4.27336 10 8.69336 10Z" fill="#717275"/>
</svg>

