<svg width="21" height="17" viewBox="0 0 21 17" fill="none" xmlns="http://www.w3.org/2000/svg">
<path d="M0.693359 14H15.6934V17H0.693359V14ZM19.1934 14H20.6934V17H19.1934V14ZM16.6934 14H18.1934V17H16.6934V14ZM17.5434 5.73C18.1634 5.12 18.5434 4.28 18.5434 3.35C18.5434 1.5 17.0434 0 15.1934 0V1.5C16.1934 1.5 17.0434 2.33 17.0434 3.35C17.0434 4.37 16.1934 5.2 15.1934 5.2V6.7C17.4334 6.7 19.1934 8.53 19.1934 10.77V13H20.6934V10.76C20.6934 8.54 19.4134 6.62 17.5434 5.73ZM14.7234 8.2H13.1934C12.1934 8.2 11.3434 7.22 11.3434 6.2C11.3434 5.18 12.1934 4.45 13.1934 4.45V2.95C11.3434 2.95 9.84336 4.45 9.84336 6.3C9.84336 7.18848 10.1963 8.04056 10.8246 8.66881C11.4528 9.29706 12.3049 9.65 13.1934 9.65H14.7234C15.7734 9.65 16.6934 10.39 16.6934 11.7V13H18.1934V11.36C18.1934 9.55 16.5934 8.2 14.7234 8.2Z" fill="#717275"/>
</svg>
