<svg width="500" height="501" viewBox="0 0 500 501" fill="none" xmlns="http://www.w3.org/2000/svg">
<path d="M500 382.857H0V383.107H500V382.857Z" fill="#EBEBEB"/>
<path d="M449.899 398.947H416.779V399.197H449.899V398.947Z" fill="#EBEBEB"/>
<path d="M331.219 401.667H322.529V401.917H331.219V401.667Z" fill="#EBEBEB"/>
<path d="M415.78 389.667H396.59V389.917H415.78V389.667Z" fill="#EBEBEB"/>
<path d="M95.6509 391.347H52.4609V391.597H95.6509V391.347Z" fill="#EBEBEB"/>
<path d="M110.891 391.347H104.561V391.597H110.891V391.347Z" fill="#EBEBEB"/>
<path d="M225.151 395.567H131.471V395.817H225.151V395.567Z" fill="#EBEBEB"/>
<path d="M237.001 338.257H43.9109C42.3983 338.255 40.9485 337.652 39.8798 336.581C38.8112 335.511 38.2109 334.06 38.2109 332.547V61.1173C38.2241 59.6133 38.8301 58.1753 39.8974 57.1155C40.9646 56.0557 42.4069 55.4599 43.9109 55.4573H237.001C238.515 55.4573 239.968 56.0589 241.039 57.1297C242.109 58.2005 242.711 59.6529 242.711 61.1673V332.547C242.711 334.062 242.109 335.514 241.039 336.585C239.968 337.656 238.515 338.257 237.001 338.257ZM43.9109 55.6573C42.4646 55.6599 41.0784 56.2363 40.0566 57.26C39.0348 58.2837 38.4609 59.6709 38.4609 61.1173V332.547C38.4609 333.994 39.0348 335.381 40.0566 336.405C41.0784 337.428 42.4646 338.005 43.9109 338.007H237.001C238.448 338.005 239.835 337.429 240.859 336.405C241.882 335.382 242.458 333.995 242.461 332.547V61.1173C242.458 59.67 241.882 58.2828 240.859 57.2594C239.835 56.236 238.448 55.6599 237.001 55.6573H43.9109Z" fill="#EBEBEB"/>
<path d="M453.31 338.257H260.21C258.696 338.255 257.246 337.652 256.175 336.582C255.105 335.512 254.503 334.061 254.5 332.547V61.1173C254.516 59.6124 255.124 58.1744 256.193 57.1149C257.262 56.0554 258.705 55.4598 260.21 55.4573H453.31C454.812 55.4625 456.252 56.0595 457.317 57.119C458.382 58.1785 458.987 59.615 459 61.1173V332.547C459 334.058 458.401 335.508 457.335 336.578C456.268 337.648 454.821 338.252 453.31 338.257ZM260.21 55.6573C258.763 55.6599 257.375 56.236 256.352 57.2594C255.329 58.2828 254.753 59.67 254.75 61.1173V332.547C254.753 333.995 255.329 335.382 256.352 336.405C257.375 337.429 258.763 338.005 260.21 338.007H453.31C454.757 338.005 456.145 337.429 457.168 336.405C458.191 335.382 458.767 333.995 458.77 332.547V61.1173C458.767 59.67 458.191 58.2828 457.168 57.2594C456.145 56.236 454.757 55.6599 453.31 55.6573H260.21Z" fill="#EBEBEB"/>
<path d="M289.691 174.517L427.471 174.517V84.2873L289.691 84.2873V174.517Z" fill="#E6E6E6"/>
<path d="M285.48 174.517L425.5 174.517V84.2873L285.48 84.2873V174.517Z" fill="#F0F0F0"/>
<path d="M289.691 192.217L427.471 192.217V174.507L289.691 174.507V192.217Z" fill="#E6E6E6"/>
<path d="M278.49 192.217L418.51 192.217V174.507L278.49 174.507V192.217Z" fill="#F0F0F0"/>
<path d="M419.619 168.637V90.1772L291.369 90.1772V168.637H419.619Z" fill="#FAFAFA"/>
<path d="M390.7 168.627L374.32 90.1772H348.76L365.14 168.627H390.7Z" fill="white"/>
<path d="M416.901 162.777C416.957 162.777 417.012 162.766 417.064 162.744C417.115 162.723 417.162 162.691 417.201 162.651C417.24 162.611 417.271 162.563 417.292 162.511C417.312 162.459 417.322 162.403 417.321 162.347V94.0073C417.321 93.8959 417.276 93.7891 417.198 93.7103C417.119 93.6315 417.012 93.5873 416.901 93.5873C416.845 93.5859 416.79 93.5958 416.738 93.6165C416.687 93.6371 416.64 93.668 416.601 93.7072C416.561 93.7465 416.53 93.7934 416.51 93.845C416.489 93.8965 416.479 93.9518 416.481 94.0073V162.347C416.479 162.403 416.489 162.459 416.51 162.511C416.53 162.563 416.561 162.611 416.6 162.651C416.639 162.691 416.686 162.723 416.738 162.744C416.789 162.766 416.845 162.777 416.901 162.777Z" fill="#F0F0F0"/>
<path d="M359.651 168.627L343.271 90.1772H333.301L349.691 168.627H359.651Z" fill="white"/>
<path d="M292.119 168.637V90.1772H291.369V168.637H292.119Z" fill="#E6E6E6"/>
<path opacity="0.6" d="M284.1 99.0473H421.88L422.42 92.4573H284.64L284.1 99.0473Z" fill="#EBEBEB"/>
<path opacity="0.6" d="M284.1 109.847H421.88L422.42 103.267H284.64L284.1 109.847Z" fill="#EBEBEB"/>
<path opacity="0.6" d="M284.1 120.647H421.88L422.42 114.067H284.64L284.1 120.647Z" fill="#EBEBEB"/>
<path opacity="0.6" d="M284.1 131.457H421.88L422.42 124.867H284.64L284.1 131.457Z" fill="#EBEBEB"/>
<path opacity="0.6" d="M284.1 142.257H421.88L422.42 135.667H284.64L284.1 142.257Z" fill="#EBEBEB"/>
<path opacity="0.6" d="M284.1 153.057H421.88L422.42 146.467H284.64L284.1 153.057Z" fill="#EBEBEB"/>
<path d="M407.691 317.237H378.801V322.937H407.691V317.237Z" fill="#E6E6E6"/>
<path d="M324.311 382.857H329.641V251.787H324.311V382.857Z" fill="#E6E6E6"/>
<path d="M305.829 322.937H378.789V317.237H305.829V322.937Z" fill="#F5F5F5"/>
<path d="M407.691 348.407H378.801V354.107H407.691V348.407Z" fill="#E6E6E6"/>
<path d="M305.829 354.097H378.789V348.397H305.829V354.097Z" fill="#F5F5F5"/>
<path d="M407.691 254.907H378.801V260.607H407.691V254.907Z" fill="#E6E6E6"/>
<path d="M305.829 260.597H378.789V254.897H305.829V260.597Z" fill="#F5F5F5"/>
<path d="M407.691 286.067H378.801V291.767H407.691V286.067Z" fill="#E6E6E6"/>
<path d="M305.829 291.767H378.789V286.067H305.829V291.767Z" fill="#F5F5F5"/>
<path d="M397.279 382.857H402.609V251.787H397.279V382.857Z" fill="#E6E6E6"/>
<path d="M373.459 382.857H378.789V251.787H373.459V382.857Z" fill="#F5F5F5"/>
<path d="M305.83 382.857H311.16V251.787H305.83V382.857Z" fill="#F5F5F5"/>
<path d="M65.3809 382.857H119.961L119.961 276.967H65.3809L65.3809 382.857Z" fill="#E6E6E6"/>
<path d="M79.9491 382.857H65.3691V368.237H95.2291L79.9491 382.857Z" fill="#FAFAFA"/>
<path d="M214.18 382.857H268.76V276.967H214.18V382.857Z" fill="#E6E6E6"/>
<path d="M65.3802 377.817H226.91V276.957H65.3802V377.817Z" fill="#FAFAFA"/>
<path d="M212.331 382.857H226.901V368.237H197.051L212.331 382.857Z" fill="#FAFAFA"/>
<path d="M76.6796 339.787H215.6V314.547H76.6796V339.787Z" fill="#F0F0F0"/>
<path d="M76.6796 370.417H215.6V345.177H76.6796V370.417Z" fill="#F0F0F0"/>
<path d="M189.2 317.247H103.09C101.875 317.247 100.71 316.765 99.851 315.906C98.9921 315.047 98.5095 313.882 98.5095 312.667V312.357H193.77V312.667C193.77 313.88 193.288 315.044 192.432 315.902C191.575 316.761 190.412 317.245 189.2 317.247Z" fill="#FAFAFA"/>
<path d="M76.6796 309.147H215.6V283.907H76.6796V309.147Z" fill="#F0F0F0"/>
<path d="M189.2 286.607H103.09C101.875 286.607 100.71 286.125 99.851 285.266C98.9921 284.407 98.5095 283.242 98.5095 282.027V281.717H193.77V282.027C193.77 283.24 193.288 284.404 192.432 285.262C191.575 286.121 190.412 286.605 189.2 286.607Z" fill="#FAFAFA"/>
<path d="M189.2 347.887H103.09C101.875 347.887 100.71 347.405 99.851 346.546C98.9921 345.687 98.5095 344.522 98.5095 343.307V342.997H193.77V343.307C193.77 344.52 193.288 345.684 192.432 346.542C191.575 347.401 190.412 347.885 189.2 347.887Z" fill="#FAFAFA"/>
<path d="M74.0696 174.517L211.85 174.517V84.2873L74.0696 84.2873V174.517Z" fill="#E6E6E6"/>
<path d="M69.8706 174.517L209.891 174.517V84.2873L69.8706 84.2873V174.517Z" fill="#F0F0F0"/>
<path d="M74.0696 192.217L211.85 192.217V174.507L74.0696 174.507V192.217Z" fill="#E6E6E6"/>
<path d="M62.8609 192.217L202.881 192.217V174.507L62.8609 174.507V192.217Z" fill="#F0F0F0"/>
<path d="M204 168.637V90.1772L75.75 90.1772V168.637H204Z" fill="#FAFAFA"/>
<path d="M175.081 168.627L158.701 90.1772H133.141L149.521 168.627H175.081Z" fill="white"/>
<path d="M201.27 162.777C201.326 162.777 201.381 162.766 201.433 162.744C201.484 162.723 201.531 162.691 201.57 162.651C201.609 162.611 201.64 162.563 201.661 162.511C201.681 162.459 201.691 162.403 201.69 162.347V94.0073C201.691 93.9518 201.681 93.8965 201.661 93.845C201.64 93.7934 201.609 93.7465 201.57 93.7072C201.53 93.668 201.484 93.6371 201.432 93.6165C201.38 93.5958 201.325 93.5859 201.27 93.5873C201.158 93.5873 201.052 93.6315 200.973 93.7103C200.894 93.7891 200.85 93.8959 200.85 94.0073V162.347C200.848 162.403 200.858 162.459 200.879 162.511C200.899 162.563 200.93 162.611 200.969 162.651C201.008 162.691 201.055 162.723 201.107 162.744C201.158 162.766 201.214 162.777 201.27 162.777Z" fill="#F0F0F0"/>
<path d="M144.03 168.627L127.65 90.1772H117.68L134.06 168.627H144.03Z" fill="white"/>
<path d="M76.5 168.637V90.1772H75.75V168.637H76.5Z" fill="#E6E6E6"/>
<path opacity="0.6" d="M68.4707 99.0473H206.251L206.791 92.4573H69.0107L68.4707 99.0473Z" fill="#EBEBEB"/>
<path opacity="0.6" d="M68.4707 102.767H206.251L206.791 96.1772H69.0107L68.4707 102.767Z" fill="#EBEBEB"/>
<path opacity="0.6" d="M68.4707 106.477H206.251L206.791 99.8972H69.0107L68.4707 106.477Z" fill="#EBEBEB"/>
<path opacity="0.6" d="M68.4707 110.197H206.251L206.791 103.607H69.0107L68.4707 110.197Z" fill="#EBEBEB"/>
<path opacity="0.6" d="M68.4707 113.907H206.251L206.791 107.327H69.0107L68.4707 113.907Z" fill="#EBEBEB"/>
<path opacity="0.6" d="M68.4707 117.627H206.251L206.791 111.037H69.0107L68.4707 117.627Z" fill="#EBEBEB"/>
<path d="M96.0193 273.727H100.779V220.637H96.0193V273.727Z" fill="#F5F5F5"/>
<path d="M96.6207 273.697H97.9707V220.607H96.6207V273.697Z" fill="#FAFAFA"/>
<path d="M98.5305 273.697H99.0605V220.607H98.5305V273.697Z" fill="#FAFAFA"/>
<path d="M116.029 276.967H80.7893C80.7893 275.79 81.2571 274.66 82.0897 273.828C82.9224 272.995 84.0517 272.527 85.2293 272.527H111.579C112.757 272.527 113.886 272.995 114.719 273.828C115.552 274.66 116.019 275.79 116.019 276.967H116.029Z" fill="#F0F0F0"/>
<path d="M89.8409 253.597C90.2035 253.595 90.5504 253.45 90.8068 253.193C91.0631 252.937 91.2083 252.59 91.2109 252.227V217.457C91.2109 217.094 91.0666 216.746 90.8097 216.489C90.5528 216.232 90.2043 216.087 89.8409 216.087C89.6602 216.086 89.481 216.12 89.3136 216.189C89.1462 216.257 88.994 216.358 88.8657 216.485C88.7375 216.612 88.6356 216.764 88.5662 216.931C88.4967 217.098 88.4609 217.277 88.4609 217.457V252.267C88.4739 252.625 88.625 252.963 88.8824 253.211C89.1398 253.459 89.4834 253.598 89.8409 253.597Z" fill="#F0F0F0"/>
<path d="M77.0703 233.257H119.72L114.81 203.457H81.9803L77.0703 233.257Z" fill="#E0E0E0"/>
<path d="M249.999 428.017C357.082 428.017 443.889 422.949 443.889 416.697C443.889 410.445 357.082 405.377 249.999 405.377C142.917 405.377 56.1094 410.445 56.1094 416.697C56.1094 422.949 142.917 428.017 249.999 428.017Z" fill="#F5F5F5"/>
<path d="M104.119 202.816L103.121 202.888L104.45 221.33L105.447 221.259L104.119 202.816Z" fill="#0080FF"/>
<path d="M106.124 230.779L105.127 230.851L105.627 237.793L106.624 237.721L106.124 230.779Z" fill="#0080FF"/>
<path d="M337.709 315.617H123.549C121.165 315.574 118.881 314.651 117.138 313.024C115.395 311.397 114.316 309.183 114.109 306.807L103.589 160.677C103.491 159.55 103.63 158.415 103.998 157.346C104.365 156.276 104.953 155.295 105.722 154.466C106.492 153.637 107.427 152.978 108.467 152.532C109.506 152.086 110.628 151.863 111.759 151.877H325.919C328.301 151.92 330.584 152.842 332.326 154.467C334.069 156.092 335.149 158.304 335.359 160.677L345.879 306.807C345.977 307.935 345.837 309.07 345.47 310.141C345.103 311.211 344.515 312.193 343.746 313.022C342.976 313.852 342.042 314.512 341.002 314.959C339.962 315.406 338.841 315.63 337.709 315.617Z" fill="#0080FF"/>
<path d="M338.529 315.617H124.369C121.985 315.574 119.702 314.651 117.959 313.024C116.216 311.397 115.136 309.183 114.929 306.807L104.409 160.677C104.311 159.55 104.451 158.415 104.818 157.346C105.186 156.276 105.773 155.295 106.543 154.466C107.312 153.637 108.247 152.978 109.287 152.532C110.327 152.086 111.448 151.863 112.579 151.877H326.739C329.122 151.92 331.404 152.842 333.147 154.467C334.89 156.092 335.97 158.304 336.179 160.677L346.699 306.807C346.799 307.935 346.66 309.071 346.294 310.142C345.927 311.213 345.34 312.196 344.57 313.026C343.8 313.856 342.865 314.515 341.824 314.962C340.784 315.408 339.661 315.631 338.529 315.617Z" fill="#0080FF"/>
<path opacity="0.5" d="M338.529 315.617H124.369C121.985 315.574 119.702 314.651 117.959 313.024C116.216 311.397 115.136 309.183 114.929 306.807L104.409 160.677C104.311 159.55 104.451 158.415 104.818 157.346C105.186 156.276 105.773 155.295 106.543 154.466C107.312 153.637 108.247 152.978 109.287 152.532C110.327 152.086 111.448 151.863 112.579 151.877H326.739C329.122 151.92 331.404 152.842 333.147 154.467C334.89 156.092 335.97 158.304 336.179 160.677L346.699 306.807C346.799 307.935 346.66 309.071 346.294 310.142C345.927 311.213 345.34 312.196 344.57 313.026C343.8 313.856 342.865 314.515 341.824 314.962C340.784 315.408 339.661 315.631 338.529 315.617Z" fill="white"/>
<path d="M327.06 156.277H112.9H112.18C106.71 156.727 107.83 165.057 113.35 165.057H327.87C333.4 165.057 333.32 156.727 327.78 156.277H327.06Z" fill="#0080FF"/>
<path d="M118.48 160.677C118.501 160.935 118.467 161.194 118.382 161.439C118.297 161.683 118.161 161.906 117.984 162.095C117.807 162.283 117.592 162.432 117.354 162.533C117.115 162.633 116.858 162.682 116.6 162.677C116.056 162.67 115.535 162.461 115.136 162.092C114.737 161.722 114.489 161.219 114.44 160.677C114.419 160.42 114.452 160.162 114.537 159.918C114.621 159.675 114.756 159.452 114.932 159.264C115.108 159.075 115.322 158.926 115.559 158.825C115.796 158.724 116.052 158.674 116.31 158.677C116.855 158.682 117.379 158.89 117.78 159.259C118.181 159.629 118.43 160.134 118.48 160.677Z" fill="#FAFAFA"/>
<path d="M125.351 160.677C125.372 160.935 125.339 161.194 125.253 161.439C125.168 161.683 125.032 161.906 124.855 162.095C124.678 162.283 124.463 162.432 124.225 162.533C123.986 162.633 123.729 162.682 123.471 162.677C122.927 162.67 122.406 162.461 122.007 162.092C121.608 161.722 121.36 161.219 121.311 160.677C121.29 160.42 121.323 160.162 121.408 159.918C121.493 159.675 121.627 159.452 121.803 159.264C121.979 159.075 122.193 158.926 122.43 158.825C122.667 158.724 122.923 158.674 123.181 158.677C123.726 158.682 124.25 158.89 124.651 159.259C125.052 159.629 125.301 160.134 125.351 160.677Z" fill="#FAFAFA"/>
<path d="M132.211 160.677C132.232 160.934 132.199 161.193 132.114 161.436C132.029 161.68 131.894 161.903 131.718 162.091C131.542 162.279 131.329 162.429 131.092 162.53C130.854 162.631 130.599 162.681 130.341 162.677C129.797 162.672 129.274 162.464 128.875 162.094C128.475 161.725 128.228 161.22 128.181 160.677C128.158 160.42 128.19 160.161 128.274 159.917C128.359 159.673 128.493 159.449 128.67 159.26C128.846 159.072 129.06 158.922 129.298 158.822C129.536 158.721 129.793 158.672 130.051 158.677C130.594 158.685 131.116 158.894 131.515 159.263C131.913 159.632 132.161 160.136 132.211 160.677Z" fill="#FAFAFA"/>
<path d="M332.851 301.037H128.001C127.135 301.023 126.306 300.688 125.674 300.096C125.042 299.505 124.652 298.7 124.581 297.837L115.931 177.667C115.892 177.255 115.942 176.839 116.076 176.447C116.211 176.056 116.427 175.697 116.711 175.395C116.995 175.094 117.339 174.856 117.722 174.698C118.105 174.539 118.517 174.464 118.931 174.477H323.831C324.695 174.489 325.524 174.822 326.156 175.412C326.789 176.002 327.179 176.806 327.251 177.667L335.911 297.837C335.948 298.255 335.896 298.676 335.757 299.072C335.619 299.467 335.397 299.829 335.107 300.132C334.817 300.435 334.466 300.673 334.077 300.829C333.688 300.985 333.27 301.056 332.851 301.037Z" fill="white"/>
<path d="M246.529 255.257L243.189 208.937L233.089 202.857H205.279L209.059 255.257H246.529Z" fill="white"/>
<path d="M246.53 255.737H209.06C208.936 255.74 208.816 255.695 208.724 255.611C208.633 255.527 208.578 255.411 208.57 255.287L204.8 202.887C204.795 202.822 204.804 202.755 204.827 202.693C204.849 202.631 204.884 202.575 204.93 202.527C204.974 202.478 205.028 202.438 205.088 202.411C205.149 202.383 205.214 202.368 205.28 202.367H233.09C233.178 202.37 233.264 202.394 233.34 202.437L243.44 208.517C243.508 208.556 243.565 208.611 243.607 208.677C243.649 208.744 243.674 208.819 243.68 208.897L247 255.217C247.007 255.285 246.999 255.353 246.976 255.417C246.954 255.481 246.918 255.539 246.87 255.587C246.827 255.634 246.774 255.672 246.716 255.697C246.657 255.723 246.594 255.737 246.53 255.737ZM209.53 254.737H246L242.72 209.187L233 203.337H205.8L209.53 254.737Z" fill="#0080FF"/>
<path d="M243.19 208.937L233.09 202.857L236.8 210.917L243.19 208.937Z" fill="#EBEBEB"/>
<path d="M236.801 211.397C236.708 211.397 236.618 211.37 236.54 211.321C236.463 211.271 236.4 211.201 236.361 211.117L232.651 203.057C232.607 202.963 232.595 202.857 232.615 202.755C232.634 202.653 232.685 202.559 232.761 202.487C232.84 202.42 232.939 202.378 233.043 202.369C233.147 202.36 233.251 202.384 233.341 202.437L243.441 208.517C243.522 208.566 243.588 208.637 243.631 208.722C243.673 208.807 243.69 208.903 243.681 208.997C243.668 209.089 243.629 209.176 243.569 209.247C243.509 209.318 243.43 209.37 243.341 209.397L236.941 211.397H236.801ZM234.191 204.077L237.061 210.327L242.061 208.797L234.191 204.077Z" fill="#0080FF"/>
<path d="M220.999 226.457C221.014 226.729 220.973 227.001 220.879 227.257C220.786 227.512 220.641 227.746 220.454 227.943C220.266 228.141 220.041 228.298 219.791 228.405C219.54 228.513 219.271 228.568 218.999 228.567C218.428 228.557 217.881 228.336 217.464 227.946C217.047 227.557 216.788 227.026 216.739 226.457C216.713 226.183 216.746 225.906 216.836 225.645C216.926 225.384 217.07 225.146 217.259 224.945C217.449 224.744 217.678 224.586 217.934 224.482C218.189 224.377 218.463 224.328 218.739 224.337C219.311 224.35 219.858 224.573 220.275 224.965C220.692 225.356 220.95 225.888 220.999 226.457Z" fill="#0080FF"/>
<path d="M234.699 226.457C234.724 226.731 234.689 227.007 234.599 227.267C234.509 227.526 234.364 227.764 234.175 227.963C233.986 228.163 233.757 228.32 233.502 228.424C233.248 228.528 232.974 228.577 232.699 228.567C232.127 228.557 231.579 228.336 231.16 227.947C230.741 227.558 230.481 227.027 230.429 226.457C230.413 226.185 230.453 225.912 230.546 225.655C230.639 225.398 230.784 225.164 230.971 224.965C231.158 224.766 231.384 224.608 231.635 224.5C231.886 224.392 232.156 224.337 232.429 224.337C233.004 224.345 233.554 224.567 233.974 224.959C234.394 225.351 234.652 225.885 234.699 226.457Z" fill="#0080FF"/>
<path d="M238.579 240.197C238.457 240.195 238.341 240.148 238.252 240.065C238.163 239.982 238.109 239.868 238.099 239.747C237.849 236.337 232.509 233.567 226.199 233.567C222.009 233.567 218.249 234.817 216.389 236.817C216.007 237.186 215.708 237.631 215.511 238.125C215.314 238.618 215.225 239.147 215.249 239.677C215.254 239.743 215.245 239.809 215.224 239.871C215.203 239.934 215.17 239.991 215.127 240.041C215.04 240.141 214.917 240.203 214.784 240.212C214.651 240.222 214.52 240.178 214.42 240.091C214.32 240.003 214.258 239.88 214.249 239.747C214.219 239.084 214.328 238.423 214.569 237.804C214.811 237.186 215.178 236.625 215.649 236.157C217.649 233.967 221.719 232.597 226.169 232.597C233.099 232.597 238.749 235.707 239.029 239.677C239.033 239.74 239.025 239.804 239.004 239.863C238.984 239.923 238.952 239.978 238.91 240.026C238.868 240.073 238.817 240.112 238.761 240.14C238.704 240.167 238.642 240.183 238.579 240.187V240.197Z" fill="#0080FF"/>
<path d="M213.169 222.177C213.047 222.175 212.93 222.129 212.839 222.047C212.748 221.956 212.697 221.832 212.697 221.702C212.697 221.573 212.748 221.449 212.839 221.357L214.969 219.067C215.061 218.979 215.182 218.93 215.309 218.93C215.436 218.93 215.558 218.979 215.649 219.067C215.694 219.112 215.73 219.165 215.754 219.223C215.778 219.282 215.79 219.344 215.79 219.407C215.79 219.471 215.778 219.533 215.754 219.591C215.73 219.65 215.694 219.703 215.649 219.747L213.519 222.037C213.473 222.083 213.419 222.119 213.359 222.143C213.298 222.167 213.234 222.179 213.169 222.177Z" fill="#0080FF"/>
<path d="M237.581 222.177C237.459 222.172 237.343 222.126 237.251 222.047L234.801 219.757C234.754 219.713 234.717 219.659 234.692 219.6C234.667 219.54 234.654 219.477 234.654 219.412C234.654 219.348 234.667 219.284 234.692 219.225C234.717 219.166 234.754 219.112 234.801 219.067C234.892 218.979 235.014 218.93 235.141 218.93C235.267 218.93 235.389 218.979 235.481 219.067L237.931 221.357C237.975 221.402 238.011 221.455 238.035 221.513C238.059 221.572 238.072 221.634 238.072 221.697C238.072 221.761 238.059 221.823 238.035 221.881C238.011 221.94 237.975 221.993 237.931 222.037C237.836 222.126 237.711 222.176 237.581 222.177Z" fill="#0080FF"/>
<path d="M202.26 265.607H204.52L207.78 269.947L207.47 265.607H209.75L210.31 273.447H208L204.76 269.137L205.07 273.447H202.79L202.26 265.607Z" fill="#0080FF"/>
<path d="M211.33 269.527C211.253 268.995 211.29 268.452 211.438 267.935C211.586 267.418 211.843 266.938 212.19 266.527C212.57 266.154 213.025 265.865 213.525 265.681C214.025 265.496 214.559 265.42 215.09 265.457C216.217 265.396 217.324 265.772 218.18 266.507C218.965 267.288 219.419 268.341 219.45 269.447C219.533 270.211 219.43 270.982 219.15 271.697C218.891 272.273 218.458 272.753 217.91 273.067C217.254 273.419 216.515 273.589 215.77 273.557C215.005 273.582 214.244 273.438 213.54 273.137C212.924 272.841 212.404 272.377 212.04 271.797C211.611 271.115 211.367 270.333 211.33 269.527ZM213.76 269.527C213.751 270.141 213.948 270.74 214.32 271.227C214.476 271.399 214.668 271.535 214.883 271.625C215.097 271.715 215.328 271.757 215.56 271.747C215.782 271.763 216.004 271.725 216.208 271.636C216.412 271.547 216.591 271.41 216.73 271.237C217.017 270.691 217.113 270.064 217 269.457C217.005 268.869 216.807 268.297 216.44 267.837C216.28 267.669 216.086 267.536 215.87 267.448C215.655 267.36 215.423 267.319 215.19 267.327C214.973 267.318 214.756 267.36 214.558 267.451C214.36 267.541 214.186 267.677 214.05 267.847C213.758 268.363 213.655 268.964 213.76 269.547V269.527Z" fill="#0080FF"/>
<path d="M224.15 265.607H227.75C228.344 265.589 228.935 265.687 229.49 265.897C229.93 266.082 230.32 266.366 230.63 266.727C230.945 267.094 231.186 267.519 231.34 267.977C231.503 268.47 231.603 268.98 231.64 269.497C231.717 270.151 231.666 270.813 231.49 271.447C231.353 271.887 231.109 272.285 230.78 272.607C230.506 272.897 230.162 273.111 229.78 273.227C229.315 273.362 228.835 273.436 228.35 273.447H224.76L224.15 265.607ZM226.7 267.387L227.01 271.667H227.6C227.965 271.691 228.331 271.633 228.67 271.497C228.894 271.368 229.059 271.156 229.13 270.907C229.245 270.464 229.272 270.002 229.21 269.547C229.229 268.937 229.043 268.339 228.68 267.847C228.495 267.679 228.276 267.552 228.039 267.473C227.801 267.393 227.55 267.364 227.3 267.387H226.7Z" fill="#0080FF"/>
<path d="M237.449 272.147H234.699L234.409 273.447H231.939L234.319 265.607H236.999L240.509 273.447H237.969L237.449 272.147ZM236.819 270.457L235.759 267.637L235.099 270.457H236.819Z" fill="#0080FF"/>
<path d="M239.369 265.607H246.729L246.869 267.547H244.399L244.819 273.447H242.399L241.979 267.547H239.509L239.369 265.607Z" fill="#0080FF"/>
<path d="M252.369 272.147H249.619L249.329 273.447H246.859L249.239 265.607H251.879L255.379 273.447H252.849L252.369 272.147ZM251.739 270.457L250.669 267.637L249.999 270.457H251.739Z" fill="#0080FF"/>
<path d="M353.691 173.537C354.581 173.087 355.691 172.537 356.631 171.967C357.571 171.397 358.631 170.847 359.631 170.247C361.581 169.037 363.561 167.847 365.431 166.527C369.187 163.957 372.708 161.059 375.951 157.867C376.361 157.487 376.721 157.067 377.111 156.657L377.681 156.047L377.961 155.747L378.101 155.587C377.961 155.857 378.101 155.777 378.101 155.517C378.189 155.16 378.24 154.795 378.251 154.427C378.228 152.301 377.984 150.183 377.521 148.107C376.631 143.627 375.281 139.007 373.951 134.487L377.831 132.787C380.28 137.124 382.326 141.676 383.941 146.387C384.849 148.933 385.427 151.585 385.661 154.277C385.723 155.114 385.696 155.956 385.581 156.787C385.433 157.963 385.016 159.089 384.361 160.077L384.191 160.307L384.061 160.467L383.911 160.657L383.601 161.037L382.981 161.787C382.571 162.277 382.171 162.787 381.731 163.257C378.311 167.052 374.497 170.471 370.351 173.457C368.351 174.937 366.231 176.357 364.061 177.647C362.991 178.297 361.901 178.917 360.791 179.527C359.681 180.137 358.601 180.697 357.321 181.297L353.691 173.537Z" fill="#FFB573"/>
<path d="M344.791 408.637C345.54 408.618 346.284 408.518 347.011 408.337C347.048 408.326 347.081 408.305 347.107 408.277C347.134 408.249 347.152 408.215 347.161 408.177C347.166 408.139 347.16 408.1 347.144 408.065C347.128 408.029 347.103 407.999 347.071 407.977C346.781 407.787 344.241 406.147 343.261 406.587C343.153 406.638 343.059 406.716 342.991 406.815C342.922 406.913 342.881 407.028 342.871 407.147C342.832 407.336 342.842 407.531 342.9 407.715C342.957 407.899 343.061 408.065 343.201 408.197C343.661 408.531 344.225 408.688 344.791 408.637ZM346.441 408.057C344.991 408.347 343.891 408.297 343.441 407.907C343.351 407.815 343.286 407.702 343.251 407.578C343.216 407.454 343.212 407.323 343.241 407.197C343.245 407.144 343.262 407.093 343.292 407.049C343.322 407.005 343.363 406.97 343.411 406.947C343.941 406.717 345.411 407.457 346.441 408.057Z" fill="#0080FF"/>
<path d="M347 408.337H347.1C347.13 408.319 347.154 408.294 347.171 408.265C347.189 408.235 347.199 408.202 347.2 408.167C347.2 408.057 347.2 405.647 346.28 404.847C346.17 404.741 346.037 404.661 345.892 404.615C345.746 404.568 345.592 404.555 345.44 404.577C345.282 404.579 345.13 404.634 345.008 404.734C344.886 404.834 344.802 404.973 344.77 405.127C344.58 406.127 346.1 407.877 346.9 408.337C346.933 408.347 346.968 408.347 347 408.337ZM345.57 404.947C345.733 404.948 345.889 405.008 346.01 405.117C346.538 405.895 346.81 406.818 346.79 407.757C345.99 407.117 345.04 405.757 345.16 405.187C345.16 405.097 345.23 404.977 345.48 404.947H345.57Z" fill="#0080FF"/>
<path d="M346.221 148.527C345.221 153.527 343.221 163.527 346.671 166.877C346.671 166.877 345.311 171.877 336.081 171.877C325.921 171.877 331.231 166.877 331.231 166.877C336.771 165.557 336.621 161.447 335.661 157.577L346.221 148.527Z" fill="#FFB573"/>
<path d="M329.28 168.877C327.69 169.097 329.05 164.967 329.69 164.537C331.19 163.537 350.55 162.147 350.42 164.537C350.34 165.537 349.86 167.537 349.02 168.197C348.18 168.857 343.2 166.797 329.28 168.877Z" fill="#263238"/>
<path d="M332.44 167.457C331.17 167.887 331.29 163.727 331.72 163.227C332.72 162.067 348.39 158.047 348.85 160.317C349.03 161.317 349.12 163.317 348.58 164.027C348.04 164.737 343.44 163.567 332.44 167.457Z" fill="#263238"/>
<path d="M326.611 139.567C326.548 139.57 326.486 139.558 326.428 139.532C326.371 139.506 326.321 139.466 326.281 139.417C325.976 139.024 325.583 138.707 325.133 138.494C324.683 138.28 324.189 138.175 323.691 138.187C323.639 138.194 323.586 138.191 323.536 138.177C323.485 138.163 323.438 138.139 323.397 138.106C323.356 138.073 323.322 138.033 323.297 137.986C323.272 137.94 323.256 137.889 323.251 137.837C323.243 137.734 323.275 137.632 323.34 137.552C323.405 137.472 323.499 137.42 323.601 137.407C324.231 137.375 324.859 137.496 325.432 137.759C326.004 138.021 326.505 138.419 326.891 138.917C326.958 138.998 326.991 139.103 326.981 139.207C326.972 139.312 326.922 139.409 326.841 139.477C326.773 139.526 326.694 139.557 326.611 139.567Z" fill="#263238"/>
<path d="M324.672 144.457C324.218 146.053 323.545 147.577 322.672 148.987C323.039 149.198 323.447 149.326 323.869 149.362C324.29 149.399 324.714 149.342 325.112 149.197L324.672 144.457Z" fill="#FF5652"/>
<path d="M325.16 143.247C325.23 143.917 324.92 144.497 324.48 144.537C324.04 144.577 323.63 144.077 323.57 143.397C323.51 142.717 323.81 142.147 324.24 142.107C324.67 142.067 325.09 142.567 325.16 143.247Z" fill="#263238"/>
<path d="M324.441 142.127L322.781 141.817C322.781 141.817 323.731 142.997 324.441 142.127Z" fill="#263238"/>
<path d="M356.7 408.147H348.32L348.98 388.747H357.36L356.7 408.147Z" fill="#FFB573"/>
<path d="M347.661 407.177H357.071C357.233 407.173 357.391 407.229 357.514 407.334C357.638 407.44 357.719 407.587 357.741 407.747L358.811 415.187C358.832 415.375 358.813 415.566 358.755 415.746C358.697 415.927 358.602 416.093 358.475 416.233C358.349 416.374 358.194 416.486 358.021 416.563C357.847 416.639 357.66 416.678 357.471 416.677C354.191 416.627 352.611 416.427 348.471 416.427C345.921 416.427 342.201 416.697 338.691 416.697C335.181 416.697 334.981 413.217 336.451 412.907C343.011 411.487 344.051 409.547 346.261 407.687C346.654 407.36 347.149 407.18 347.661 407.177Z" fill="#263238"/>
<g opacity="0.2">
<path d="M357.361 388.747H348.981L348.641 398.747H357.021L357.361 388.747Z" fill="black"/>
</g>
<path d="M323.371 178.457C318.243 176.464 313.22 174.211 308.321 171.707C303.26 169.235 298.44 166.299 293.921 162.937C292.714 161.992 291.571 160.966 290.501 159.867C290.221 159.567 289.941 159.287 289.671 158.937C289.354 158.58 289.06 158.202 288.791 157.807C288.053 156.733 287.593 155.493 287.451 154.197C287.341 152.969 287.508 151.732 287.941 150.577C288.288 149.649 288.762 148.774 289.351 147.977C290.317 146.656 291.457 145.472 292.741 144.457C295.007 142.653 297.453 141.088 300.041 139.787C301.281 139.127 302.541 138.537 303.821 137.987C305.101 137.437 306.361 136.917 307.731 136.447L309.501 140.297C305.141 143.047 300.621 146.077 297.301 149.457C296.558 150.21 295.904 151.046 295.351 151.947C294.871 152.737 294.881 153.327 294.961 153.277C295.041 153.227 294.961 153.277 295.101 153.377L295.501 153.807C295.651 153.987 295.861 154.167 296.051 154.357C296.898 155.137 297.797 155.859 298.741 156.517C300.805 157.979 302.956 159.315 305.181 160.517C307.431 161.777 309.751 162.967 312.111 164.107C316.831 166.367 321.711 168.537 326.501 170.517L323.371 178.457Z" fill="#FFB573"/>
<path d="M312 137.607L313.38 134.607L307.06 132.457C307.06 132.457 305.06 138.367 307.43 141.087C308.421 140.931 309.357 140.532 310.154 139.924C310.952 139.317 311.586 138.521 312 137.607Z" fill="#FFB573"/>
<path d="M313.351 128.117L308.321 126.657L307.061 132.417L313.351 134.607V128.117Z" fill="#FFB573"/>
<path d="M378.352 134.897L379.082 127.897L372.602 129.457C372.602 129.457 372.502 136.037 375.932 137.077L378.352 134.897Z" fill="#FFB573"/>
<path d="M375.96 122.967L371.73 124.937L372.6 129.407L379.08 127.877L375.96 122.967Z" fill="#FFB573"/>
<path d="M347.54 138.707C347.85 147.017 348.15 150.527 344.4 155.177C338.75 162.177 328.48 160.727 325.7 152.677C323.2 145.437 323.12 133.067 330.88 128.987C332.586 128.08 334.496 127.624 336.428 127.662C338.359 127.7 340.25 128.231 341.918 129.205C343.587 130.179 344.98 131.563 345.964 133.226C346.948 134.889 347.49 136.776 347.54 138.707Z" fill="#FFB573"/>
<path d="M343.922 155.167C352.082 151.637 357.442 144.167 355.182 132.587C353.012 121.477 345.512 120.377 342.412 122.677C339.312 124.977 331.582 121.547 326.942 125.447C318.942 132.217 326.502 139.447 330.462 143.817C332.822 148.677 335.922 158.617 343.922 155.167Z" fill="#263238"/>
<path d="M340.53 130.597C341.526 131.874 342.873 132.832 344.407 133.352C345.94 133.871 347.592 133.931 349.159 133.523C350.726 133.114 352.139 132.256 353.223 131.054C354.308 129.852 355.017 128.359 355.263 126.759C355.508 125.158 355.28 123.521 354.606 122.049C353.932 120.577 352.841 119.334 351.469 118.475C350.097 117.615 348.503 117.177 346.884 117.213C345.266 117.249 343.693 117.758 342.36 118.677C340.538 120.016 339.321 122.023 338.978 124.258C338.635 126.494 339.193 128.774 340.53 130.597Z" fill="#0080FF"/>
<path d="M342.651 123.457C341.481 116.757 347.811 111.597 356.291 114.087C364.771 116.577 360.291 124.087 358.541 130.087C356.791 136.087 361.371 141.807 363.271 137.237C365.171 132.667 361.971 131.237 361.971 131.237C361.971 131.237 370.971 133.567 362.611 143.717C354.251 153.867 346.681 142.657 348.731 136.047C350.391 130.737 343.761 129.787 342.651 123.457Z" fill="#263238"/>
<path d="M334.181 125.987C330.311 123.987 323.761 122.337 320.031 128.617C318.271 131.617 318.951 135.617 318.951 135.617L330.341 136.367L334.181 125.987Z" fill="#263238"/>
<path d="M317.611 133.637C317.544 133.632 317.482 133.601 317.437 133.551C317.392 133.5 317.369 133.435 317.371 133.367C317.371 133.197 317.661 129.177 320.091 126.657C325.961 120.557 332.841 125.657 334.801 127.307C334.844 127.352 334.868 127.41 334.87 127.472C334.871 127.533 334.85 127.593 334.811 127.64C334.771 127.687 334.716 127.718 334.655 127.726C334.594 127.735 334.532 127.721 334.481 127.687C332.591 126.067 326.011 121.217 320.481 126.997C318.181 129.387 317.901 133.357 317.901 133.397C317.9 133.433 317.892 133.468 317.876 133.5C317.861 133.532 317.838 133.56 317.811 133.583C317.783 133.606 317.751 133.622 317.717 133.632C317.683 133.641 317.646 133.643 317.611 133.637Z" fill="#263238"/>
<path d="M331.852 143.457C331.807 145.03 331.225 146.541 330.202 147.737C328.822 149.357 327.202 148.557 326.872 146.737C326.542 145.127 326.872 142.337 328.612 141.367C330.352 140.397 331.872 141.637 331.852 143.457Z" fill="#FFB573"/>
<path d="M330.051 219.577C330.051 219.577 330.591 277.727 335.631 310.127C339.711 336.297 347.241 396.817 347.241 396.817H358.671C358.671 396.817 359.781 338.387 357.671 312.507C352.441 247.007 365.951 234.757 355.051 219.577H330.051Z" fill="#263238"/>
<path opacity="0.1" d="M330.051 219.577C330.051 219.577 330.591 277.727 335.631 310.127C339.711 336.297 347.241 396.817 347.241 396.817H358.671C358.671 396.817 359.781 338.387 357.671 312.507C352.441 247.007 365.951 234.757 355.051 219.577H330.051Z" fill="white"/>
<path opacity="0.3" d="M336.061 245.957C340.061 263.507 336.871 291.147 334.681 303.317C332.361 284.837 331.191 260.887 330.611 243.317C332.681 239.977 334.641 239.757 336.061 245.957Z" fill="black"/>
<path d="M345.682 397.037H360.232L360.992 391.937L345.602 391.417L345.682 397.037Z" fill="#0080FF"/>
<path d="M349.831 170.457C351.201 167.737 358.561 166.027 362.581 166.037L365.581 179.397C365.581 179.397 357.581 191.287 354.241 190.027C350.311 188.577 346.901 176.327 349.831 170.457Z" fill="#0080FF"/>
<path opacity="0.4" d="M349.831 170.457C351.201 167.737 358.561 166.027 362.581 166.037L365.581 179.397C365.581 179.397 357.581 191.287 354.241 190.027C350.311 188.577 346.901 176.327 349.831 170.457Z" fill="black"/>
<path d="M341.351 393.767C341.368 393.738 341.376 393.706 341.376 393.672C341.376 393.639 341.368 393.606 341.351 393.577C341.332 393.539 341.302 393.508 341.264 393.488C341.226 393.468 341.183 393.461 341.141 393.467C340.721 393.537 337.021 394.117 336.521 395.177C336.467 395.274 336.439 395.382 336.439 395.492C336.439 395.602 336.467 395.711 336.521 395.807C336.607 395.965 336.73 396.1 336.88 396.199C337.03 396.299 337.202 396.36 337.381 396.377C338.591 396.497 340.381 394.817 341.281 393.797L341.351 393.767ZM336.911 395.307C337.251 394.747 339.171 394.227 340.631 393.957C339.311 395.297 338.151 396.047 337.471 395.957C337.353 395.945 337.24 395.905 337.143 395.838C337.045 395.772 336.965 395.682 336.911 395.577C336.889 395.539 336.877 395.496 336.877 395.452C336.877 395.408 336.889 395.365 336.911 395.327C336.911 395.327 336.901 395.317 336.911 395.307Z" fill="#0080FF"/>
<path d="M341.35 393.767C341.367 393.738 341.376 393.706 341.376 393.672C341.376 393.639 341.367 393.606 341.35 393.577C341.29 393.507 339.81 391.797 338.44 391.707C338.243 391.691 338.044 391.715 337.857 391.779C337.669 391.842 337.497 391.944 337.35 392.077C336.94 392.447 336.98 392.767 337.08 392.967C337.51 393.827 340.17 394.127 341.24 393.897C341.268 393.886 341.292 393.869 341.312 393.846C341.331 393.823 341.344 393.796 341.35 393.767ZM337.44 392.507C337.484 392.439 337.538 392.379 337.6 392.327C337.705 392.228 337.829 392.152 337.966 392.106C338.102 392.059 338.247 392.043 338.39 392.057C339.321 392.286 340.156 392.8 340.78 393.527C339.59 393.627 337.67 393.267 337.41 392.747C337.394 392.708 337.388 392.665 337.393 392.623C337.398 392.581 337.415 392.541 337.44 392.507Z" fill="#0080FF"/>
<path d="M350.081 390.217L342.422 393.627L339.012 386.517L334.551 377.217L334.021 376.137L341.681 372.727L342.271 373.947L346.591 382.957L350.081 390.217Z" fill="#FFB573"/>
<path opacity="0.2" d="M346.591 382.957L339.011 386.517L334.551 377.217L342.271 373.947L346.591 382.957Z" fill="black"/>
<path d="M321.071 219.577C321.071 219.577 296.601 280.457 303.231 309.057C309.231 334.947 335.731 383.977 335.731 383.977L346.001 378.837C346.001 378.837 329.611 319.647 327.841 306.787C324.381 281.787 346.611 246.457 346.611 219.577H321.071Z" fill="#263238"/>
<path opacity="0.1" d="M321.071 219.577C321.071 219.577 296.601 280.457 303.231 309.057C309.231 334.947 335.731 383.977 335.731 383.977L346.001 378.837C346.001 378.837 329.611 319.647 327.841 306.787C324.381 281.787 346.611 246.457 346.611 219.577H321.071Z" fill="white"/>
<path d="M341.06 392.557L348.66 387.027C348.789 386.927 348.949 386.878 349.112 386.889C349.274 386.9 349.427 386.97 349.54 387.087L354.79 392.477C354.918 392.618 355.014 392.784 355.073 392.964C355.132 393.145 355.152 393.335 355.132 393.524C355.112 393.713 355.053 393.895 354.958 394.059C354.863 394.224 354.734 394.366 354.58 394.477C351.89 396.357 350.5 397.137 347.16 399.567C345.1 401.067 341 404.377 338.16 406.447C335.32 408.517 333.16 405.817 334.16 404.707C338.64 399.707 339.58 396.607 340.28 393.797C340.389 393.306 340.664 392.868 341.06 392.557Z" fill="#263238"/>
<path d="M335.071 386.147L348.301 380.097L346.611 374.707L332.441 381.167L335.071 386.147Z" fill="#0080FF"/>
<path d="M327.56 169.817C326.47 166.977 316.91 163.817 312.11 162.817L310 178.537C310 178.537 317.84 189.797 321.27 188.867C325.33 187.767 329.92 175.907 327.56 169.817Z" fill="#0080FF"/>
<path opacity="0.4" d="M327.56 169.817C326.47 166.977 316.91 163.817 312.11 162.817L310 178.537C310 178.537 317.84 189.797 321.27 188.867C325.33 187.767 329.92 175.907 327.56 169.817Z" fill="black"/>
<path d="M317.07 169.027C317.07 169.027 313.07 170.427 321.07 219.577H355.07C354.5 205.737 354.48 197.197 361.07 168.777C356.306 167.794 351.477 167.159 346.62 166.877C341.48 166.507 336.32 166.507 331.18 166.877C324.59 167.457 317.07 169.027 317.07 169.027Z" fill="#0080FF"/>
<path opacity="0.4" d="M317.07 169.027C317.07 169.027 313.07 170.427 321.07 219.577H355.07C354.5 205.737 354.48 197.197 361.07 168.777C356.306 167.794 351.477 167.159 346.62 166.877C341.48 166.507 336.32 166.507 331.18 166.877C324.59 167.457 317.07 169.027 317.07 169.027Z" fill="black"/>
<path d="M355.602 217.587L357.132 220.587C357.252 220.827 356.972 221.067 356.582 221.067H320.902C320.592 221.067 320.342 220.917 320.322 220.717L320.012 217.717C320.012 217.507 320.262 217.327 320.592 217.327H355.002C355.116 217.309 355.233 217.324 355.339 217.37C355.446 217.416 355.537 217.491 355.602 217.587Z" fill="#0080FF"/>
<path opacity="0.3" d="M355.602 217.587L357.132 220.587C357.252 220.827 356.972 221.067 356.582 221.067H320.902C320.592 221.067 320.342 220.917 320.322 220.717L320.012 217.717C320.012 217.507 320.262 217.327 320.592 217.327H355.002C355.116 217.309 355.233 217.324 355.339 217.37C355.446 217.416 355.537 217.491 355.602 217.587Z" fill="white"/>
<path d="M351.001 221.457H351.921C352.111 221.457 352.251 221.357 352.231 221.247L351.801 217.247C351.801 217.127 351.631 217.037 351.451 217.037H350.521C350.341 217.037 350.201 217.127 350.211 217.247L350.641 221.247C350.631 221.337 350.791 221.457 351.001 221.457Z" fill="#263238"/>
<path d="M328.611 221.457H329.531C329.711 221.457 329.851 221.357 329.841 221.247L329.411 217.247C329.411 217.127 329.241 217.037 329.051 217.037H328.131C327.941 217.037 327.811 217.127 327.821 217.247L328.251 221.247C328.261 221.337 328.421 221.457 328.611 221.457Z" fill="#263238"/>
</svg>
