<svg width="32" height="38" viewBox="0 0 32 38" fill="none" xmlns="http://www.w3.org/2000/svg">
<path d="M16 0C8 0 0 1 0 8V27C0 28.8565 0.737498 30.637 2.05025 31.9497C3.36301 33.2625 5.14348 34 7 34L4 37V38H8.46L12.46 34H20L24 38H28V37L25 34C26.8565 34 28.637 33.2625 29.9497 31.9497C31.2625 30.637 32 28.8565 32 27V8C32 1 24.84 0 16 0ZM7 30C6.20435 30 5.44129 29.6839 4.87868 29.1213C4.31607 28.5587 4 27.7956 4 27C4 26.2044 4.31607 25.4413 4.87868 24.8787C5.44129 24.3161 6.20435 24 7 24C7.79565 24 8.55871 24.3161 9.12132 24.8787C9.68393 25.4413 10 26.2044 10 27C10 27.7956 9.68393 28.5587 9.12132 29.1213C8.55871 29.6839 7.79565 30 7 30ZM14 16H4V8H14V16ZM18 16V8H28V16H18ZM25 30C24.2044 30 23.4413 29.6839 22.8787 29.1213C22.3161 28.5587 22 27.7956 22 27C22 26.2044 22.3161 25.4413 22.8787 24.8787C23.4413 24.3161 24.2044 24 25 24C25.7956 24 26.5587 24.3161 27.1213 24.8787C27.6839 25.4413 28 26.2044 28 27C28 27.7956 27.6839 28.5587 27.1213 29.1213C26.5587 29.6839 25.7956 30 25 30Z" fill="#0080FF"/>
</svg>
