<svg
            width="167"
            height="32"
            viewBox="0 0 167 32"
            fill="none"
            xmlns="http://www.w3.org/2000/svg"
          >
            <path
              d="M12.841 0C9.89987 2.51297 7.65645 5.81865 6.44156 9.58624C7.84766 11.3608 9.35999 13.0474 10.9689 14.6364C11.4208 14.2193 11.8796 13.8095 12.3452 13.4074C12.0621 11.632 11.9151 9.81122 11.9151 7.9561C11.9151 5.21741 12.2355 2.55356 12.841 0Z"
              fill="#FF7300"
            />
            <path
              d="M5.42526 16.0811C5.42526 17.2523 5.52049 18.4013 5.70364 19.5207C5.8005 19.6347 5.8981 19.7481 5.99641 19.8608C7.5399 18.0136 9.20126 16.2683 10.9689 14.6364C9.35999 13.0474 7.84766 11.3608 6.44156 9.58624C5.7817 11.6326 5.42526 13.8152 5.42526 16.0811Z"
              fill="#FF7300"
            />
            <path
              d="M5.99641 19.8608C5.8981 19.7481 5.8005 19.6347 5.70364 19.5207C5.73489 19.7117 5.7687 19.9019 5.80504 20.0911C5.86863 20.0142 5.93242 19.9374 5.99641 19.8608Z"
              fill="#FF7300"
            />
            <path
              d="M7.10431 24.3522C6.74701 24.03 6.39651 23.7005 6.05305 23.3639C4.10638 25.8786 2.37092 28.5651 0.873291 31.3967C3.55279 31.7941 6.29474 32 9.08477 32C10.2431 32 11.3931 31.9645 12.5338 31.8946C10.2075 29.8285 8.34027 27.257 7.10431 24.3522Z"
              fill="#0080FF"
            />
            <path
              d="M7.10431 24.3522C8.34027 27.257 10.2075 29.8285 12.5338 31.8946C14.5727 31.7696 16.5818 31.5345 18.5553 31.1952C14.2851 29.6719 10.4047 27.3275 7.10431 24.3522Z"
              fill="#0080FF"
            />
            <path
              d="M31.8983 31.6451C35.4604 31.6451 38.8959 31.103 42.1268 30.0968C38.3605 29.5644 34.7157 28.6538 31.2321 27.4049C28.4478 28.6179 25.5446 29.6093 22.5449 30.3565C25.5186 31.196 28.656 31.6451 31.8983 31.6451Z"
              fill="#0080FF"
            />
            <path
              d="M12.9965 16.5414C14.2081 21.2514 16.3934 25.5705 19.325 29.2716C20.3741 29.6844 21.4484 30.047 22.5449 30.3565C25.5446 29.6093 28.4478 28.6179 31.2321 27.4049C27.8167 26.1803 24.5562 24.6305 21.488 22.7927C18.458 20.9778 15.6155 18.882 12.9965 16.5414Z"
              fill="#0080FF"
            />
            <path
              d="M12.6477 16.227C10.8323 17.8771 9.12678 19.6459 7.54331 21.5211C10.8644 24.8588 14.8671 27.5178 19.325 29.2716C16.3934 25.5705 14.2081 21.2514 12.9965 16.5414C12.8798 16.4371 12.7635 16.3323 12.6477 16.227Z"
              fill="#0080FF"
            />
            <path
              d="M29.9286 14.3522V5.53522C23.5979 7.98706 17.829 11.5666 12.8685 16.0274C12.9099 16.1992 12.9525 16.3706 12.9965 16.5414C15.6155 18.882 18.458 20.9778 21.488 22.7927L29.9286 14.3522Z"
              fill="#0080FF"
            />
            <path
              d="M12.6477 16.227C12.7635 16.3323 12.8798 16.4371 12.9965 16.5414C12.9525 16.3706 12.9099 16.1992 12.8685 16.0274C12.7947 16.0938 12.7211 16.1603 12.6477 16.227Z"
              fill="#0080FF"
            />
            <path
              d="M63.3187 10.876H57.3547V26.5H53.0427V10.876H47.0787V6.9H63.3187V10.876ZM73.563 15.664H73.339C70.511 15.664 68.775 17.372 68.775 20.956V26.5H64.519V11.492H68.775V14.516C69.643 12.444 71.043 11.1 73.563 11.212V15.664ZM80.7861 9.84H76.3061V6.06H80.7861V9.84ZM80.6741 26.5H76.4181V11.492H80.6741V26.5ZM100.435 19.024C100.435 24.036 97.1593 26.78 93.6033 26.78C91.3353 26.78 89.9353 25.744 88.9273 24.54V30.98H84.6713V11.492H88.9273V13.648C89.9633 12.248 91.3913 11.212 93.6033 11.212C97.1033 11.212 100.435 13.956 100.435 18.968V19.024ZM96.1793 19.024V18.968C96.1793 16.476 94.4993 14.824 92.5113 14.824C90.5233 14.824 88.8713 16.476 88.8713 18.968V19.024C88.8713 21.516 90.5233 23.168 92.5113 23.168C94.4993 23.168 96.1793 21.544 96.1793 19.024Z"
              fill="#0080FF"
            />
            <path
              d="M118.938 26.5H104.014V6.9H118.798V10.736H108.298V14.712H117.538V18.548H108.298V22.664H118.938V26.5ZM135.232 26.5H131.116V24.876C130.08 26.024 128.652 26.78 126.58 26.78C123.752 26.78 121.428 25.156 121.428 22.188V22.132C121.428 18.856 123.92 17.344 127.476 17.344C128.988 17.344 130.08 17.596 131.144 17.96V17.708C131.144 15.944 130.052 14.964 127.924 14.964C126.3 14.964 125.152 15.272 123.78 15.776L122.716 12.528C124.368 11.8 125.992 11.324 128.54 11.324C133.188 11.324 135.232 13.732 135.232 17.792V26.5ZM131.2 21.208V20.452C130.472 20.116 129.52 19.892 128.484 19.892C126.664 19.892 125.544 20.62 125.544 21.964V22.02C125.544 23.168 126.496 23.84 127.868 23.84C129.856 23.84 131.2 22.748 131.2 21.208ZM149.898 21.936C149.898 25.268 147.406 26.78 144.158 26.78C142.058 26.78 139.706 26.08 137.718 24.512L139.538 21.712C141.162 22.888 142.87 23.504 144.27 23.504C145.502 23.504 146.062 23.056 146.062 22.384V22.328C146.062 21.404 144.606 21.096 142.954 20.592C140.854 19.976 138.474 18.996 138.474 16.084V16.028C138.474 12.976 140.938 11.268 143.962 11.268C145.866 11.268 147.938 11.912 149.562 13.004L147.938 15.944C146.454 15.076 144.97 14.544 143.878 14.544C142.842 14.544 142.31 14.992 142.31 15.58V15.636C142.31 16.476 143.738 16.868 145.362 17.428C147.462 18.128 149.898 19.136 149.898 21.88V21.936ZM166.949 19.416C166.949 19.836 166.921 20.088 166.893 20.48H156.449C156.869 22.412 158.213 23.42 160.117 23.42C161.545 23.42 162.581 22.972 163.757 21.88L166.193 24.036C164.793 25.772 162.777 26.836 160.061 26.836C155.553 26.836 152.221 23.672 152.221 19.08V19.024C152.221 14.74 155.273 11.212 159.641 11.212C164.653 11.212 166.949 15.104 166.949 19.36V19.416ZM162.805 17.82C162.553 15.916 161.433 14.628 159.641 14.628C157.877 14.628 156.729 15.888 156.393 17.82H162.805Z"
              fill="#FF7300"
            />
          </svg>