<svg width="25" height="25" viewBox="0 0 25 25" fill="none" xmlns="http://www.w3.org/2000/svg">
<path d="M12.5 20.1287C10.3783 20.1287 8.34344 19.2858 6.84315 17.7855C5.34285 16.2852 4.5 14.2504 4.5 12.1287C4.5 10.0069 5.34285 7.9721 6.84315 6.47181C8.34344 4.97152 10.3783 4.12866 12.5 4.12866C14.6217 4.12866 16.6566 4.97152 18.1569 6.47181C19.6571 7.9721 20.5 10.0069 20.5 12.1287C20.5 14.2504 19.6571 16.2852 18.1569 17.7855C16.6566 19.2858 14.6217 20.1287 12.5 20.1287V20.1287ZM12.5 2.12866C11.1868 2.12866 9.88642 2.38732 8.67317 2.88987C7.45991 3.39241 6.35752 4.12901 5.42893 5.05759C3.55357 6.93296 2.5 9.4765 2.5 12.1287C2.5 14.7808 3.55357 17.3244 5.42893 19.1997C6.35752 20.1283 7.45991 20.8649 8.67317 21.3675C9.88642 21.87 11.1868 22.1287 12.5 22.1287C15.1522 22.1287 17.6957 21.0751 19.5711 19.1997C21.4464 17.3244 22.5 14.7808 22.5 12.1287C22.5 10.8154 22.2413 9.51508 21.7388 8.30183C21.2362 7.08857 20.4997 5.98618 19.5711 5.05759C18.6425 4.12901 17.5401 3.39241 16.3268 2.88987C15.1136 2.38732 13.8132 2.12866 12.5 2.12866V2.12866ZM12.5 7.12866C11.1739 7.12866 9.90215 7.65545 8.96447 8.59313C8.02678 9.53081 7.5 10.8026 7.5 12.1287C7.5 13.4547 8.02678 14.7265 8.96447 15.6642C9.90215 16.6019 11.1739 17.1287 12.5 17.1287C13.8261 17.1287 15.0979 16.6019 16.0355 15.6642C16.9732 14.7265 17.5 13.4547 17.5 12.1287C17.5 10.8026 16.9732 9.53081 16.0355 8.59313C15.0979 7.65545 13.8261 7.12866 12.5 7.12866V7.12866Z" fill="white"/>
</svg>
