<svg width="27" height="28" viewBox="0 0 27 28" fill="none" xmlns="http://www.w3.org/2000/svg">
<path d="M12.5001 27.3333V20.8333L7.53342 25.8L6.10008 24.4L12.5001 18V15H9.50008L3.23341 21.2666L1.76675 19.9L6.66675 15H0.166748V13H6.66675L1.66675 7.99996L3.10008 6.56663L9.50008 13H12.5001V9.96663L6.23342 3.69996L7.63342 2.23329L12.5001 7.13329V0.666626H14.5001V7.13329L19.5001 2.13329L20.9001 3.56663L14.5001 9.96663V13H17.5334L23.8334 6.69996L25.2667 8.09996L20.3667 13H26.8334V15H20.3667L25.3001 19.9666L23.9334 21.4L17.5334 15H14.5001V18L20.9001 24.4333L19.5334 25.8666L14.5001 20.8333V27.3333H12.5001Z" fill="#3399FF"/>
</svg>
