<svg width="21" height="23" viewBox="0 0 18 24" fill="none" xmlns="http://www.w3.org/2000/svg">
<path d="M0.5 24V0H10.1C12.2778 0 14.1111 0.744444 15.6 2.23333C17.0889 3.72222 17.8333 5.55556 17.8333 7.73333C17.8333 9.91111 17.0889 11.7444 15.6 13.2333C14.1111 14.7222 12.2778 15.4667 10.1 15.4667H4.5V24H0.5ZM4.5 11.4667H10.1C11.1667 11.4667 12.0556 11.1111 12.7667 10.4C13.4778 9.68889 13.8333 8.8 13.8333 7.73333C13.8333 6.66667 13.4778 5.77778 12.7667 5.06667C12.0556 4.35556 11.1667 4 10.1 4H4.5V11.4667Z" fill="#3399FF"/>
</svg>
