<svg width="27" height="25" viewBox="0 0 27 25" fill="none" xmlns="http://www.w3.org/2000/svg">
<path d="M0.166748 25V22.8667C0.966748 22.8 1.60564 22.5667 2.08341 22.1667C2.56119 21.7667 3.31119 21.5667 4.33342 21.5667C5.35564 21.5667 6.18897 21.8056 6.83342 22.2833C7.47786 22.7611 8.2223 23 9.06675 23C9.91119 23 10.6056 22.7611 11.1501 22.2833C11.6945 21.8056 12.4779 21.5667 13.5001 21.5667C14.5223 21.5667 15.3556 21.8056 16.0001 22.2833C16.6445 22.7611 17.389 23 18.2334 23C19.0779 23 19.7779 22.7611 20.3334 22.2833C20.889 21.8056 21.6779 21.5667 22.7001 21.5667C23.7223 21.5667 24.4667 21.7667 24.9334 22.1667C25.4001 22.5667 26.0334 22.8 26.8334 22.8667V25C26.0556 24.9333 25.3834 24.6833 24.8167 24.25C24.2501 23.8167 23.5445 23.6 22.7001 23.6C21.8556 23.6 21.1334 23.8333 20.5334 24.3C19.9334 24.7667 19.1667 25 18.2334 25C17.3001 25 16.489 24.7667 15.8001 24.3C15.1112 23.8333 14.3445 23.6 13.5001 23.6C12.6556 23.6 11.9167 23.8333 11.2834 24.3C10.6501 24.7667 9.86675 25 8.93342 25C8.00008 25 7.21119 24.7667 6.56675 24.3C5.9223 23.8333 5.17786 23.6 4.33342 23.6C3.48897 23.6 2.77786 23.8167 2.20008 24.25C1.6223 24.6833 0.944526 24.9333 0.166748 25ZM0.166748 18.7333V16.7333C0.966748 16.6667 1.60564 16.4389 2.08341 16.05C2.56119 15.6611 3.31119 15.4667 4.33342 15.4667C5.35564 15.4667 6.16675 15.6778 6.76675 16.1C7.36675 16.5222 8.08897 16.7333 8.93342 16.7333C9.77786 16.7333 10.4945 16.5222 11.0834 16.1C11.6723 15.6778 12.4779 15.4667 13.5001 15.4667C14.5223 15.4667 15.3334 15.6778 15.9334 16.1C16.5334 16.5222 17.2556 16.7333 18.1001 16.7333C18.9445 16.7333 19.6667 16.5222 20.2667 16.1C20.8667 15.6778 21.6779 15.4667 22.7001 15.4667C23.7223 15.4667 24.4667 15.6611 24.9334 16.05C25.4001 16.4389 26.0334 16.6667 26.8334 16.7333V18.7333C26.0556 18.6667 25.3834 18.4167 24.8167 17.9833C24.2501 17.55 23.5445 17.3333 22.7001 17.3333C21.8556 17.3333 21.1334 17.5667 20.5334 18.0333C19.9334 18.5 19.1667 18.7333 18.2334 18.7333C17.3001 18.7333 16.489 18.5 15.8001 18.0333C15.1112 17.5667 14.3445 17.3333 13.5001 17.3333C12.6556 17.3333 11.939 17.5667 11.3501 18.0333C10.7612 18.5 10.0001 18.7333 9.06675 18.7333C8.13342 18.7333 7.3223 18.5 6.63342 18.0333C5.94453 17.5667 5.17786 17.3333 4.33342 17.3333C3.48897 17.3333 2.77786 17.55 2.20008 17.9833C1.6223 18.4167 0.944526 18.6667 0.166748 18.7333ZM7.10008 11.8L11.6001 7.30001L9.80008 5.50001C9.04453 4.74445 8.27786 4.2389 7.50008 3.98334C6.7223 3.72779 5.73342 3.60001 4.53341 3.60001V0.966675C6.13342 0.966675 7.45008 1.16667 8.48342 1.56667C9.51675 1.96667 10.5223 2.65556 11.5001 3.63334L19.9334 12.0667C19.689 12.2667 19.4056 12.4111 19.0834 12.5C18.7612 12.5889 18.4334 12.6333 18.1001 12.6333C17.2556 12.6333 16.5279 12.4 15.9167 11.9333C15.3056 11.4667 14.5001 11.2333 13.5001 11.2333C12.5001 11.2333 11.7001 11.4667 11.1001 11.9333C10.5001 12.4 9.77786 12.6333 8.93342 12.6333C8.53341 12.6333 8.1723 12.5556 7.85008 12.4C7.52786 12.2445 7.27786 12.0445 7.10008 11.8ZM19.7667 1.10001C20.6556 1.10001 21.4056 1.40556 22.0167 2.01667C22.6279 2.62779 22.9334 3.37779 22.9334 4.26667C22.9334 5.15556 22.6279 5.90556 22.0167 6.51667C21.4056 7.12779 20.6556 7.43334 19.7667 7.43334C18.8779 7.43334 18.1279 7.12779 17.5167 6.51667C16.9056 5.90556 16.6001 5.15556 16.6001 4.26667C16.6001 3.37779 16.9056 2.62779 17.5167 2.01667C18.1279 1.40556 18.8779 1.10001 19.7667 1.10001Z" fill="#3399FF"/>
</svg>
