<svg width="27" height="24" viewBox="0 0 27 24" fill="none" xmlns="http://www.w3.org/2000/svg">
<path d="M2.16675 24L0.166748 22H26.8334L24.8334 24H2.16675ZM1.73341 19.9667C1.88897 19.6111 2.03897 19.2889 2.18341 19C2.32786 18.7111 2.55564 18.4111 2.86675 18.1V7.26667H1.50008V5.6H2.86675V4.46667H1.50008V2.8H2.86675V1.66667H1.50008V0H11.5001C12.0334 0 12.4445 0.144444 12.7334 0.433333C13.0223 0.722222 13.1667 1.13333 13.1667 1.66667V2.8H25.5001V4.46667H13.1667V5.6C13.1667 6.13333 13.0223 6.54444 12.7334 6.83333C12.4445 7.12222 12.0334 7.26667 11.5001 7.26667H8.00008V16.3C8.44453 16.3444 8.87786 16.4556 9.30008 16.6333C9.7223 16.8111 10.1223 17.0556 10.5001 17.3667C10.8556 15.9667 11.6501 14.7833 12.8834 13.8167C14.1167 12.85 15.5779 12.3667 17.2667 12.3667C19.3334 12.3667 21.0167 13.0444 22.3167 14.4C23.6167 15.7556 24.2667 17.4667 24.2667 19.5333V19.9667H1.73341ZM12.5001 17.9667H22.0334C21.8334 16.9667 21.289 16.1167 20.4001 15.4167C19.5112 14.7167 18.4667 14.3667 17.2667 14.3667C16.0667 14.3667 15.0223 14.7167 14.1334 15.4167C13.2445 16.1167 12.7001 16.9667 12.5001 17.9667ZM8.00008 2.8H11.5001V1.66667H8.00008V2.8ZM8.00008 5.6H11.5001V4.46667H8.00008V5.6ZM4.50008 2.8H6.33342V1.66667H4.50008V2.8ZM4.50008 5.6H6.33342V4.46667H4.50008V5.6ZM4.50008 16.9333C4.67786 16.8 4.94453 16.6611 5.30008 16.5167C5.65564 16.3722 6.00008 16.2889 6.33342 16.2667V7.26667H4.50008V16.9333Z" fill="#3399FF"/>
</svg>
