<svg width="1078" height="544" viewBox="0 0 1078 544" fill="none" xmlns="http://www.w3.org/2000/svg">
<rect width="1078" height="544" rx="32" fill="#F5F6F8"/>
<path d="M68.4141 72H60.1914V57.7227H68.4141V60.2031H63.2188V63.3379H68.0527V65.8184H63.2188V69.5H68.4141V72Z" fill="#262627"/>
<path d="M70.2402 144.725C70.2402 146.333 69.931 147.677 69.3125 148.758C68.7005 149.832 67.8118 150.643 66.6465 151.189C65.4811 151.73 64.0781 152 62.4375 152H58.3945V137.723H62.877C64.3743 137.723 65.6732 137.99 66.7734 138.523C67.8737 139.051 68.7266 139.835 69.332 140.877C69.9375 141.912 70.2402 143.195 70.2402 144.725ZM67.0957 144.803C67.0957 143.748 66.9395 142.882 66.627 142.205C66.321 141.521 65.8652 141.017 65.2598 140.691C64.6608 140.366 63.9186 140.203 63.0332 140.203H61.4219V149.5H62.7207C64.1986 149.5 65.2956 149.106 66.0117 148.318C66.7344 147.531 67.0957 146.359 67.0957 144.803Z" fill="#262627"/>
<rect x="272" y="32" width="64" height="64" rx="16" fill="#CCE5FF"/>
<rect x="272" y="112" width="64" height="64" rx="16" fill="#CCE5FF"/>
<rect x="352" y="32" width="64" height="64" rx="16" fill="#0080FF"/>
<mask id="mask0_1872_9764" style="mask-type:alpha" maskUnits="userSpaceOnUse" x="360" y="40" width="48" height="48">
<rect x="360" y="40" width="48" height="48" fill="#D9D9D9"/>
</mask>
<g mask="url(#mask0_1872_9764)">
<path d="M372.8 78L370 75.2L381.2 64L370 52.8L372.8 50L384 61.2L395.2 50L398 52.8L386.8 64L398 75.2L395.2 78L384 66.8L372.8 78Z" fill="white"/>
</g>
<rect x="352" y="112" width="64" height="64" rx="16" fill="#CCE5FF"/>
<rect x="432" y="32" width="64" height="64" rx="16" fill="#CCE5FF"/>
<rect x="432" y="112" width="64" height="64" rx="16" fill="#CCE5FF"/>
<rect x="512" y="32" width="64" height="64" rx="16" fill="#CCE5FF"/>
<rect x="512" y="112" width="64" height="64" rx="16" fill="#CCE5FF"/>
<rect x="592" y="32" width="64" height="64" rx="16" fill="#CCE5FF"/>
<rect x="592" y="112" width="64" height="64" rx="16" fill="#CCE5FF"/>
<rect x="672" y="32" width="64" height="64" rx="16" fill="#0080FF"/>
<mask id="mask1_1872_9764" style="mask-type:alpha" maskUnits="userSpaceOnUse" x="680" y="40" width="48" height="48">
<rect x="680" y="40" width="48" height="48" fill="#D9D9D9"/>
</mask>
<g mask="url(#mask1_1872_9764)">
<path d="M692.8 78L690 75.2L701.2 64L690 52.8L692.8 50L704 61.2L715.2 50L718 52.8L706.8 64L718 75.2L715.2 78L704 66.8L692.8 78Z" fill="white"/>
</g>
<rect x="672" y="112" width="64" height="64" rx="16" fill="#0080FF"/>
<mask id="mask2_1872_9764" style="mask-type:alpha" maskUnits="userSpaceOnUse" x="680" y="120" width="48" height="48">
<rect x="680" y="120" width="48" height="48" fill="#D9D9D9"/>
</mask>
<g mask="url(#mask2_1872_9764)">
<path d="M692.8 158L690 155.2L701.2 144L690 132.8L692.8 130L704 141.2L715.2 130L718 132.8L706.8 144L718 155.2L715.2 158L704 146.8L692.8 158Z" fill="white"/>
</g>
<rect x="752" y="32" width="64" height="64" rx="16" fill="#0080FF"/>
<mask id="mask3_1872_9764" style="mask-type:alpha" maskUnits="userSpaceOnUse" x="760" y="40" width="48" height="48">
<rect x="760" y="40" width="48" height="48" fill="#D9D9D9"/>
</mask>
<g mask="url(#mask3_1872_9764)">
<path d="M772.8 78L770 75.2L781.2 64L770 52.8L772.8 50L784 61.2L795.2 50L798 52.8L786.8 64L798 75.2L795.2 78L784 66.8L772.8 78Z" fill="white"/>
</g>
<rect x="752" y="112" width="64" height="64" rx="16" fill="#0080FF"/>
<mask id="mask4_1872_9764" style="mask-type:alpha" maskUnits="userSpaceOnUse" x="760" y="120" width="48" height="48">
<rect x="760" y="120" width="48" height="48" fill="#D9D9D9"/>
</mask>
<g mask="url(#mask4_1872_9764)">
<path d="M772.8 158L770 155.2L781.2 144L770 132.8L772.8 130L784 141.2L795.2 130L798 132.8L786.8 144L798 155.2L795.2 158L784 146.8L772.8 158Z" fill="white"/>
</g>
<rect x="832" y="32" width="64" height="64" rx="16" fill="#CCE5FF"/>
<rect x="832" y="112" width="64" height="64" rx="16" fill="#CCE5FF"/>
<rect x="912" y="32" width="64" height="64" rx="16" fill="#CCE5FF"/>
<rect x="912" y="112" width="64" height="64" rx="16" fill="#CCE5FF"/>
<rect x="992" y="32" width="64" height="64" rx="16" fill="#CCE5FF"/>
<rect x="992" y="112" width="64" height="64" rx="16" fill="#CCE5FF"/>
<path d="M146.539 240H143.521V231.738C143.521 231.51 143.525 231.23 143.531 230.898C143.538 230.56 143.548 230.215 143.561 229.863C143.574 229.505 143.587 229.183 143.6 228.896C143.528 228.981 143.382 229.128 143.16 229.336C142.945 229.538 142.743 229.72 142.555 229.883L140.914 231.201L139.459 229.385L144.059 225.723H146.539V240Z" fill="#262627"/>
<path d="M229.059 240H219.078V237.9L222.662 234.277C223.385 233.535 223.964 232.917 224.4 232.422C224.843 231.921 225.162 231.465 225.357 231.055C225.559 230.645 225.66 230.205 225.66 229.736C225.66 229.17 225.501 228.747 225.182 228.467C224.869 228.18 224.449 228.037 223.922 228.037C223.368 228.037 222.831 228.164 222.311 228.418C221.79 228.672 221.246 229.033 220.68 229.502L219.039 227.559C219.449 227.207 219.882 226.875 220.338 226.562C220.8 226.25 221.334 225.999 221.939 225.811C222.551 225.615 223.284 225.518 224.137 225.518C225.074 225.518 225.878 225.687 226.549 226.025C227.226 226.364 227.747 226.826 228.111 227.412C228.476 227.992 228.658 228.649 228.658 229.385C228.658 230.173 228.502 230.892 228.189 231.543C227.877 232.194 227.421 232.839 226.822 233.477C226.23 234.115 225.514 234.821 224.674 235.596L222.838 237.324V237.461H229.059V240Z" fill="#262627"/>
<path d="M308.502 228.916C308.502 229.574 308.365 230.143 308.092 230.625C307.818 231.107 307.447 231.501 306.979 231.807C306.516 232.113 305.995 232.337 305.416 232.48V232.539C306.562 232.682 307.431 233.034 308.023 233.594C308.622 234.154 308.922 234.902 308.922 235.84C308.922 236.673 308.717 237.419 308.307 238.076C307.903 238.734 307.278 239.251 306.432 239.629C305.585 240.007 304.495 240.195 303.16 240.195C302.372 240.195 301.637 240.13 300.953 240C300.276 239.876 299.638 239.684 299.039 239.424V236.855C299.651 237.168 300.292 237.406 300.963 237.568C301.633 237.725 302.258 237.803 302.838 237.803C303.919 237.803 304.674 237.617 305.104 237.246C305.54 236.868 305.758 236.341 305.758 235.664C305.758 235.267 305.657 234.932 305.455 234.658C305.253 234.385 304.902 234.176 304.4 234.033C303.906 233.89 303.212 233.818 302.32 233.818H301.236V231.504H302.34C303.219 231.504 303.886 231.423 304.342 231.26C304.804 231.09 305.117 230.863 305.279 230.576C305.449 230.283 305.533 229.951 305.533 229.58C305.533 229.072 305.377 228.675 305.064 228.389C304.752 228.102 304.231 227.959 303.502 227.959C303.046 227.959 302.63 228.018 302.252 228.135C301.881 228.245 301.546 228.382 301.246 228.545C300.947 228.701 300.683 228.854 300.455 229.004L299.059 226.924C299.618 226.52 300.273 226.185 301.021 225.918C301.777 225.651 302.675 225.518 303.717 225.518C305.188 225.518 306.354 225.814 307.213 226.406C308.072 226.999 308.502 227.835 308.502 228.916Z" fill="#262627"/>
<path d="M389.381 237.041H387.662V240H384.713V237.041H378.619V234.941L384.879 225.723H387.662V234.697H389.381V237.041ZM384.713 234.697V232.275C384.713 232.048 384.716 231.777 384.723 231.465C384.736 231.152 384.749 230.84 384.762 230.527C384.775 230.215 384.788 229.938 384.801 229.697C384.82 229.45 384.833 229.277 384.84 229.18H384.762C384.638 229.447 384.508 229.707 384.371 229.961C384.234 230.208 384.075 230.469 383.893 230.742L381.275 234.697H384.713Z" fill="#262627"/>
<path d="M464.273 230.879C465.146 230.879 465.921 231.045 466.598 231.377C467.281 231.709 467.818 232.197 468.209 232.842C468.6 233.486 468.795 234.281 468.795 235.225C468.795 236.253 468.58 237.142 468.15 237.891C467.727 238.633 467.092 239.202 466.246 239.6C465.406 239.997 464.358 240.195 463.102 240.195C462.353 240.195 461.646 240.13 460.982 240C460.325 239.876 459.749 239.684 459.254 239.424V236.816C459.749 237.077 460.341 237.298 461.031 237.48C461.728 237.656 462.382 237.744 462.994 237.744C463.593 237.744 464.098 237.666 464.508 237.51C464.918 237.347 465.227 237.1 465.436 236.768C465.65 236.429 465.758 235.999 465.758 235.479C465.758 234.782 465.523 234.248 465.055 233.877C464.586 233.506 463.867 233.32 462.896 233.32C462.525 233.32 462.138 233.356 461.734 233.428C461.337 233.499 461.005 233.571 460.738 233.643L459.537 232.998L460.074 225.723H467.818V228.281H462.721L462.457 231.084C462.678 231.038 462.919 230.993 463.18 230.947C463.44 230.902 463.805 230.879 464.273 230.879Z" fill="#262627"/>
<path d="M538.98 233.936C538.98 233.115 539.039 232.305 539.156 231.504C539.28 230.697 539.492 229.938 539.791 229.229C540.09 228.512 540.51 227.881 541.051 227.334C541.591 226.781 542.278 226.348 543.111 226.035C543.945 225.716 544.954 225.557 546.139 225.557C546.419 225.557 546.744 225.57 547.115 225.596C547.493 225.615 547.805 225.651 548.053 225.703V228.115C547.792 228.057 547.512 228.011 547.213 227.979C546.92 227.939 546.627 227.92 546.334 227.92C545.149 227.92 544.231 228.109 543.58 228.486C542.936 228.864 542.48 229.388 542.213 230.059C541.952 230.723 541.799 231.497 541.754 232.383H541.881C542.063 232.064 542.291 231.781 542.564 231.533C542.844 231.286 543.183 231.09 543.58 230.947C543.977 230.798 544.443 230.723 544.977 230.723C545.81 230.723 546.533 230.902 547.145 231.26C547.757 231.611 548.229 232.122 548.561 232.793C548.893 233.464 549.059 234.281 549.059 235.244C549.059 236.273 548.86 237.158 548.463 237.9C548.066 238.643 547.503 239.212 546.773 239.609C546.051 240 545.191 240.195 544.195 240.195C543.466 240.195 542.786 240.072 542.154 239.824C541.523 239.57 540.969 239.186 540.494 238.672C540.019 238.158 539.648 237.51 539.381 236.729C539.114 235.941 538.98 235.01 538.98 233.936ZM544.137 237.783C544.729 237.783 545.211 237.581 545.582 237.178C545.953 236.774 546.139 236.143 546.139 235.283C546.139 234.587 545.976 234.04 545.65 233.643C545.331 233.239 544.846 233.037 544.195 233.037C543.753 233.037 543.362 233.138 543.023 233.34C542.691 233.535 542.434 233.786 542.252 234.092C542.07 234.391 541.979 234.701 541.979 235.02C541.979 235.352 542.024 235.68 542.115 236.006C542.206 236.331 542.343 236.628 542.525 236.895C542.708 237.161 542.932 237.376 543.199 237.539C543.473 237.702 543.785 237.783 544.137 237.783Z" fill="#262627"/>
<path d="M620.494 240L625.855 228.262H618.814V225.723H629.059V227.617L623.658 240H620.494Z" fill="#262627"/>
<path d="M704 225.537C704.82 225.537 705.576 225.664 706.266 225.918C706.962 226.172 707.519 226.556 707.936 227.07C708.352 227.578 708.561 228.216 708.561 228.984C708.561 229.557 708.447 230.059 708.219 230.488C707.997 230.918 707.695 231.296 707.311 231.621C706.926 231.94 706.49 232.22 706.002 232.461C706.51 232.728 706.992 233.04 707.447 233.398C707.903 233.75 708.274 234.163 708.561 234.639C708.854 235.114 709 235.667 709 236.299C709 237.093 708.788 237.783 708.365 238.369C707.942 238.949 707.356 239.398 706.607 239.717C705.859 240.036 704.99 240.195 704 240.195C702.932 240.195 702.024 240.042 701.275 239.736C700.527 239.43 699.957 238.994 699.566 238.428C699.176 237.855 698.98 237.171 698.98 236.377C698.98 235.726 699.101 235.16 699.342 234.678C699.589 234.196 699.921 233.783 700.338 233.438C700.755 233.086 701.214 232.786 701.715 232.539C701.292 232.272 700.904 231.969 700.553 231.631C700.208 231.292 699.931 230.905 699.723 230.469C699.521 230.033 699.42 229.531 699.42 228.965C699.42 228.21 699.632 227.578 700.055 227.07C700.484 226.562 701.048 226.182 701.744 225.928C702.441 225.667 703.193 225.537 704 225.537ZM701.773 236.201C701.773 236.715 701.956 237.142 702.32 237.48C702.691 237.812 703.238 237.979 703.961 237.979C704.71 237.979 705.27 237.819 705.641 237.5C706.012 237.174 706.197 236.748 706.197 236.221C706.197 235.856 706.09 235.537 705.875 235.264C705.667 234.99 705.403 234.746 705.084 234.531C704.765 234.31 704.443 234.105 704.117 233.916L703.854 233.779C703.437 233.968 703.072 234.18 702.76 234.414C702.454 234.648 702.213 234.912 702.037 235.205C701.861 235.498 701.773 235.83 701.773 236.201ZM703.98 227.744C703.486 227.744 703.076 227.871 702.75 228.125C702.424 228.379 702.262 228.737 702.262 229.199C702.262 229.525 702.34 229.811 702.496 230.059C702.659 230.299 702.87 230.511 703.131 230.693C703.398 230.876 703.688 231.045 704 231.201C704.299 231.058 704.579 230.898 704.84 230.723C705.1 230.547 705.312 230.335 705.475 230.088C705.637 229.84 705.719 229.544 705.719 229.199C705.719 228.737 705.553 228.379 705.221 228.125C704.895 227.871 704.482 227.744 703.98 227.744Z" fill="#262627"/>
<path d="M789 231.816C789 232.637 788.938 233.451 788.814 234.258C788.697 235.065 788.489 235.827 788.189 236.543C787.89 237.253 787.47 237.884 786.93 238.438C786.389 238.984 785.702 239.414 784.869 239.727C784.036 240.039 783.027 240.195 781.842 240.195C781.562 240.195 781.233 240.182 780.855 240.156C780.478 240.137 780.165 240.104 779.918 240.059V237.637C780.178 237.702 780.455 237.754 780.748 237.793C781.041 237.826 781.337 237.842 781.637 237.842C782.828 237.842 783.746 237.653 784.391 237.275C785.042 236.898 785.497 236.374 785.758 235.703C786.025 235.033 786.178 234.258 786.217 233.379H786.1C785.911 233.691 785.686 233.975 785.426 234.229C785.172 234.476 784.846 234.674 784.449 234.824C784.052 234.967 783.548 235.039 782.936 235.039C782.122 235.039 781.412 234.863 780.807 234.512C780.208 234.154 779.742 233.639 779.41 232.969C779.085 232.292 778.922 231.475 778.922 230.518C778.922 229.482 779.117 228.597 779.508 227.861C779.905 227.119 780.468 226.549 781.197 226.152C781.926 225.755 782.786 225.557 783.775 225.557C784.505 225.557 785.185 225.684 785.816 225.938C786.448 226.185 787.001 226.566 787.477 227.08C787.958 227.594 788.333 228.245 788.6 229.033C788.867 229.821 789 230.749 789 231.816ZM783.834 227.979C783.248 227.979 782.77 228.18 782.398 228.584C782.027 228.988 781.842 229.619 781.842 230.479C781.842 231.169 782.001 231.715 782.32 232.119C782.639 232.523 783.124 232.725 783.775 232.725C784.225 232.725 784.615 232.627 784.947 232.432C785.279 232.23 785.536 231.979 785.719 231.68C785.908 231.374 786.002 231.061 786.002 230.742C786.002 230.41 785.956 230.081 785.865 229.756C785.774 229.43 785.637 229.134 785.455 228.867C785.273 228.6 785.045 228.385 784.771 228.223C784.505 228.06 784.192 227.979 783.834 227.979Z" fill="#262627"/>
<path d="M860.801 240H857.784V231.738C857.784 231.51 857.787 231.23 857.794 230.898C857.8 230.56 857.81 230.215 857.823 229.863C857.836 229.505 857.849 229.183 857.862 228.896C857.79 228.981 857.644 229.128 857.422 229.336C857.208 229.538 857.006 229.72 856.817 229.883L855.176 231.201L853.721 229.385L858.321 225.723H860.801V240ZM874.718 232.861C874.718 234.014 874.627 235.042 874.445 235.947C874.269 236.852 873.982 237.62 873.585 238.252C873.195 238.883 872.68 239.365 872.042 239.697C871.404 240.029 870.63 240.195 869.718 240.195C868.572 240.195 867.632 239.906 866.896 239.326C866.16 238.74 865.617 237.9 865.265 236.807C864.913 235.706 864.738 234.391 864.738 232.861C864.738 231.318 864.897 230 865.216 228.906C865.542 227.806 866.069 226.963 866.798 226.377C867.527 225.791 868.501 225.498 869.718 225.498C870.857 225.498 871.795 225.791 872.531 226.377C873.273 226.956 873.823 227.796 874.181 228.896C874.539 229.99 874.718 231.312 874.718 232.861ZM867.736 232.861C867.736 233.949 867.794 234.857 867.911 235.586C868.035 236.309 868.24 236.852 868.527 237.217C868.813 237.581 869.21 237.764 869.718 237.764C870.219 237.764 870.613 237.585 870.9 237.227C871.193 236.862 871.401 236.318 871.525 235.596C871.648 234.867 871.71 233.955 871.71 232.861C871.71 231.774 871.648 230.866 871.525 230.137C871.401 229.408 871.193 228.861 870.9 228.496C870.613 228.125 870.219 227.939 869.718 227.939C869.21 227.939 868.813 228.125 868.527 228.496C868.24 228.861 868.035 229.408 867.911 230.137C867.794 230.866 867.736 231.774 867.736 232.861Z" fill="#262627"/>
<path d="M940.801 240H937.784V231.738C937.784 231.51 937.787 231.23 937.794 230.898C937.8 230.56 937.81 230.215 937.823 229.863C937.836 229.505 937.849 229.183 937.862 228.896C937.79 228.981 937.644 229.128 937.422 229.336C937.208 229.538 937.006 229.72 936.817 229.883L935.176 231.201L933.721 229.385L938.321 225.723H940.801V240ZM952.277 240H949.259V231.738C949.259 231.51 949.262 231.23 949.269 230.898C949.275 230.56 949.285 230.215 949.298 229.863C949.311 229.505 949.324 229.183 949.337 228.896C949.266 228.981 949.119 229.128 948.898 229.336C948.683 229.538 948.481 229.72 948.292 229.883L946.652 231.201L945.197 229.385L949.796 225.723H952.277V240Z" fill="#262627"/>
<path d="M1020.8 240H1017.78V231.738C1017.78 231.51 1017.79 231.23 1017.79 230.898C1017.8 230.56 1017.81 230.215 1017.82 229.863C1017.84 229.505 1017.85 229.183 1017.86 228.896C1017.79 228.981 1017.64 229.128 1017.42 229.336C1017.21 229.538 1017.01 229.72 1016.82 229.883L1015.18 231.201L1013.72 229.385L1018.32 225.723H1020.8V240ZM1034.8 240H1024.82V237.9L1028.4 234.277C1029.12 233.535 1029.7 232.917 1030.14 232.422C1030.58 231.921 1030.9 231.465 1031.1 231.055C1031.3 230.645 1031.4 230.205 1031.4 229.736C1031.4 229.17 1031.24 228.747 1030.92 228.467C1030.61 228.18 1030.19 228.037 1029.66 228.037C1029.11 228.037 1028.57 228.164 1028.05 228.418C1027.53 228.672 1026.98 229.033 1026.42 229.502L1024.78 227.559C1025.19 227.207 1025.62 226.875 1026.08 226.562C1026.54 226.25 1027.07 225.999 1027.68 225.811C1028.29 225.615 1029.02 225.518 1029.87 225.518C1030.81 225.518 1031.62 225.687 1032.29 226.025C1032.96 226.364 1033.48 226.826 1033.85 227.412C1034.21 227.992 1034.4 228.649 1034.4 229.385C1034.4 230.173 1034.24 230.892 1033.93 231.543C1033.61 232.194 1033.16 232.839 1032.56 233.477C1031.97 234.115 1031.25 234.821 1030.41 235.596L1028.58 237.324V237.461H1034.8V240Z" fill="#262627"/>
<path d="M65.4844 316.037C64.9049 316.037 64.3906 316.151 63.9414 316.379C63.4987 316.6 63.1243 316.923 62.8184 317.346C62.5189 317.769 62.291 318.28 62.1348 318.879C61.9785 319.478 61.9004 320.152 61.9004 320.9C61.9004 321.91 62.0241 322.772 62.2715 323.488C62.5254 324.198 62.916 324.742 63.4434 325.119C63.9707 325.49 64.651 325.676 65.4844 325.676C66.0638 325.676 66.6432 325.611 67.2227 325.48C67.8086 325.35 68.4434 325.165 69.127 324.924V327.463C68.4954 327.723 67.8737 327.909 67.2617 328.02C66.6497 328.137 65.9629 328.195 65.2012 328.195C63.7298 328.195 62.5189 327.893 61.5684 327.287C60.6243 326.675 59.9245 325.822 59.4688 324.729C59.013 323.628 58.7852 322.346 58.7852 320.881C58.7852 319.8 58.9316 318.811 59.2246 317.912C59.5176 317.014 59.9473 316.236 60.5137 315.578C61.0801 314.921 61.7799 314.413 62.6133 314.055C63.4466 313.697 64.4036 313.518 65.4844 313.518C66.194 313.518 66.9036 313.609 67.6133 313.791C68.3294 313.967 69.013 314.211 69.6641 314.523L68.6875 316.984C68.1536 316.73 67.6165 316.509 67.0762 316.32C66.5358 316.132 66.0052 316.037 65.4844 316.037Z" fill="#262627"/>
<path d="M59.0781 393.723H63.5215C65.4225 393.723 66.8613 393.99 67.8379 394.523C68.8145 395.057 69.3027 395.995 69.3027 397.336C69.3027 397.876 69.2148 398.365 69.0391 398.801C68.8698 399.237 68.6224 399.595 68.2969 399.875C67.9714 400.155 67.5742 400.337 67.1055 400.422V400.52C67.5807 400.617 68.0104 400.786 68.3945 401.027C68.7786 401.262 69.0846 401.607 69.3125 402.062C69.5469 402.512 69.6641 403.111 69.6641 403.859C69.6641 404.725 69.4525 405.467 69.0293 406.086C68.6061 406.704 68.0007 407.18 67.2129 407.512C66.4316 407.837 65.5007 408 64.4199 408H59.0781V393.723ZM62.1055 399.377H63.8633C64.7422 399.377 65.3509 399.24 65.6895 398.967C66.028 398.687 66.1973 398.277 66.1973 397.736C66.1973 397.189 65.9954 396.799 65.5918 396.564C65.1947 396.324 64.5632 396.203 63.6973 396.203H62.1055V399.377ZM62.1055 401.779V405.5H64.0781C64.9896 405.5 65.6243 405.324 65.9824 404.973C66.3405 404.621 66.5195 404.149 66.5195 403.557C66.5195 403.205 66.4414 402.896 66.2852 402.629C66.1289 402.362 65.8652 402.154 65.4941 402.004C65.1296 401.854 64.625 401.779 63.9805 401.779H62.1055Z" fill="#262627"/>
<path d="M67.6328 488L66.5977 484.602H61.3926L60.3574 488H57.0957L62.1348 473.664H65.8359L70.8945 488H67.6328ZM65.875 482.062L64.8398 478.742C64.7747 478.521 64.6868 478.238 64.5762 477.893C64.472 477.541 64.3646 477.186 64.2539 476.828C64.1497 476.464 64.0651 476.148 64 475.881C63.9349 476.148 63.8438 476.48 63.7266 476.877C63.6159 477.268 63.5085 477.639 63.4043 477.99C63.3001 478.342 63.2253 478.592 63.1797 478.742L62.1543 482.062H65.875Z" fill="#262627"/>
<rect x="112" y="368" width="64" height="64" rx="16" fill="#CCE5FF"/>
<rect x="112" y="448" width="64" height="64" rx="16" fill="#CCE5FF"/>
<rect x="192" y="368" width="64" height="64" rx="16" fill="#0080FF"/>
<mask id="mask5_1872_9764" style="mask-type:alpha" maskUnits="userSpaceOnUse" x="200" y="376" width="48" height="48">
<rect x="200" y="376" width="48" height="48" fill="#D9D9D9"/>
</mask>
<g mask="url(#mask5_1872_9764)">
<path d="M212.8 414L210 411.2L221.2 400L210 388.8L212.8 386L224 397.2L235.2 386L238 388.8L226.8 400L238 411.2L235.2 414L224 402.8L212.8 414Z" fill="white"/>
</g>
<rect x="192" y="448" width="64" height="64" rx="16" fill="#CCE5FF"/>
<rect x="272" y="368" width="64" height="64" rx="16" fill="#0080FF"/>
<mask id="mask6_1872_9764" style="mask-type:alpha" maskUnits="userSpaceOnUse" x="280" y="376" width="48" height="48">
<rect x="280" y="376" width="48" height="48" fill="#D9D9D9"/>
</mask>
<g mask="url(#mask6_1872_9764)">
<path d="M292.8 414L290 411.2L301.2 400L290 388.8L292.8 386L304 397.2L315.2 386L318 388.8L306.8 400L318 411.2L315.2 414L304 402.8L292.8 414Z" fill="white"/>
</g>
<rect x="272" y="448" width="64" height="64" rx="16" fill="#0080FF"/>
<mask id="mask7_1872_9764" style="mask-type:alpha" maskUnits="userSpaceOnUse" x="280" y="456" width="48" height="48">
<rect x="280" y="456" width="48" height="48" fill="#D9D9D9"/>
</mask>
<g mask="url(#mask7_1872_9764)">
<path d="M292.8 494L290 491.2L301.2 480L290 468.8L292.8 466L304 477.2L315.2 466L318 468.8L306.8 480L318 491.2L315.2 494L304 482.8L292.8 494Z" fill="white"/>
</g>
<rect x="352" y="288" width="64" height="64" rx="16" fill="#CCE5FF"/>
<rect x="352" y="368" width="64" height="64" rx="16" fill="#CCE5FF"/>
<rect x="352" y="448" width="64" height="64" rx="16" fill="#CCE5FF"/>
<rect x="432" y="288" width="64" height="64" rx="16" fill="#CCE5FF"/>
<rect x="432" y="368" width="64" height="64" rx="16" fill="#0080FF"/>
<mask id="mask8_1872_9764" style="mask-type:alpha" maskUnits="userSpaceOnUse" x="440" y="376" width="48" height="48">
<rect x="440" y="376" width="48" height="48" fill="#D9D9D9"/>
</mask>
<g mask="url(#mask8_1872_9764)">
<path d="M452.8 414L450 411.2L461.2 400L450 388.8L452.8 386L464 397.2L475.2 386L478 388.8L466.8 400L478 411.2L475.2 414L464 402.8L452.8 414Z" fill="white"/>
</g>
<rect x="432" y="448" width="64" height="64" rx="16" fill="#CCE5FF"/>
<rect x="512" y="288" width="64" height="64" rx="16" fill="#CCE5FF"/>
<rect x="512" y="368" width="64" height="64" rx="16" fill="#0080FF"/>
<mask id="mask9_1872_9764" style="mask-type:alpha" maskUnits="userSpaceOnUse" x="520" y="376" width="48" height="48">
<rect x="520" y="376" width="48" height="48" fill="#D9D9D9"/>
</mask>
<g mask="url(#mask9_1872_9764)">
<path d="M532.8 414L530 411.2L541.2 400L530 388.8L532.8 386L544 397.2L555.2 386L558 388.8L546.8 400L558 411.2L555.2 414L544 402.8L532.8 414Z" fill="white"/>
</g>
<rect x="512" y="448" width="64" height="64" rx="16" fill="#CCE5FF"/>
<rect x="592" y="288" width="64" height="64" rx="16" fill="#0080FF"/>
<mask id="mask10_1872_9764" style="mask-type:alpha" maskUnits="userSpaceOnUse" x="600" y="296" width="48" height="48">
<rect x="600" y="296" width="48" height="48" fill="#D9D9D9"/>
</mask>
<g mask="url(#mask10_1872_9764)">
<path d="M612.8 334L610 331.2L621.2 320L610 308.8L612.8 306L624 317.2L635.2 306L638 308.8L626.8 320L638 331.2L635.2 334L624 322.8L612.8 334Z" fill="white"/>
</g>
<rect x="592" y="368" width="64" height="64" rx="16" fill="#0080FF"/>
<mask id="mask11_1872_9764" style="mask-type:alpha" maskUnits="userSpaceOnUse" x="600" y="376" width="48" height="48">
<rect x="600" y="376" width="48" height="48" fill="#D9D9D9"/>
</mask>
<g mask="url(#mask11_1872_9764)">
<path d="M612.8 414L610 411.2L621.2 400L610 388.8L612.8 386L624 397.2L635.2 386L638 388.8L626.8 400L638 411.2L635.2 414L624 402.8L612.8 414Z" fill="white"/>
</g>
<rect x="592" y="448" width="64" height="64" rx="16" fill="#CCE5FF"/>
<rect x="672" y="288" width="64" height="64" rx="16" fill="#CCE5FF"/>
<rect x="672" y="368" width="64" height="64" rx="16" fill="#CCE5FF"/>
<rect x="672" y="448" width="64" height="64" rx="16" fill="#0080FF"/>
<mask id="mask12_1872_9764" style="mask-type:alpha" maskUnits="userSpaceOnUse" x="680" y="456" width="48" height="48">
<rect x="680" y="456" width="48" height="48" fill="#D9D9D9"/>
</mask>
<g mask="url(#mask12_1872_9764)">
<path d="M692.8 494L690 491.2L701.2 480L690 468.8L692.8 466L704 477.2L715.2 466L718 468.8L706.8 480L718 491.2L715.2 494L704 482.8L692.8 494Z" fill="white"/>
</g>
<rect x="752" y="288" width="64" height="64" rx="16" fill="#0080FF"/>
<mask id="mask13_1872_9764" style="mask-type:alpha" maskUnits="userSpaceOnUse" x="760" y="296" width="48" height="48">
<rect x="760" y="296" width="48" height="48" fill="#D9D9D9"/>
</mask>
<g mask="url(#mask13_1872_9764)">
<path d="M772.8 334L770 331.2L781.2 320L770 308.8L772.8 306L784 317.2L795.2 306L798 308.8L786.8 320L798 331.2L795.2 334L784 322.8L772.8 334Z" fill="white"/>
</g>
<rect x="752" y="368" width="64" height="64" rx="16" fill="#0080FF"/>
<mask id="mask14_1872_9764" style="mask-type:alpha" maskUnits="userSpaceOnUse" x="760" y="376" width="48" height="48">
<rect x="760" y="376" width="48" height="48" fill="#D9D9D9"/>
</mask>
<g mask="url(#mask14_1872_9764)">
<path d="M772.8 414L770 411.2L781.2 400L770 388.8L772.8 386L784 397.2L795.2 386L798 388.8L786.8 400L798 411.2L795.2 414L784 402.8L772.8 414Z" fill="white"/>
</g>
<rect x="752" y="448" width="64" height="64" rx="16" fill="#0080FF"/>
<mask id="mask15_1872_9764" style="mask-type:alpha" maskUnits="userSpaceOnUse" x="760" y="456" width="48" height="48">
<rect x="760" y="456" width="48" height="48" fill="#D9D9D9"/>
</mask>
<g mask="url(#mask15_1872_9764)">
<path d="M772.8 494L770 491.2L781.2 480L770 468.8L772.8 466L784 477.2L795.2 466L798 468.8L786.8 480L798 491.2L795.2 494L784 482.8L772.8 494Z" fill="white"/>
</g>
<rect x="832" y="288" width="64" height="64" rx="16" fill="#CCE5FF"/>
<rect x="832" y="368" width="64" height="64" rx="16" fill="#0080FF"/>
<mask id="mask16_1872_9764" style="mask-type:alpha" maskUnits="userSpaceOnUse" x="840" y="376" width="48" height="48">
<rect x="840" y="376" width="48" height="48" fill="#D9D9D9"/>
</mask>
<g mask="url(#mask16_1872_9764)">
<path d="M852.8 414L850 411.2L861.2 400L850 388.8L852.8 386L864 397.2L875.2 386L878 388.8L866.8 400L878 411.2L875.2 414L864 402.8L852.8 414Z" fill="white"/>
</g>
<rect x="832" y="448" width="64" height="64" rx="16" fill="#0080FF"/>
<mask id="mask17_1872_9764" style="mask-type:alpha" maskUnits="userSpaceOnUse" x="840" y="456" width="48" height="48">
<rect x="840" y="456" width="48" height="48" fill="#D9D9D9"/>
</mask>
<g mask="url(#mask17_1872_9764)">
<path d="M852.8 494L850 491.2L861.2 480L850 468.8L852.8 466L864 477.2L875.2 466L878 468.8L866.8 480L878 491.2L875.2 494L864 482.8L852.8 494Z" fill="white"/>
</g>
<rect x="912" y="288" width="64" height="64" rx="16" fill="#CCE5FF"/>
<rect x="912" y="368" width="64" height="64" rx="16" fill="#0080FF"/>
<mask id="mask18_1872_9764" style="mask-type:alpha" maskUnits="userSpaceOnUse" x="920" y="376" width="48" height="48">
<rect x="920" y="376" width="48" height="48" fill="#D9D9D9"/>
</mask>
<g mask="url(#mask18_1872_9764)">
<path d="M932.8 414L930 411.2L941.2 400L930 388.8L932.8 386L944 397.2L955.2 386L958 388.8L946.8 400L958 411.2L955.2 414L944 402.8L932.8 414Z" fill="white"/>
</g>
<rect x="912" y="448" width="64" height="64" rx="16" fill="#0080FF"/>
<mask id="mask19_1872_9764" style="mask-type:alpha" maskUnits="userSpaceOnUse" x="920" y="456" width="48" height="48">
<rect x="920" y="456" width="48" height="48" fill="#D9D9D9"/>
</mask>
<g mask="url(#mask19_1872_9764)">
<path d="M932.8 494L930 491.2L941.2 480L930 468.8L932.8 466L944 477.2L955.2 466L958 468.8L946.8 480L958 491.2L955.2 494L944 482.8L932.8 494Z" fill="white"/>
</g>
<rect x="992" y="288" width="64" height="64" rx="16" fill="#CCE5FF"/>
<rect x="992" y="368" width="64" height="64" rx="16" fill="#0080FF"/>
<mask id="mask20_1872_9764" style="mask-type:alpha" maskUnits="userSpaceOnUse" x="1000" y="376" width="48" height="48">
<rect x="1000" y="376" width="48" height="48" fill="#D9D9D9"/>
</mask>
<g mask="url(#mask20_1872_9764)">
<path d="M1012.8 414L1010 411.2L1021.2 400L1010 388.8L1012.8 386L1024 397.2L1035.2 386L1038 388.8L1026.8 400L1038 411.2L1035.2 414L1024 402.8L1012.8 414Z" fill="white"/>
</g>
<rect x="992" y="448" width="64" height="64" rx="16" fill="#CCE5FF"/>
</svg>
