<svg width="77" height="32" viewBox="0 0 77 32" fill="none" xmlns="http://www.w3.org/2000/svg">
<path d="M25.7415 32H33.1242L31.4311 29.2256L25.7415 32ZM30.0507 26.9689L22.3758 14.4028L37.2551 5.23483e-07H25.5011C24.5796 -0.000500201 23.6945 0.358234 23.035 0.999518L12.6122 11.1493L13.7858 5.23483e-07H3.17178L-2.78633e-05 30.0911C-0.0257861 30.3324 -0.000303348 30.5763 0.0747633 30.8071C0.14983 31.0378 0.272799 31.2503 0.435674 31.4306C0.598548 31.6108 0.797681 31.755 1.02012 31.8535C1.24256 31.9521 1.48332 32.0029 1.72676 32.0026H10.4124L11.1336 25.2455L14.3338 22.1542L19.964 31.0237C20.1536 31.322 20.4158 31.5678 20.7263 31.738C21.0368 31.9083 21.3855 31.9975 21.7399 31.9974H25.7415L27.7604 27.9865L30.0507 26.9689Z" fill="#2D2A70"/>
<path d="M36.4481 32L50.8233 23.2903L52.6535 30.6862C52.7461 31.0619 52.9624 31.3959 53.268 31.6345C53.5736 31.8732 53.9507 32.0028 54.3389 32.0026H63.6449L59.4882 18.0325L75.3188 8.43922L75.386 7.7952L25.7539 31.9974L36.4481 32ZM58.0019 13.0272L54.1218 6.48814e-09H44.9786C44.0425 -4.73753e-05 43.1248 0.259422 42.3282 0.749392C41.5315 1.23936 40.8874 1.94051 40.4678 2.77443L27.4006 28.6897L75.4817 6.83175L75.5566 6.09757L58.0019 13.0272ZM42.5487 19.1248L45.7541 12.3652L46.5994 10.4975C46.649 10.3893 46.7311 10.2992 46.8344 10.2395C46.9376 10.1798 47.0569 10.1535 47.1757 10.1642C47.2946 10.175 47.4072 10.2222 47.498 10.2994C47.5888 10.3767 47.6532 10.4801 47.6825 10.5954L49.1482 16.5204L42.5487 19.1248Z" fill="#ED6B23"/>
<path d="M69.6738 0C68.4266 0.000264709 67.2236 0.460837 66.2971 1.29285C65.3705 2.12487 64.786 3.26938 64.6563 4.50555L64.01 10.6572L75.5624 6.09757L76.1906 0H69.6738ZM61.7637 32H72.8792L75.3143 8.4418L63.4879 15.6136L61.7637 32Z" fill="#2D2A70"/>
</svg>
