<svg width="43" height="32" viewBox="0 0 43 32" fill="none" xmlns="http://www.w3.org/2000/svg">
<path d="M12.8407 -0.000976562C9.89962 2.51199 7.65621 5.81768 6.44132 9.58526C7.84742 11.3599 9.35974 13.0465 10.9687 14.6354C11.4205 14.2183 11.8794 13.8086 12.3449 13.4064C12.0619 11.631 11.9148 9.81024 11.9148 7.95512C11.9148 5.21643 12.2353 2.55258 12.8407 -0.000976562Z" fill="#FF7300"/>
<path d="M5.42501 16.0801C5.42501 17.2513 5.52025 18.4003 5.7034 19.5197C5.80026 19.6337 5.89785 19.7471 5.99617 19.8598C7.53965 18.0126 9.20102 16.2673 10.9687 14.6354C9.35974 13.0465 7.84742 11.3599 6.44132 9.58526C5.78145 11.6316 5.42502 13.8142 5.42501 16.0801Z" fill="#FF7300"/>
<path d="M5.99617 19.8598C5.89785 19.7471 5.80026 19.6337 5.7034 19.5197C5.73465 19.7107 5.76846 19.9009 5.80479 20.0901C5.86838 20.0132 5.93217 19.9364 5.99617 19.8598Z" fill="#FF7300"/>
<path d="M7.10406 24.3512C6.74676 24.0291 6.39627 23.6996 6.0528 23.3629C4.10613 25.8776 2.37068 28.5641 0.873047 31.3958C3.55255 31.7932 6.2945 31.999 9.08453 31.999C10.2428 31.999 11.3928 31.9635 12.5335 31.8936C10.2073 29.8276 8.34002 27.256 7.10406 24.3512Z" fill="#0080FF"/>
<path d="M7.10406 24.3512C8.34002 27.256 10.2073 29.8276 12.5335 31.8936C14.5724 31.7686 16.5816 31.5335 18.5551 31.1942C14.2848 29.6709 10.4045 27.3265 7.10406 24.3512Z" fill="#0080FF"/>
<path d="M31.8981 31.6441C35.4602 31.6441 38.8957 31.102 42.1266 30.0958C38.3603 29.5634 34.7155 28.6528 31.2319 27.4039C28.4475 28.617 25.5444 29.6083 22.5447 30.3556C25.5184 31.195 28.6558 31.6441 31.8981 31.6441Z" fill="#0080FF"/>
<path d="M12.9962 16.5404C14.2079 21.2504 16.3932 25.5696 19.3248 29.2707C20.3738 29.6834 21.4481 30.046 22.5447 30.3556C25.5444 29.6083 28.4475 28.617 31.2319 27.4039C27.8165 26.1794 24.556 24.6295 21.4878 22.7917C18.4577 20.9768 15.6152 18.8811 12.9962 16.5404Z" fill="#0080FF"/>
<path d="M12.6474 16.2261C10.8321 17.8761 9.12654 19.6449 7.54307 21.5201C10.8642 24.8578 14.8669 27.5168 19.3248 29.2707C16.3932 25.5696 14.2079 21.2504 12.9962 16.5404C12.8795 16.4361 12.7633 16.3313 12.6474 16.2261Z" fill="#0080FF"/>
<path d="M29.9283 14.3512V5.53424C23.5976 7.98609 17.8288 11.5656 12.8682 16.0264C12.9096 16.1983 12.9523 16.3696 12.9962 16.5404C15.6152 18.8811 18.4577 20.9768 21.4878 22.7917L29.9283 14.3512Z" fill="#0080FF"/>
<path d="M12.6474 16.2261C12.7633 16.3313 12.8795 16.4361 12.9962 16.5404C12.9523 16.3696 12.9096 16.1983 12.8682 16.0264C12.7945 16.0928 12.7209 16.1593 12.6474 16.2261Z" fill="#0080FF"/>
</svg>
