 <svg
              width="20"
              height="20"
              viewBox="0 0 20 20"
              fill="none"
              xmlns="http://www.w3.org/2000/svg"
              className="me-3"
            >
              <path
                d="M14 18H15V14H14V18ZM14.5 13C14.6333 13 14.75 12.95 14.85 12.85C14.95 12.75 15 12.6333 15 12.5C15 12.3667 14.95 12.25 14.85 12.15C14.75 12.05 14.6333 12 14.5 12C14.3667 12 14.25 12.05 14.15 12.15C14.05 12.25 14 12.3667 14 12.5C14 12.6333 14.05 12.75 14.15 12.85C14.25 12.95 14.3667 13 14.5 13ZM4.5 12H8.175C8.35833 11.6167 8.57083 11.2583 8.8125 10.925C9.05417 10.5917 9.325 10.2833 9.625 10H4.5V12ZM4.5 16H7.575C7.525 15.6667 7.5 15.3333 7.5 15C7.5 14.6667 7.525 14.3333 7.575 14H4.5V16ZM2.5 20C1.95 20 1.47917 19.8042 1.0875 19.4125C0.695833 19.0208 0.5 18.55 0.5 18V2C0.5 1.45 0.695833 0.979167 1.0875 0.5875C1.47917 0.195833 1.95 0 2.5 0H10.5L16.5 6V8.3C16.1833 8.2 15.8583 8.125 15.525 8.075C15.1917 8.025 14.85 8 14.5 8V7H9.5V2H2.5V18H8.175C8.35833 18.3833 8.57083 18.7417 8.8125 19.075C9.05417 19.4083 9.325 19.7167 9.625 20H2.5ZM14.5 10C15.8833 10 17.0625 10.4875 18.0375 11.4625C19.0125 12.4375 19.5 13.6167 19.5 15C19.5 16.3833 19.0125 17.5625 18.0375 18.5375C17.0625 19.5125 15.8833 20 14.5 20C13.1167 20 11.9375 19.5125 10.9625 18.5375C9.9875 17.5625 9.5 16.3833 9.5 15C9.5 13.6167 9.9875 12.4375 10.9625 11.4625C11.9375 10.4875 13.1167 10 14.5 10Z"
                fill="#717275"
              />
            </svg>