<svg width="19" height="21" viewBox="0 0 19 21" fill="none" xmlns="http://www.w3.org/2000/svg">
<path d="M0.5 20.5623L2 19.0623L3.5 20.5623L5 19.0623L6.5 20.5623L8 19.0623L9.5 20.5623L11 19.0623L12.5 20.5623L14 19.0623L15.5 20.5623L17 19.0623L18.5 20.5623V0.562256L17 2.06226L15.5 0.562256L14 2.06226L12.5 0.562256L11 2.06226L9.5 0.562256L8 2.06226L6.5 0.562256L5 2.06226L3.5 0.562256L2 2.06226L0.5 0.562256V20.5623ZM15.5 7.56226H3.5V5.56226H15.5V7.56226ZM15.5 11.5623H3.5V9.56226H15.5V11.5623ZM15.5 15.5623H3.5V13.5623H15.5V15.5623Z" fill="#717275"/>
</svg>
