<svg width="14" height="13" viewBox="0 0 14 13" fill="none" xmlns="http://www.w3.org/2000/svg">
<path d="M9.51509 6.64877L8.76639 5.90007C8.86639 5.34792 8.70891 4.85156 8.29396 4.41097C7.87899 3.97037 7.3698 3.80007 6.76639 3.90007L6.01769 3.15137C6.16811 3.08385 6.32239 3.03321 6.48051 2.99945C6.63862 2.96569 6.81169 2.9488 6.99972 2.9488C7.75612 2.9488 8.39821 3.21269 8.92599 3.74047C9.45377 4.26825 9.71766 4.91034 9.71766 5.66674C9.71766 5.85477 9.70078 6.02998 9.66701 6.19237C9.63325 6.35476 9.58261 6.50689 9.51509 6.64877ZM11.6356 8.72314L10.8997 8.0334C11.3219 7.71118 11.6969 7.3584 12.0247 6.97507C12.3525 6.59174 12.6331 6.15562 12.8664 5.66674C12.3108 4.54451 11.5136 3.65285 10.4747 2.99174C9.43584 2.33062 8.2775 2.00007 6.99972 2.00007C6.6775 2.00007 6.36084 2.02229 6.04972 2.06674C5.73861 2.11118 5.43306 2.17785 5.13306 2.26674L4.35616 1.48984C4.77752 1.32231 5.20786 1.19881 5.64717 1.11932C6.08649 1.03983 6.53734 1.00009 6.99972 1.00009C8.56211 1.00009 9.97108 1.43085 11.2266 2.29239C12.4822 3.15393 13.398 4.27871 13.9741 5.66674C13.727 6.26246 13.408 6.81844 13.017 7.33467C12.626 7.8509 12.1655 8.31372 11.6356 8.72314ZM12.1741 12.5795L9.47666 9.9026C9.13478 10.0291 8.75594 10.1325 8.34013 10.2129C7.9243 10.2932 7.4775 10.3334 6.99972 10.3334C5.43307 10.3334 4.0241 9.90262 2.77282 9.04109C1.52155 8.17954 0.605735 7.05476 0.0253906 5.66674C0.271546 5.07785 0.589496 4.52849 0.979241 4.01865C1.36899 3.50883 1.79805 3.06674 2.26642 2.69239L0.420257 0.825719L1.12282 0.123169L12.8766 11.877L12.1741 12.5795ZM2.96897 3.39492C2.61684 3.67526 2.27432 4.01224 1.94141 4.40584C1.6085 4.79942 1.33905 5.21972 1.13306 5.66674C1.68861 6.78896 2.48584 7.68062 3.52472 8.34173C4.56361 9.00285 5.72195 9.3334 6.99972 9.3334C7.30315 9.3334 7.60529 9.30776 7.90616 9.25647C8.20701 9.20519 8.46214 9.1522 8.67154 9.0975L7.82794 8.23339C7.71426 8.27953 7.58264 8.31628 7.43306 8.34364C7.28349 8.37099 7.13905 8.38467 6.99972 8.38467C6.24332 8.38467 5.60124 8.12078 5.07346 7.593C4.54568 7.06522 4.28179 6.42314 4.28179 5.66674C4.28179 5.53169 4.29547 5.39045 4.32282 5.24302C4.35018 5.09557 4.38693 4.96074 4.43307 4.83852L2.96897 3.39492Z" fill="#717275"/>
</svg>
