<svg width="16" height="10" viewBox="0 0 16 10" fill="none" xmlns="http://www.w3.org/2000/svg">
<path d="M7.99999 3C8.53042 3 9.03913 3.21071 9.4142 3.58579C9.78928 3.96086 9.99999 4.46957 9.99999 5C9.99999 5.53043 9.78928 6.03914 9.4142 6.41421C9.03913 6.78929 8.53042 7 7.99999 7C7.46956 7 6.96085 6.78929 6.58578 6.41421C6.2107 6.03914 5.99999 5.53043 5.99999 5C5.99999 4.46957 6.2107 3.96086 6.58578 3.58579C6.96085 3.21071 7.46956 3 7.99999 3ZM7.99999 0C11.3333 0 14.18 2.07333 15.3333 5C14.18 7.92667 11.3333 10 7.99999 10C4.66666 10 1.81999 7.92667 0.666656 5C1.81999 2.07333 4.66666 0 7.99999 0ZM2.11999 5C3.21999 7.24 5.49332 8.66667 7.99999 8.66667C10.5067 8.66667 12.78 7.24 13.88 5C12.78 2.76 10.5067 1.33333 7.99999 1.33333C5.49332 1.33333 3.21999 2.76 2.11999 5Z" fill="#717275"/>
</svg>
