<svg width="500" height="373" viewBox="0 0 500 373" fill="none" xmlns="http://www.w3.org/2000/svg">
<g clip-path="url(#clip0_491_30746)">
<path d="M500 327.467H0V327.717H500V327.467Z" fill="#EBEBEB"/>
<path d="M449.9 343.557H416.78V343.807H449.9V343.557Z" fill="#EBEBEB"/>
<path d="M331.22 346.277H322.53V346.527H331.22V346.277Z" fill="#EBEBEB"/>
<path d="M415.78 334.277H396.59V334.527H415.78V334.277Z" fill="#EBEBEB"/>
<path d="M95.65 335.957H52.46V336.207H95.65V335.957Z" fill="#EBEBEB"/>
<path d="M110.89 335.957H104.56V336.207H110.89V335.957Z" fill="#EBEBEB"/>
<path d="M225.15 340.177H131.47V340.427H225.15V340.177Z" fill="#EBEBEB"/>
<path d="M237 282.867H43.91C42.3973 282.864 40.9475 282.262 39.8788 281.191C38.8102 280.12 38.21 278.67 38.21 277.157V5.72689C38.2231 4.22292 38.8292 2.78487 39.8964 1.72511C40.9637 0.665353 42.4059 0.0694709 43.91 0.0668945H237C238.514 0.0668945 239.967 0.668482 241.038 1.73932C242.108 2.81015 242.71 4.26251 242.71 5.77689V277.157C242.71 278.671 242.108 280.124 241.038 281.194C239.967 282.265 238.514 282.867 237 282.867ZM43.91 0.266895C42.4636 0.269544 41.0774 0.84596 40.0556 1.86962C39.0338 2.89328 38.46 4.28054 38.46 5.72689V277.157C38.46 278.603 39.0338 279.991 40.0556 281.014C41.0774 282.038 42.4636 282.614 43.91 282.617H237C238.447 282.614 239.834 282.038 240.858 281.015C241.881 279.991 242.457 278.604 242.46 277.157V5.72689C242.457 4.27962 241.881 2.89239 240.858 1.86901C239.834 0.845635 238.447 0.269539 237 0.266895H43.91Z" fill="#EBEBEB"/>
<path d="M453.31 282.867H260.21C258.696 282.864 257.246 282.262 256.175 281.192C255.105 280.121 254.503 278.67 254.5 277.157V5.72689C254.516 4.22201 255.124 2.78397 256.193 1.72449C257.262 0.665003 258.705 0.0694428 260.21 0.0668945H453.31C454.812 0.072099 456.252 0.669144 457.317 1.72862C458.382 2.7881 458.987 4.22465 459 5.72689V277.157C459 278.668 458.401 280.117 457.335 281.187C456.268 282.258 454.821 282.862 453.31 282.867ZM260.21 0.266895C258.763 0.269539 257.375 0.845635 256.352 1.86901C255.329 2.89239 254.753 4.27962 254.75 5.72689V277.157C254.753 278.604 255.329 279.991 256.352 281.015C257.375 282.038 258.763 282.614 260.21 282.617H453.31C454.757 282.614 456.145 282.038 457.168 281.015C458.191 279.991 458.767 278.604 458.77 277.157V5.72689C458.767 4.27962 458.191 2.89239 457.168 1.86901C456.145 0.845635 454.757 0.269539 453.31 0.266895H260.21Z" fill="#EBEBEB"/>
<path d="M257.38 62.1167H69.1099V243.587H257.38V62.1167Z" fill="#E0E0E0"/>
<path d="M257.38 65.4067H72.1299V240.417H257.38V65.4067Z" fill="#F5F5F5"/>
<path d="M73.4999 198.037V145.397H78.9699V138.447L91.2699 132.687V125.577H93.3199V145.397H95.3699V198.037H98.1099V170.697H104.26V156.337H106.31V198.037H111.1V182.317H114.51V178.217H122.03V163.857H126.14V154.287H130.92V139.927H132.97V154.287H137.76V163.857H141.86V178.217H149.38V182.317H152.8V198.037H156.9V178.217H164.42V134.457H166.47V129.677H182.88V134.457H186.3V165.907H199.97V169.327H204.76V171.377H199.97V183.677H214.33V142.667H217.06V134.457H223.9V103.017H225.95V134.457H230.73V142.667H257.37V240.427H72.1299V198.037H73.4999Z" fill="#E6E6E6"/>
<path d="M243.14 144.807H241.2V146.747H243.14V144.807Z" fill="#F0F0F0"/>
<path d="M243.14 148.057H241.2V149.997H243.14V148.057Z" fill="#F0F0F0"/>
<path d="M243.14 161.047H241.2V162.987H243.14V161.047Z" fill="#F0F0F0"/>
<path d="M243.14 164.287H241.2V166.227H243.14V164.287Z" fill="#F0F0F0"/>
<path d="M243.14 167.537H241.2V169.477H243.14V167.537Z" fill="#F0F0F0"/>
<path d="M243.14 177.277H241.2V179.217H243.14V177.277Z" fill="#F0F0F0"/>
<path d="M243.14 180.527H241.2V182.467H243.14V180.527Z" fill="#F0F0F0"/>
<path d="M240.07 157.797H238.13V159.737H240.07V157.797Z" fill="#F0F0F0"/>
<path d="M240.07 161.047H238.13V162.987H240.07V161.047Z" fill="#F0F0F0"/>
<path d="M240.07 164.287H238.13V166.227H240.07V164.287Z" fill="#F0F0F0"/>
<path d="M240.07 167.537H238.13V169.477H240.07V167.537Z" fill="#F0F0F0"/>
<path d="M240.07 170.787H238.13V172.727H240.07V170.787Z" fill="#F0F0F0"/>
<path d="M240.07 177.277H238.13V179.217H240.07V177.277Z" fill="#F0F0F0"/>
<path d="M240.07 180.527H238.13V182.467H240.07V180.527Z" fill="#F0F0F0"/>
<path d="M236.99 144.807H235.05V146.747H236.99V144.807Z" fill="#F0F0F0"/>
<path d="M236.99 148.057H235.05V149.997H236.99V148.057Z" fill="#F0F0F0"/>
<path d="M236.99 151.297H235.05V153.237H236.99V151.297Z" fill="#F0F0F0"/>
<path d="M236.99 154.547H235.05V156.487H236.99V154.547Z" fill="#F0F0F0"/>
<path d="M236.99 157.797H235.05V159.737H236.99V157.797Z" fill="#F0F0F0"/>
<path d="M236.99 161.047H235.05V162.987H236.99V161.047Z" fill="#F0F0F0"/>
<path d="M236.99 164.287H235.05V166.227H236.99V164.287Z" fill="#F0F0F0"/>
<path d="M236.99 167.537H235.05V169.477H236.99V167.537Z" fill="#F0F0F0"/>
<path d="M236.99 170.787H235.05V172.727H236.99V170.787Z" fill="#F0F0F0"/>
<path d="M236.99 174.037H235.05V175.977H236.99V174.037Z" fill="#F0F0F0"/>
<path d="M236.99 180.527H235.05V182.467H236.99V180.527Z" fill="#F0F0F0"/>
<path d="M233.91 144.807H231.97V146.747H233.91V144.807Z" fill="#F0F0F0"/>
<path d="M233.91 148.057H231.97V149.997H233.91V148.057Z" fill="#F0F0F0"/>
<path d="M233.91 151.297H231.97V153.237H233.91V151.297Z" fill="#F0F0F0"/>
<path d="M233.91 154.547H231.97V156.487H233.91V154.547Z" fill="#F0F0F0"/>
<path d="M233.91 157.797H231.97V159.737H233.91V157.797Z" fill="#F0F0F0"/>
<path d="M233.91 161.047H231.97V162.987H233.91V161.047Z" fill="#F0F0F0"/>
<path d="M233.91 164.287H231.97V166.227H233.91V164.287Z" fill="#F0F0F0"/>
<path d="M233.91 193.517H231.97V195.457H233.91V193.517Z" fill="#F0F0F0"/>
<path d="M230.84 144.807H228.9V146.747H230.84V144.807Z" fill="#F0F0F0"/>
<path d="M230.84 148.057H228.9V149.997H230.84V148.057Z" fill="#F0F0F0"/>
<path d="M230.84 151.297H228.9V153.237H230.84V151.297Z" fill="#F0F0F0"/>
<path d="M230.84 154.547H228.9V156.487H230.84V154.547Z" fill="#F0F0F0"/>
<path d="M230.84 157.797H228.9V159.737H230.84V157.797Z" fill="#F0F0F0"/>
<path d="M230.84 161.047H228.9V162.987H230.84V161.047Z" fill="#F0F0F0"/>
<path d="M230.84 164.287H228.9V166.227H230.84V164.287Z" fill="#F0F0F0"/>
<path d="M230.84 167.537H228.9V169.477H230.84V167.537Z" fill="#F0F0F0"/>
<path d="M230.84 187.017H228.9V188.957H230.84V187.017Z" fill="#F0F0F0"/>
<path d="M230.84 190.267H228.9V192.207H230.84V190.267Z" fill="#F0F0F0"/>
<path d="M230.84 193.517H228.9V195.457H230.84V193.517Z" fill="#F0F0F0"/>
<path d="M230.84 196.767H228.9V198.707H230.84V196.767Z" fill="#F0F0F0"/>
<path d="M230.84 209.757H228.9V211.697H230.84V209.757Z" fill="#F0F0F0"/>
<path d="M227.76 144.807H225.82V146.747H227.76V144.807Z" fill="#F0F0F0"/>
<path d="M227.76 148.057H225.82V149.997H227.76V148.057Z" fill="#F0F0F0"/>
<path d="M227.76 151.297H225.82V153.237H227.76V151.297Z" fill="#F0F0F0"/>
<path d="M227.76 154.547H225.82V156.487H227.76V154.547Z" fill="#F0F0F0"/>
<path d="M227.76 157.797H225.82V159.737H227.76V157.797Z" fill="#F0F0F0"/>
<path d="M227.76 161.047H225.82V162.987H227.76V161.047Z" fill="#F0F0F0"/>
<path d="M227.76 164.287H225.82V166.227H227.76V164.287Z" fill="#F0F0F0"/>
<path d="M227.76 167.537H225.82V169.477H227.76V167.537Z" fill="#F0F0F0"/>
<path d="M227.76 170.787H225.82V172.727H227.76V170.787Z" fill="#F0F0F0"/>
<path d="M227.76 174.037H225.82V175.977H227.76V174.037Z" fill="#F0F0F0"/>
<path d="M227.76 183.777H225.82V185.717H227.76V183.777Z" fill="#F0F0F0"/>
<path d="M227.76 187.017H225.82V188.957H227.76V187.017Z" fill="#F0F0F0"/>
<path d="M227.76 190.267H225.82V192.207H227.76V190.267Z" fill="#F0F0F0"/>
<path d="M227.76 193.517H225.82V195.457H227.76V193.517Z" fill="#F0F0F0"/>
<path d="M227.76 196.767H225.82V198.707H227.76V196.767Z" fill="#F0F0F0"/>
<path d="M227.76 209.757H225.82V211.697H227.76V209.757Z" fill="#F0F0F0"/>
<path d="M224.68 144.807H222.74V146.747H224.68V144.807Z" fill="#F0F0F0"/>
<path d="M224.68 148.057H222.74V149.997H224.68V148.057Z" fill="#F0F0F0"/>
<path d="M224.68 151.297H222.74V153.237H224.68V151.297Z" fill="#F0F0F0"/>
<path d="M224.68 154.547H222.74V156.487H224.68V154.547Z" fill="#F0F0F0"/>
<path d="M224.68 157.797H222.74V159.737H224.68V157.797Z" fill="#F0F0F0"/>
<path d="M224.68 161.047H222.74V162.987H224.68V161.047Z" fill="#F0F0F0"/>
<path d="M224.68 164.287H222.74V166.227H224.68V164.287Z" fill="#F0F0F0"/>
<path d="M224.68 167.537H222.74V169.477H224.68V167.537Z" fill="#F0F0F0"/>
<path d="M224.68 170.787H222.74V172.727H224.68V170.787Z" fill="#F0F0F0"/>
<path d="M224.68 174.037H222.74V175.977H224.68V174.037Z" fill="#F0F0F0"/>
<path d="M224.68 177.277H222.74V179.217H224.68V177.277Z" fill="#F0F0F0"/>
<path d="M224.68 180.527H222.74V182.467H224.68V180.527Z" fill="#F0F0F0"/>
<path d="M224.68 183.777H222.74V185.717H224.68V183.777Z" fill="#F0F0F0"/>
<path d="M224.68 187.017H222.74V188.957H224.68V187.017Z" fill="#F0F0F0"/>
<path d="M224.68 190.267H222.74V192.207H224.68V190.267Z" fill="#F0F0F0"/>
<path d="M224.68 193.517H222.74V195.457H224.68V193.517Z" fill="#F0F0F0"/>
<path d="M224.68 196.767H222.74V198.707H224.68V196.767Z" fill="#F0F0F0"/>
<path d="M224.68 200.007H222.74V201.947H224.68V200.007Z" fill="#F0F0F0"/>
<path d="M221.61 144.807H219.67V146.747H221.61V144.807Z" fill="#F0F0F0"/>
<path d="M221.61 148.057H219.67V149.997H221.61V148.057Z" fill="#F0F0F0"/>
<path d="M221.61 151.297H219.67V153.237H221.61V151.297Z" fill="#F0F0F0"/>
<path d="M221.61 154.547H219.67V156.487H221.61V154.547Z" fill="#F0F0F0"/>
<path d="M221.61 157.797H219.67V159.737H221.61V157.797Z" fill="#F0F0F0"/>
<path d="M221.61 161.047H219.67V162.987H221.61V161.047Z" fill="#F0F0F0"/>
<path d="M221.61 164.287H219.67V166.227H221.61V164.287Z" fill="#F0F0F0"/>
<path d="M221.61 167.537H219.67V169.477H221.61V167.537Z" fill="#F0F0F0"/>
<path d="M221.61 170.787H219.67V172.727H221.61V170.787Z" fill="#F0F0F0"/>
<path d="M221.61 174.037H219.67V175.977H221.61V174.037Z" fill="#F0F0F0"/>
<path d="M221.61 183.777H219.67V185.717H221.61V183.777Z" fill="#F0F0F0"/>
<path d="M221.61 187.017H219.67V188.957H221.61V187.017Z" fill="#F0F0F0"/>
<path d="M221.61 190.267H219.67V192.207H221.61V190.267Z" fill="#F0F0F0"/>
<path d="M221.61 193.517H219.67V195.457H221.61V193.517Z" fill="#F0F0F0"/>
<path d="M218.53 144.807H216.59V146.747H218.53V144.807Z" fill="#F0F0F0"/>
<path d="M218.53 148.057H216.59V149.997H218.53V148.057Z" fill="#F0F0F0"/>
<path d="M218.53 151.297H216.59V153.237H218.53V151.297Z" fill="#F0F0F0"/>
<path d="M218.53 154.547H216.59V156.487H218.53V154.547Z" fill="#F0F0F0"/>
<path d="M218.53 157.797H216.59V159.737H218.53V157.797Z" fill="#F0F0F0"/>
<path d="M218.53 161.047H216.59V162.987H218.53V161.047Z" fill="#F0F0F0"/>
<path d="M218.53 164.287H216.59V166.227H218.53V164.287Z" fill="#F0F0F0"/>
<path d="M218.53 167.537H216.59V169.477H218.53V167.537Z" fill="#F0F0F0"/>
<path d="M218.53 170.787H216.59V172.727H218.53V170.787Z" fill="#F0F0F0"/>
<path d="M218.53 174.037H216.59V175.977H218.53V174.037Z" fill="#F0F0F0"/>
<path d="M218.53 183.777H216.59V185.717H218.53V183.777Z" fill="#F0F0F0"/>
<path d="M218.53 187.017H216.59V188.957H218.53V187.017Z" fill="#F0F0F0"/>
<path d="M218.53 190.267H216.59V192.207H218.53V190.267Z" fill="#F0F0F0"/>
<path d="M183.89 136.377H181.95V138.317H183.89V136.377Z" fill="#F0F0F0"/>
<path d="M183.89 139.627H181.95V141.567H183.89V139.627Z" fill="#F0F0F0"/>
<path d="M183.89 142.867H181.95V144.807H183.89V142.867Z" fill="#F0F0F0"/>
<path d="M183.89 146.117H181.95V148.057H183.89V146.117Z" fill="#F0F0F0"/>
<path d="M183.89 149.367H181.95V151.307H183.89V149.367Z" fill="#F0F0F0"/>
<path d="M183.89 152.607H181.95V154.547H183.89V152.607Z" fill="#F0F0F0"/>
<path d="M183.89 155.857H181.95V157.797H183.89V155.857Z" fill="#F0F0F0"/>
<path d="M183.89 159.107H181.95V161.047H183.89V159.107Z" fill="#F0F0F0"/>
<path d="M183.89 168.847H181.95V170.787H183.89V168.847Z" fill="#F0F0F0"/>
<path d="M183.89 172.097H181.95V174.037H183.89V172.097Z" fill="#F0F0F0"/>
<path d="M180.82 136.377H178.88V138.317H180.82V136.377Z" fill="#F0F0F0"/>
<path d="M180.82 139.627H178.88V141.567H180.82V139.627Z" fill="#F0F0F0"/>
<path d="M180.82 142.867H178.88V144.807H180.82V142.867Z" fill="#F0F0F0"/>
<path d="M180.82 146.117H178.88V148.057H180.82V146.117Z" fill="#F0F0F0"/>
<path d="M180.82 149.367H178.88V151.307H180.82V149.367Z" fill="#F0F0F0"/>
<path d="M180.82 152.607H178.88V154.547H180.82V152.607Z" fill="#F0F0F0"/>
<path d="M180.82 155.857H178.88V157.797H180.82V155.857Z" fill="#F0F0F0"/>
<path d="M180.82 159.107H178.88V161.047H180.82V159.107Z" fill="#F0F0F0"/>
<path d="M180.82 172.097H178.88V174.037H180.82V172.097Z" fill="#F0F0F0"/>
<path d="M177.74 136.377H175.8V138.317H177.74V136.377Z" fill="#F0F0F0"/>
<path d="M177.74 139.627H175.8V141.567H177.74V139.627Z" fill="#F0F0F0"/>
<path d="M177.74 142.867H175.8V144.807H177.74V142.867Z" fill="#F0F0F0"/>
<path d="M177.74 146.117H175.8V148.057H177.74V146.117Z" fill="#F0F0F0"/>
<path d="M177.74 149.367H175.8V151.307H177.74V149.367Z" fill="#F0F0F0"/>
<path d="M177.74 152.607H175.8V154.547H177.74V152.607Z" fill="#F0F0F0"/>
<path d="M177.74 155.857H175.8V157.797H177.74V155.857Z" fill="#F0F0F0"/>
<path d="M177.74 159.107H175.8V161.047H177.74V159.107Z" fill="#F0F0F0"/>
<path d="M174.66 136.377H172.72V138.317H174.66V136.377Z" fill="#F0F0F0"/>
<path d="M174.66 139.627H172.72V141.567H174.66V139.627Z" fill="#F0F0F0"/>
<path d="M174.66 142.867H172.72V144.807H174.66V142.867Z" fill="#F0F0F0"/>
<path d="M174.66 146.117H172.72V148.057H174.66V146.117Z" fill="#F0F0F0"/>
<path d="M174.66 149.367H172.72V151.307H174.66V149.367Z" fill="#F0F0F0"/>
<path d="M174.66 152.607H172.72V154.547H174.66V152.607Z" fill="#F0F0F0"/>
<path d="M174.66 159.107H172.72V161.047H174.66V159.107Z" fill="#F0F0F0"/>
<path d="M174.66 162.357H172.72V164.297H174.66V162.357Z" fill="#F0F0F0"/>
<path d="M174.66 172.097H172.72V174.037H174.66V172.097Z" fill="#F0F0F0"/>
<path d="M174.66 175.347H172.72V177.287H174.66V175.347Z" fill="#F0F0F0"/>
<path d="M174.66 178.587H172.72V180.527H174.66V178.587Z" fill="#F0F0F0"/>
<path d="M174.66 181.837H172.72V183.777H174.66V181.837Z" fill="#F0F0F0"/>
<path d="M174.66 185.087H172.72V187.027H174.66V185.087Z" fill="#F0F0F0"/>
<path d="M174.66 188.327H172.72V190.267H174.66V188.327Z" fill="#F0F0F0"/>
<path d="M174.66 191.577H172.72V193.517H174.66V191.577Z" fill="#F0F0F0"/>
<path d="M171.59 136.377H169.65V138.317H171.59V136.377Z" fill="#F0F0F0"/>
<path d="M171.59 139.627H169.65V141.567H171.59V139.627Z" fill="#F0F0F0"/>
<path d="M171.59 142.867H169.65V144.807H171.59V142.867Z" fill="#F0F0F0"/>
<path d="M171.59 146.117H169.65V148.057H171.59V146.117Z" fill="#F0F0F0"/>
<path d="M171.59 149.367H169.65V151.307H171.59V149.367Z" fill="#F0F0F0"/>
<path d="M171.59 152.607H169.65V154.547H171.59V152.607Z" fill="#F0F0F0"/>
<path d="M171.59 162.357H169.65V164.297H171.59V162.357Z" fill="#F0F0F0"/>
<path d="M171.59 165.597H169.65V167.537H171.59V165.597Z" fill="#F0F0F0"/>
<path d="M171.59 168.847H169.65V170.787H171.59V168.847Z" fill="#F0F0F0"/>
<path d="M171.59 172.097H169.65V174.037H171.59V172.097Z" fill="#F0F0F0"/>
<path d="M171.59 175.347H169.65V177.287H171.59V175.347Z" fill="#F0F0F0"/>
<path d="M171.59 178.587H169.65V180.527H171.59V178.587Z" fill="#F0F0F0"/>
<path d="M171.59 181.837H169.65V183.777H171.59V181.837Z" fill="#F0F0F0"/>
<path d="M171.59 185.087H169.65V187.027H171.59V185.087Z" fill="#F0F0F0"/>
<path d="M171.59 188.327H169.65V190.267H171.59V188.327Z" fill="#F0F0F0"/>
<path d="M171.59 191.577H169.65V193.517H171.59V191.577Z" fill="#F0F0F0"/>
<path d="M171.59 194.827H169.65V196.767H171.59V194.827Z" fill="#F0F0F0"/>
<path d="M171.59 201.317H169.65V203.257H171.59V201.317Z" fill="#F0F0F0"/>
<path d="M168.51 136.377H166.57V138.317H168.51V136.377Z" fill="#F0F0F0"/>
<path d="M168.51 139.627H166.57V141.567H168.51V139.627Z" fill="#F0F0F0"/>
<path d="M168.51 142.867H166.57V144.807H168.51V142.867Z" fill="#F0F0F0"/>
<path d="M168.51 146.117H166.57V148.057H168.51V146.117Z" fill="#F0F0F0"/>
<path d="M168.51 149.367H166.57V151.307H168.51V149.367Z" fill="#F0F0F0"/>
<path d="M168.51 152.607H166.57V154.547H168.51V152.607Z" fill="#F0F0F0"/>
<path d="M168.51 162.357H166.57V164.297H168.51V162.357Z" fill="#F0F0F0"/>
<path d="M168.51 165.597H166.57V167.537H168.51V165.597Z" fill="#F0F0F0"/>
<path d="M168.51 168.847H166.57V170.787H168.51V168.847Z" fill="#F0F0F0"/>
<path d="M168.51 172.097H166.57V174.037H168.51V172.097Z" fill="#F0F0F0"/>
<path d="M168.51 181.837H166.57V183.777H168.51V181.837Z" fill="#F0F0F0"/>
<path d="M168.51 185.087H166.57V187.027H168.51V185.087Z" fill="#F0F0F0"/>
<path d="M168.51 188.327H166.57V190.267H168.51V188.327Z" fill="#F0F0F0"/>
<path d="M168.51 191.577H166.57V193.517H168.51V191.577Z" fill="#F0F0F0"/>
<path d="M168.51 194.827H166.57V196.767H168.51V194.827Z" fill="#F0F0F0"/>
<path d="M168.51 201.317H166.57V203.257H168.51V201.317Z" fill="#F0F0F0"/>
<path d="M168.51 204.567H166.57V206.507H168.51V204.567Z" fill="#F0F0F0"/>
<path d="M140.59 166.567H138.65V168.507H140.59V166.567Z" fill="#F0F0F0"/>
<path d="M140.59 169.817H138.65V171.757H140.59V169.817Z" fill="#F0F0F0"/>
<path d="M140.59 173.067H138.65V175.007H140.59V173.067Z" fill="#F0F0F0"/>
<path d="M140.59 176.307H138.65V178.247H140.59V176.307Z" fill="#F0F0F0"/>
<path d="M140.59 179.557H138.65V181.497H140.59V179.557Z" fill="#F0F0F0"/>
<path d="M140.59 182.807H138.65V184.747H140.59V182.807Z" fill="#F0F0F0"/>
<path d="M140.59 186.057H138.65V187.997H140.59V186.057Z" fill="#F0F0F0"/>
<path d="M140.59 195.797H138.65V197.737H140.59V195.797Z" fill="#F0F0F0"/>
<path d="M140.59 199.047H138.65V200.987H140.59V199.047Z" fill="#F0F0F0"/>
<path d="M140.59 202.287H138.65V204.227H140.59V202.287Z" fill="#F0F0F0"/>
<path d="M137.52 166.567H135.58V168.507H137.52V166.567Z" fill="#F0F0F0"/>
<path d="M137.52 169.817H135.58V171.757H137.52V169.817Z" fill="#F0F0F0"/>
<path d="M137.52 173.067H135.58V175.007H137.52V173.067Z" fill="#F0F0F0"/>
<path d="M137.52 176.307H135.58V178.247H137.52V176.307Z" fill="#F0F0F0"/>
<path d="M137.52 179.557H135.58V181.497H137.52V179.557Z" fill="#F0F0F0"/>
<path d="M137.52 182.807H135.58V184.747H137.52V182.807Z" fill="#F0F0F0"/>
<path d="M137.52 186.057H135.58V187.997H137.52V186.057Z" fill="#F0F0F0"/>
<path d="M134.44 166.567H132.5V168.507H134.44V166.567Z" fill="#F0F0F0"/>
<path d="M134.44 169.817H132.5V171.757H134.44V169.817Z" fill="#F0F0F0"/>
<path d="M134.44 173.067H132.5V175.007H134.44V173.067Z" fill="#F0F0F0"/>
<path d="M134.44 176.307H132.5V178.247H134.44V176.307Z" fill="#F0F0F0"/>
<path d="M134.44 179.557H132.5V181.497H134.44V179.557Z" fill="#F0F0F0"/>
<path d="M134.44 182.807H132.5V184.747H134.44V182.807Z" fill="#F0F0F0"/>
<path d="M134.44 186.057H132.5V187.997H134.44V186.057Z" fill="#F0F0F0"/>
<path d="M131.37 166.567H129.43V168.507H131.37V166.567Z" fill="#F0F0F0"/>
<path d="M131.37 169.817H129.43V171.757H131.37V169.817Z" fill="#F0F0F0"/>
<path d="M131.37 173.067H129.43V175.007H131.37V173.067Z" fill="#F0F0F0"/>
<path d="M131.37 176.307H129.43V178.247H131.37V176.307Z" fill="#F0F0F0"/>
<path d="M131.37 179.557H129.43V181.497H131.37V179.557Z" fill="#F0F0F0"/>
<path d="M131.37 182.807H129.43V184.747H131.37V182.807Z" fill="#F0F0F0"/>
<path d="M131.37 186.057H129.43V187.997H131.37V186.057Z" fill="#F0F0F0"/>
<path d="M131.37 189.297H129.43V191.237H131.37V189.297Z" fill="#F0F0F0"/>
<path d="M131.37 192.547H129.43V194.487H131.37V192.547Z" fill="#F0F0F0"/>
<path d="M131.37 195.797H129.43V197.737H131.37V195.797Z" fill="#F0F0F0"/>
<path d="M131.37 199.047H129.43V200.987H131.37V199.047Z" fill="#F0F0F0"/>
<path d="M128.29 166.567H126.35V168.507H128.29V166.567Z" fill="#F0F0F0"/>
<path d="M128.29 169.817H126.35V171.757H128.29V169.817Z" fill="#F0F0F0"/>
<path d="M128.29 173.067H126.35V175.007H128.29V173.067Z" fill="#F0F0F0"/>
<path d="M128.29 176.307H126.35V178.247H128.29V176.307Z" fill="#F0F0F0"/>
<path d="M128.29 179.557H126.35V181.497H128.29V179.557Z" fill="#F0F0F0"/>
<path d="M128.29 182.807H126.35V184.747H128.29V182.807Z" fill="#F0F0F0"/>
<path d="M128.29 186.057H126.35V187.997H128.29V186.057Z" fill="#F0F0F0"/>
<path d="M128.29 189.297H126.35V191.237H128.29V189.297Z" fill="#F0F0F0"/>
<path d="M128.29 192.547H126.35V194.487H128.29V192.547Z" fill="#F0F0F0"/>
<path d="M128.29 195.797H126.35V197.737H128.29V195.797Z" fill="#F0F0F0"/>
<path d="M128.29 199.047H126.35V200.987H128.29V199.047Z" fill="#F0F0F0"/>
<path d="M128.29 202.287H126.35V204.227H128.29V202.287Z" fill="#F0F0F0"/>
<path d="M128.29 212.027H126.35V213.967H128.29V212.027Z" fill="#F0F0F0"/>
<path d="M128.29 215.277H126.35V217.217H128.29V215.277Z" fill="#F0F0F0"/>
<path d="M125.21 166.567H123.27V168.507H125.21V166.567Z" fill="#F0F0F0"/>
<path d="M125.21 169.817H123.27V171.757H125.21V169.817Z" fill="#F0F0F0"/>
<path d="M125.21 173.067H123.27V175.007H125.21V173.067Z" fill="#F0F0F0"/>
<path d="M125.21 182.807H123.27V184.747H125.21V182.807Z" fill="#F0F0F0"/>
<path d="M125.21 186.057H123.27V187.997H125.21V186.057Z" fill="#F0F0F0"/>
<path d="M125.21 189.297H123.27V191.237H125.21V189.297Z" fill="#F0F0F0"/>
<path d="M125.21 192.547H123.27V194.487H125.21V192.547Z" fill="#F0F0F0"/>
<path d="M125.21 195.797H123.27V197.737H125.21V195.797Z" fill="#F0F0F0"/>
<path d="M125.21 199.047H123.27V200.987H125.21V199.047Z" fill="#F0F0F0"/>
<path d="M125.21 202.287H123.27V204.227H125.21V202.287Z" fill="#F0F0F0"/>
<path d="M125.21 212.027H123.27V213.967H125.21V212.027Z" fill="#F0F0F0"/>
<path d="M125.21 215.277H123.27V217.217H125.21V215.277Z" fill="#F0F0F0"/>
<path d="M125.21 218.527H123.27V220.467H125.21V218.527Z" fill="#F0F0F0"/>
<path d="M92.9698 147.087H91.0298V149.027H92.9698V147.087Z" fill="#F0F0F0"/>
<path d="M92.9698 150.337H91.0298V152.277H92.9698V150.337Z" fill="#F0F0F0"/>
<path d="M92.9698 153.577H91.0298V155.517H92.9698V153.577Z" fill="#F0F0F0"/>
<path d="M92.9698 156.827H91.0298V158.767H92.9698V156.827Z" fill="#F0F0F0"/>
<path d="M92.9698 160.077H91.0298V162.017H92.9698V160.077Z" fill="#F0F0F0"/>
<path d="M92.9698 163.327H91.0298V165.267H92.9698V163.327Z" fill="#F0F0F0"/>
<path d="M92.9698 166.567H91.0298V168.507H92.9698V166.567Z" fill="#F0F0F0"/>
<path d="M92.9698 169.817H91.0298V171.757H92.9698V169.817Z" fill="#F0F0F0"/>
<path d="M92.9698 173.067H91.0298V175.007H92.9698V173.067Z" fill="#F0F0F0"/>
<path d="M92.9698 176.307H91.0298V178.247H92.9698V176.307Z" fill="#F0F0F0"/>
<path d="M92.9698 179.557H91.0298V181.497H92.9698V179.557Z" fill="#F0F0F0"/>
<path d="M92.9698 182.807H91.0298V184.747H92.9698V182.807Z" fill="#F0F0F0"/>
<path d="M92.9698 186.057H91.0298V187.997H92.9698V186.057Z" fill="#F0F0F0"/>
<path d="M92.9698 189.297H91.0298V191.237H92.9698V189.297Z" fill="#F0F0F0"/>
<path d="M92.9698 192.547H91.0298V194.487H92.9698V192.547Z" fill="#F0F0F0"/>
<path d="M92.9698 195.797H91.0298V197.737H92.9698V195.797Z" fill="#F0F0F0"/>
<path d="M92.9698 199.047H91.0298V200.987H92.9698V199.047Z" fill="#F0F0F0"/>
<path d="M92.9698 202.287H91.0298V204.227H92.9698V202.287Z" fill="#F0F0F0"/>
<path d="M92.9698 205.537H91.0298V207.477H92.9698V205.537Z" fill="#F0F0F0"/>
<path d="M92.9698 208.787H91.0298V210.727H92.9698V208.787Z" fill="#F0F0F0"/>
<path d="M92.9698 212.027H91.0298V213.967H92.9698V212.027Z" fill="#F0F0F0"/>
<path d="M92.9698 215.277H91.0298V217.217H92.9698V215.277Z" fill="#F0F0F0"/>
<path d="M92.9698 218.527H91.0298V220.467H92.9698V218.527Z" fill="#F0F0F0"/>
<path d="M89.8902 147.087H87.9502V149.027H89.8902V147.087Z" fill="#F0F0F0"/>
<path d="M89.8902 150.337H87.9502V152.277H89.8902V150.337Z" fill="#F0F0F0"/>
<path d="M89.8902 153.577H87.9502V155.517H89.8902V153.577Z" fill="#F0F0F0"/>
<path d="M89.8902 156.827H87.9502V158.767H89.8902V156.827Z" fill="#F0F0F0"/>
<path d="M89.8902 160.077H87.9502V162.017H89.8902V160.077Z" fill="#F0F0F0"/>
<path d="M89.8902 163.327H87.9502V165.267H89.8902V163.327Z" fill="#F0F0F0"/>
<path d="M89.8902 166.567H87.9502V168.507H89.8902V166.567Z" fill="#F0F0F0"/>
<path d="M89.8902 169.817H87.9502V171.757H89.8902V169.817Z" fill="#F0F0F0"/>
<path d="M89.8902 173.067H87.9502V175.007H89.8902V173.067Z" fill="#F0F0F0"/>
<path d="M89.8902 176.307H87.9502V178.247H89.8902V176.307Z" fill="#F0F0F0"/>
<path d="M89.8902 179.557H87.9502V181.497H89.8902V179.557Z" fill="#F0F0F0"/>
<path d="M89.8902 182.807H87.9502V184.747H89.8902V182.807Z" fill="#F0F0F0"/>
<path d="M89.8902 186.057H87.9502V187.997H89.8902V186.057Z" fill="#F0F0F0"/>
<path d="M89.8902 189.297H87.9502V191.237H89.8902V189.297Z" fill="#F0F0F0"/>
<path d="M89.8902 192.547H87.9502V194.487H89.8902V192.547Z" fill="#F0F0F0"/>
<path d="M89.8902 195.797H87.9502V197.737H89.8902V195.797Z" fill="#F0F0F0"/>
<path d="M89.8902 199.047H87.9502V200.987H89.8902V199.047Z" fill="#F0F0F0"/>
<path d="M89.8902 202.287H87.9502V204.227H89.8902V202.287Z" fill="#F0F0F0"/>
<path d="M89.8902 205.537H87.9502V207.477H89.8902V205.537Z" fill="#F0F0F0"/>
<path d="M86.8101 147.087H84.8701V149.027H86.8101V147.087Z" fill="#F0F0F0"/>
<path d="M86.8101 150.337H84.8701V152.277H86.8101V150.337Z" fill="#F0F0F0"/>
<path d="M86.8101 153.577H84.8701V155.517H86.8101V153.577Z" fill="#F0F0F0"/>
<path d="M86.8101 156.827H84.8701V158.767H86.8101V156.827Z" fill="#F0F0F0"/>
<path d="M86.8101 160.077H84.8701V162.017H86.8101V160.077Z" fill="#F0F0F0"/>
<path d="M86.8101 163.327H84.8701V165.267H86.8101V163.327Z" fill="#F0F0F0"/>
<path d="M86.8101 166.567H84.8701V168.507H86.8101V166.567Z" fill="#F0F0F0"/>
<path d="M86.8101 169.817H84.8701V171.757H86.8101V169.817Z" fill="#F0F0F0"/>
<path d="M86.8101 173.067H84.8701V175.007H86.8101V173.067Z" fill="#F0F0F0"/>
<path d="M86.8101 176.307H84.8701V178.247H86.8101V176.307Z" fill="#F0F0F0"/>
<path d="M86.8101 179.557H84.8701V181.497H86.8101V179.557Z" fill="#F0F0F0"/>
<path d="M86.8101 182.807H84.8701V184.747H86.8101V182.807Z" fill="#F0F0F0"/>
<path d="M86.8101 186.057H84.8701V187.997H86.8101V186.057Z" fill="#F0F0F0"/>
<path d="M86.8101 189.297H84.8701V191.237H86.8101V189.297Z" fill="#F0F0F0"/>
<path d="M86.8101 192.547H84.8701V194.487H86.8101V192.547Z" fill="#F0F0F0"/>
<path d="M86.8101 195.797H84.8701V197.737H86.8101V195.797Z" fill="#F0F0F0"/>
<path d="M86.8101 199.047H84.8701V200.987H86.8101V199.047Z" fill="#F0F0F0"/>
<path d="M86.8101 202.287H84.8701V204.227H86.8101V202.287Z" fill="#F0F0F0"/>
<path d="M86.8101 205.537H84.8701V207.477H86.8101V205.537Z" fill="#F0F0F0"/>
<path d="M83.7398 147.087H81.7998V149.027H83.7398V147.087Z" fill="#F0F0F0"/>
<path d="M83.7398 150.337H81.7998V152.277H83.7398V150.337Z" fill="#F0F0F0"/>
<path d="M83.7398 153.577H81.7998V155.517H83.7398V153.577Z" fill="#F0F0F0"/>
<path d="M83.7398 156.827H81.7998V158.767H83.7398V156.827Z" fill="#F0F0F0"/>
<path d="M83.7398 160.077H81.7998V162.017H83.7398V160.077Z" fill="#F0F0F0"/>
<path d="M83.7398 163.327H81.7998V165.267H83.7398V163.327Z" fill="#F0F0F0"/>
<path d="M83.7398 166.567H81.7998V168.507H83.7398V166.567Z" fill="#F0F0F0"/>
<path d="M83.7398 169.817H81.7998V171.757H83.7398V169.817Z" fill="#F0F0F0"/>
<path d="M83.7398 173.067H81.7998V175.007H83.7398V173.067Z" fill="#F0F0F0"/>
<path d="M83.7398 176.307H81.7998V178.247H83.7398V176.307Z" fill="#F0F0F0"/>
<path d="M83.7398 179.557H81.7998V181.497H83.7398V179.557Z" fill="#F0F0F0"/>
<path d="M83.7398 182.807H81.7998V184.747H83.7398V182.807Z" fill="#F0F0F0"/>
<path d="M83.7398 186.057H81.7998V187.997H83.7398V186.057Z" fill="#F0F0F0"/>
<path d="M83.7398 189.297H81.7998V191.237H83.7398V189.297Z" fill="#F0F0F0"/>
<path d="M83.7398 192.547H81.7998V194.487H83.7398V192.547Z" fill="#F0F0F0"/>
<path d="M80.6602 147.087H78.7202V149.027H80.6602V147.087Z" fill="#F0F0F0"/>
<path d="M80.6602 150.337H78.7202V152.277H80.6602V150.337Z" fill="#F0F0F0"/>
<path d="M80.6602 153.577H78.7202V155.517H80.6602V153.577Z" fill="#F0F0F0"/>
<path d="M80.6602 156.827H78.7202V158.767H80.6602V156.827Z" fill="#F0F0F0"/>
<path d="M80.6602 160.077H78.7202V162.017H80.6602V160.077Z" fill="#F0F0F0"/>
<path d="M80.6602 163.327H78.7202V165.267H80.6602V163.327Z" fill="#F0F0F0"/>
<path d="M80.6602 166.567H78.7202V168.507H80.6602V166.567Z" fill="#F0F0F0"/>
<path d="M80.6602 169.817H78.7202V171.757H80.6602V169.817Z" fill="#F0F0F0"/>
<path d="M80.6602 173.067H78.7202V175.007H80.6602V173.067Z" fill="#F0F0F0"/>
<path d="M80.6602 176.307H78.7202V178.247H80.6602V176.307Z" fill="#F0F0F0"/>
<path d="M80.6602 179.557H78.7202V181.497H80.6602V179.557Z" fill="#F0F0F0"/>
<path d="M80.6602 182.807H78.7202V184.747H80.6602V182.807Z" fill="#F0F0F0"/>
<path d="M80.6602 186.057H78.7202V187.997H80.6602V186.057Z" fill="#F0F0F0"/>
<path d="M77.5899 147.087H75.6499V149.027H77.5899V147.087Z" fill="#F0F0F0"/>
<path d="M77.5899 150.337H75.6499V152.277H77.5899V150.337Z" fill="#F0F0F0"/>
<path d="M77.5899 153.577H75.6499V155.517H77.5899V153.577Z" fill="#F0F0F0"/>
<path d="M77.5899 156.827H75.6499V158.767H77.5899V156.827Z" fill="#F0F0F0"/>
<path d="M77.5899 160.077H75.6499V162.017H77.5899V160.077Z" fill="#F0F0F0"/>
<path d="M77.5899 163.327H75.6499V165.267H77.5899V163.327Z" fill="#F0F0F0"/>
<path d="M77.5899 166.567H75.6499V168.507H77.5899V166.567Z" fill="#F0F0F0"/>
<path d="M77.5899 169.817H75.6499V171.757H77.5899V169.817Z" fill="#F0F0F0"/>
<path d="M77.5899 173.067H75.6499V175.007H77.5899V173.067Z" fill="#F0F0F0"/>
<path d="M77.5899 176.307H75.6499V178.247H77.5899V176.307Z" fill="#F0F0F0"/>
<path d="M77.5899 179.557H75.6499V181.497H77.5899V179.557Z" fill="#F0F0F0"/>
<path d="M77.5899 182.807H75.6499V184.747H77.5899V182.807Z" fill="#F0F0F0"/>
<path d="M257.16 146.117H255.22V148.057H257.16V146.117Z" fill="#F0F0F0"/>
<path d="M257.16 149.367H255.22V151.307H257.16V149.367Z" fill="#F0F0F0"/>
<path d="M257.16 152.607H255.22V154.547H257.16V152.607Z" fill="#F0F0F0"/>
<path d="M257.16 155.857H255.22V157.797H257.16V155.857Z" fill="#F0F0F0"/>
<path d="M257.16 159.107H255.22V161.047H257.16V159.107Z" fill="#F0F0F0"/>
<path d="M257.16 162.357H255.22V164.297H257.16V162.357Z" fill="#F0F0F0"/>
<path d="M257.16 165.597H255.22V167.537H257.16V165.597Z" fill="#F0F0F0"/>
<path d="M257.16 168.847H255.22V170.787H257.16V168.847Z" fill="#F0F0F0"/>
<path d="M257.16 172.097H255.22V174.037H257.16V172.097Z" fill="#F0F0F0"/>
<path d="M257.16 175.347H255.22V177.287H257.16V175.347Z" fill="#F0F0F0"/>
<path d="M257.16 178.587H255.22V180.527H257.16V178.587Z" fill="#F0F0F0"/>
<path d="M257.16 181.837H255.22V183.777H257.16V181.837Z" fill="#F0F0F0"/>
<path d="M257.16 185.087H255.22V187.027H257.16V185.087Z" fill="#F0F0F0"/>
<path d="M257.16 188.327H255.22V190.267H257.16V188.327Z" fill="#F0F0F0"/>
<path d="M257.16 191.577H255.22V193.517H257.16V191.577Z" fill="#F0F0F0"/>
<path d="M257.16 194.827H255.22V196.767H257.16V194.827Z" fill="#F0F0F0"/>
<path d="M257.16 198.077H255.22V200.017H257.16V198.077Z" fill="#F0F0F0"/>
<path d="M257.16 204.567H255.22V206.507H257.16V204.567Z" fill="#F0F0F0"/>
<path d="M257.16 207.817H255.22V209.757H257.16V207.817Z" fill="#F0F0F0"/>
<path d="M257.16 211.067H255.22V213.007H257.16V211.067Z" fill="#F0F0F0"/>
<path d="M257.16 214.307H255.22V216.247H257.16V214.307Z" fill="#F0F0F0"/>
<path d="M257.16 217.557H255.22V219.497H257.16V217.557Z" fill="#F0F0F0"/>
<path d="M254.08 146.117H252.14V148.057H254.08V146.117Z" fill="#F0F0F0"/>
<path d="M254.08 149.367H252.14V151.307H254.08V149.367Z" fill="#F0F0F0"/>
<path d="M254.08 152.607H252.14V154.547H254.08V152.607Z" fill="#F0F0F0"/>
<path d="M254.08 155.857H252.14V157.797H254.08V155.857Z" fill="#F0F0F0"/>
<path d="M254.08 159.107H252.14V161.047H254.08V159.107Z" fill="#F0F0F0"/>
<path d="M254.08 162.357H252.14V164.297H254.08V162.357Z" fill="#F0F0F0"/>
<path d="M254.08 165.597H252.14V167.537H254.08V165.597Z" fill="#F0F0F0"/>
<path d="M254.08 168.847H252.14V170.787H254.08V168.847Z" fill="#F0F0F0"/>
<path d="M254.08 172.097H252.14V174.037H254.08V172.097Z" fill="#F0F0F0"/>
<path d="M254.08 175.347H252.14V177.287H254.08V175.347Z" fill="#F0F0F0"/>
<path d="M254.08 178.587H252.14V180.527H254.08V178.587Z" fill="#F0F0F0"/>
<path d="M254.08 181.837H252.14V183.777H254.08V181.837Z" fill="#F0F0F0"/>
<path d="M254.08 185.087H252.14V187.027H254.08V185.087Z" fill="#F0F0F0"/>
<path d="M254.08 188.327H252.14V190.267H254.08V188.327Z" fill="#F0F0F0"/>
<path d="M254.08 191.577H252.14V193.517H254.08V191.577Z" fill="#F0F0F0"/>
<path d="M254.08 194.827H252.14V196.767H254.08V194.827Z" fill="#F0F0F0"/>
<path d="M254.08 214.307H252.14V216.247H254.08V214.307Z" fill="#F0F0F0"/>
<path d="M254.08 217.557H252.14V219.497H254.08V217.557Z" fill="#F0F0F0"/>
<path d="M251 146.117H249.06V148.057H251V146.117Z" fill="#F0F0F0"/>
<path d="M251 149.367H249.06V151.307H251V149.367Z" fill="#F0F0F0"/>
<path d="M251 152.607H249.06V154.547H251V152.607Z" fill="#F0F0F0"/>
<path d="M251 155.857H249.06V157.797H251V155.857Z" fill="#F0F0F0"/>
<path d="M251 159.107H249.06V161.047H251V159.107Z" fill="#F0F0F0"/>
<path d="M251 162.357H249.06V164.297H251V162.357Z" fill="#F0F0F0"/>
<path d="M251 165.597H249.06V167.537H251V165.597Z" fill="#F0F0F0"/>
<path d="M251 168.847H249.06V170.787H251V168.847Z" fill="#F0F0F0"/>
<path d="M251 172.097H249.06V174.037H251V172.097Z" fill="#F0F0F0"/>
<path d="M251 175.347H249.06V177.287H251V175.347Z" fill="#F0F0F0"/>
<path d="M251 178.587H249.06V180.527H251V178.587Z" fill="#F0F0F0"/>
<path d="M251 181.837H249.06V183.777H251V181.837Z" fill="#F0F0F0"/>
<path d="M251 185.087H249.06V187.027H251V185.087Z" fill="#F0F0F0"/>
<path d="M251 188.327H249.06V190.267H251V188.327Z" fill="#F0F0F0"/>
<path d="M251 191.577H249.06V193.517H251V191.577Z" fill="#F0F0F0"/>
<path d="M251 194.827H249.06V196.767H251V194.827Z" fill="#F0F0F0"/>
<path d="M251 201.317H249.06V203.257H251V201.317Z" fill="#F0F0F0"/>
<path d="M251 204.567H249.06V206.507H251V204.567Z" fill="#F0F0F0"/>
<path d="M251 207.817H249.06V209.757H251V207.817Z" fill="#F0F0F0"/>
<path d="M251 211.067H249.06V213.007H251V211.067Z" fill="#F0F0F0"/>
<path d="M251 217.557H249.06V219.497H251V217.557Z" fill="#F0F0F0"/>
<path d="M197.34 168.847H195.4V170.787H197.34V168.847Z" fill="#F0F0F0"/>
<path d="M197.34 172.097H195.4V174.037H197.34V172.097Z" fill="#F0F0F0"/>
<path d="M197.34 175.347H195.4V177.287H197.34V175.347Z" fill="#F0F0F0"/>
<path d="M197.34 178.587H195.4V180.527H197.34V178.587Z" fill="#F0F0F0"/>
<path d="M197.34 181.837H195.4V183.777H197.34V181.837Z" fill="#F0F0F0"/>
<path d="M197.34 185.087H195.4V187.027H197.34V185.087Z" fill="#F0F0F0"/>
<path d="M197.34 188.327H195.4V190.267H197.34V188.327Z" fill="#F0F0F0"/>
<path d="M197.34 191.577H195.4V193.517H197.34V191.577Z" fill="#F0F0F0"/>
<path d="M197.34 194.827H195.4V196.767H197.34V194.827Z" fill="#F0F0F0"/>
<path d="M197.34 198.077H195.4V200.017H197.34V198.077Z" fill="#F0F0F0"/>
<path d="M197.34 201.317H195.4V203.257H197.34V201.317Z" fill="#F0F0F0"/>
<path d="M197.34 204.567H195.4V206.507H197.34V204.567Z" fill="#F0F0F0"/>
<path d="M197.34 207.817H195.4V209.757H197.34V207.817Z" fill="#F0F0F0"/>
<path d="M197.34 214.307H195.4V216.247H197.34V214.307Z" fill="#F0F0F0"/>
<path d="M197.34 217.557H195.4V219.497H197.34V217.557Z" fill="#F0F0F0"/>
<path d="M197.34 220.807H195.4V222.747H197.34V220.807Z" fill="#F0F0F0"/>
<path d="M197.34 224.057H195.4V225.997H197.34V224.057Z" fill="#F0F0F0"/>
<path d="M197.34 230.547H195.4V232.487H197.34V230.547Z" fill="#F0F0F0"/>
<path d="M197.34 233.797H195.4V235.737H197.34V233.797Z" fill="#F0F0F0"/>
<path d="M197.34 237.037H195.4V238.977H197.34V237.037Z" fill="#F0F0F0"/>
<path d="M194.26 168.847H192.32V170.787H194.26V168.847Z" fill="#F0F0F0"/>
<path d="M194.26 172.097H192.32V174.037H194.26V172.097Z" fill="#F0F0F0"/>
<path d="M194.26 175.347H192.32V177.287H194.26V175.347Z" fill="#F0F0F0"/>
<path d="M194.26 178.587H192.32V180.527H194.26V178.587Z" fill="#F0F0F0"/>
<path d="M194.26 181.837H192.32V183.777H194.26V181.837Z" fill="#F0F0F0"/>
<path d="M194.26 185.087H192.32V187.027H194.26V185.087Z" fill="#F0F0F0"/>
<path d="M194.26 188.327H192.32V190.267H194.26V188.327Z" fill="#F0F0F0"/>
<path d="M194.26 191.577H192.32V193.517H194.26V191.577Z" fill="#F0F0F0"/>
<path d="M194.26 194.827H192.32V196.767H194.26V194.827Z" fill="#F0F0F0"/>
<path d="M194.26 198.077H192.32V200.017H194.26V198.077Z" fill="#F0F0F0"/>
<path d="M194.26 201.317H192.32V203.257H194.26V201.317Z" fill="#F0F0F0"/>
<path d="M194.26 204.567H192.32V206.507H194.26V204.567Z" fill="#F0F0F0"/>
<path d="M194.26 207.817H192.32V209.757H194.26V207.817Z" fill="#F0F0F0"/>
<path d="M194.26 217.557H192.32V219.497H194.26V217.557Z" fill="#F0F0F0"/>
<path d="M194.26 220.807H192.32V222.747H194.26V220.807Z" fill="#F0F0F0"/>
<path d="M194.26 227.297H192.32V229.237H194.26V227.297Z" fill="#F0F0F0"/>
<path d="M194.26 230.547H192.32V232.487H194.26V230.547Z" fill="#F0F0F0"/>
<path d="M194.26 233.797H192.32V235.737H194.26V233.797Z" fill="#F0F0F0"/>
<path d="M194.26 237.037H192.32V238.977H194.26V237.037Z" fill="#F0F0F0"/>
<path d="M191.18 168.847H189.24V170.787H191.18V168.847Z" fill="#F0F0F0"/>
<path d="M191.18 172.097H189.24V174.037H191.18V172.097Z" fill="#F0F0F0"/>
<path d="M191.18 175.347H189.24V177.287H191.18V175.347Z" fill="#F0F0F0"/>
<path d="M191.18 178.587H189.24V180.527H191.18V178.587Z" fill="#F0F0F0"/>
<path d="M191.18 181.837H189.24V183.777H191.18V181.837Z" fill="#F0F0F0"/>
<path d="M191.18 185.087H189.24V187.027H191.18V185.087Z" fill="#F0F0F0"/>
<path d="M191.18 188.327H189.24V190.267H191.18V188.327Z" fill="#F0F0F0"/>
<path d="M191.18 191.577H189.24V193.517H191.18V191.577Z" fill="#F0F0F0"/>
<path d="M191.18 194.827H189.24V196.767H191.18V194.827Z" fill="#F0F0F0"/>
<path d="M191.18 198.077H189.24V200.017H191.18V198.077Z" fill="#F0F0F0"/>
<path d="M191.18 201.317H189.24V203.257H191.18V201.317Z" fill="#F0F0F0"/>
<path d="M191.18 204.567H189.24V206.507H191.18V204.567Z" fill="#F0F0F0"/>
<path d="M191.18 207.817H189.24V209.757H191.18V207.817Z" fill="#F0F0F0"/>
<path d="M191.18 211.067H189.24V213.007H191.18V211.067Z" fill="#F0F0F0"/>
<path d="M191.18 217.557H189.24V219.497H191.18V217.557Z" fill="#F0F0F0"/>
<path d="M191.18 224.057H189.24V225.997H191.18V224.057Z" fill="#F0F0F0"/>
<path d="M191.18 227.297H189.24V229.237H191.18V227.297Z" fill="#F0F0F0"/>
<path d="M191.18 230.547H189.24V232.487H191.18V230.547Z" fill="#F0F0F0"/>
<path d="M191.18 233.797H189.24V235.737H191.18V233.797Z" fill="#F0F0F0"/>
<path d="M191.18 237.037H189.24V238.977H191.18V237.037Z" fill="#F0F0F0"/>
<path d="M209.87 187.367H207.93V189.307H209.87V187.367Z" fill="#F0F0F0"/>
<path d="M209.87 190.607H207.93V192.547H209.87V190.607Z" fill="#F0F0F0"/>
<path d="M209.87 193.857H207.93V195.797H209.87V193.857Z" fill="#F0F0F0"/>
<path d="M209.87 197.107H207.93V199.047H209.87V197.107Z" fill="#F0F0F0"/>
<path d="M209.87 200.357H207.93V202.297H209.87V200.357Z" fill="#F0F0F0"/>
<path d="M209.87 203.597H207.93V205.537H209.87V203.597Z" fill="#F0F0F0"/>
<path d="M209.87 213.347H207.93V215.287H209.87V213.347Z" fill="#F0F0F0"/>
<path d="M209.87 216.587H207.93V218.527H209.87V216.587Z" fill="#F0F0F0"/>
<path d="M209.87 219.837H207.93V221.777H209.87V219.837Z" fill="#F0F0F0"/>
<path d="M209.87 223.087H207.93V225.027H209.87V223.087Z" fill="#F0F0F0"/>
<path d="M209.87 226.327H207.93V228.267H209.87V226.327Z" fill="#F0F0F0"/>
<path d="M209.87 229.577H207.93V231.517H209.87V229.577Z" fill="#F0F0F0"/>
<path d="M209.87 232.827H207.93V234.767H209.87V232.827Z" fill="#F0F0F0"/>
<path d="M206.79 187.367H204.85V189.307H206.79V187.367Z" fill="#F0F0F0"/>
<path d="M206.79 190.607H204.85V192.547H206.79V190.607Z" fill="#F0F0F0"/>
<path d="M206.79 193.857H204.85V195.797H206.79V193.857Z" fill="#F0F0F0"/>
<path d="M206.79 197.107H204.85V199.047H206.79V197.107Z" fill="#F0F0F0"/>
<path d="M206.79 200.357H204.85V202.297H206.79V200.357Z" fill="#F0F0F0"/>
<path d="M206.79 203.597H204.85V205.537H206.79V203.597Z" fill="#F0F0F0"/>
<path d="M206.79 213.347H204.85V215.287H206.79V213.347Z" fill="#F0F0F0"/>
<path d="M206.79 216.587H204.85V218.527H206.79V216.587Z" fill="#F0F0F0"/>
<path d="M206.79 219.837H204.85V221.777H206.79V219.837Z" fill="#F0F0F0"/>
<path d="M206.79 223.087H204.85V225.027H206.79V223.087Z" fill="#F0F0F0"/>
<path d="M206.79 226.327H204.85V228.267H206.79V226.327Z" fill="#F0F0F0"/>
<path d="M206.79 229.577H204.85V231.517H206.79V229.577Z" fill="#F0F0F0"/>
<path d="M206.79 236.077H204.85V238.017H206.79V236.077Z" fill="#F0F0F0"/>
<path d="M104.59 173.067H102.65V175.007H104.59V173.067Z" fill="#F0F0F0"/>
<path d="M104.59 176.307H102.65V178.247H104.59V176.307Z" fill="#F0F0F0"/>
<path d="M104.59 179.557H102.65V181.497H104.59V179.557Z" fill="#F0F0F0"/>
<path d="M104.59 182.807H102.65V184.747H104.59V182.807Z" fill="#F0F0F0"/>
<path d="M104.59 186.057H102.65V187.997H104.59V186.057Z" fill="#F0F0F0"/>
<path d="M104.59 189.297H102.65V191.237H104.59V189.297Z" fill="#F0F0F0"/>
<path d="M104.59 192.547H102.65V194.487H104.59V192.547Z" fill="#F0F0F0"/>
<path d="M104.59 195.797H102.65V197.737H104.59V195.797Z" fill="#F0F0F0"/>
<path d="M104.59 199.047H102.65V200.987H104.59V199.047Z" fill="#F0F0F0"/>
<path d="M104.59 202.287H102.65V204.227H104.59V202.287Z" fill="#F0F0F0"/>
<path d="M104.59 205.537H102.65V207.477H104.59V205.537Z" fill="#F0F0F0"/>
<path d="M104.59 212.027H102.65V213.967H104.59V212.027Z" fill="#F0F0F0"/>
<path d="M104.59 215.277H102.65V217.217H104.59V215.277Z" fill="#F0F0F0"/>
<path d="M104.59 218.527H102.65V220.467H104.59V218.527Z" fill="#F0F0F0"/>
<path d="M104.59 221.777H102.65V223.717H104.59V221.777Z" fill="#F0F0F0"/>
<path d="M104.59 225.017H102.65V226.957H104.59V225.017Z" fill="#F0F0F0"/>
<path d="M104.59 228.267H102.65V230.207H104.59V228.267Z" fill="#F0F0F0"/>
<path d="M104.59 231.517H102.65V233.457H104.59V231.517Z" fill="#F0F0F0"/>
<path d="M104.59 234.767H102.65V236.707H104.59V234.767Z" fill="#F0F0F0"/>
<path d="M101.51 173.067H99.5698V175.007H101.51V173.067Z" fill="#F0F0F0"/>
<path d="M101.51 176.307H99.5698V178.247H101.51V176.307Z" fill="#F0F0F0"/>
<path d="M101.51 179.557H99.5698V181.497H101.51V179.557Z" fill="#F0F0F0"/>
<path d="M101.51 182.807H99.5698V184.747H101.51V182.807Z" fill="#F0F0F0"/>
<path d="M101.51 186.057H99.5698V187.997H101.51V186.057Z" fill="#F0F0F0"/>
<path d="M101.51 189.297H99.5698V191.237H101.51V189.297Z" fill="#F0F0F0"/>
<path d="M101.51 192.547H99.5698V194.487H101.51V192.547Z" fill="#F0F0F0"/>
<path d="M101.51 195.797H99.5698V197.737H101.51V195.797Z" fill="#F0F0F0"/>
<path d="M101.51 199.047H99.5698V200.987H101.51V199.047Z" fill="#F0F0F0"/>
<path d="M101.51 202.287H99.5698V204.227H101.51V202.287Z" fill="#F0F0F0"/>
<path d="M101.51 205.537H99.5698V207.477H101.51V205.537Z" fill="#F0F0F0"/>
<path d="M101.51 208.787H99.5698V210.727H101.51V208.787Z" fill="#F0F0F0"/>
<path d="M101.51 212.027H99.5698V213.967H101.51V212.027Z" fill="#F0F0F0"/>
<path d="M101.51 215.277H99.5698V217.217H101.51V215.277Z" fill="#F0F0F0"/>
<path d="M101.51 218.527H99.5698V220.467H101.51V218.527Z" fill="#F0F0F0"/>
<path d="M101.51 221.777H99.5698V223.717H101.51V221.777Z" fill="#F0F0F0"/>
<path d="M101.51 225.017H99.5698V226.957H101.51V225.017Z" fill="#F0F0F0"/>
<path d="M101.51 228.267H99.5698V230.207H101.51V228.267Z" fill="#F0F0F0"/>
<path d="M101.51 231.517H99.5698V233.457H101.51V231.517Z" fill="#F0F0F0"/>
<path d="M101.51 234.767H99.5698V236.707H101.51V234.767Z" fill="#F0F0F0"/>
<path d="M119.74 185.707H117.8V187.647H119.74V185.707Z" fill="#F0F0F0"/>
<path d="M119.74 188.957H117.8V190.897H119.74V188.957Z" fill="#F0F0F0"/>
<path d="M119.74 192.207H117.8V194.147H119.74V192.207Z" fill="#F0F0F0"/>
<path d="M119.74 195.457H117.8V197.397H119.74V195.457Z" fill="#F0F0F0"/>
<path d="M119.74 198.697H117.8V200.637H119.74V198.697Z" fill="#F0F0F0"/>
<path d="M119.74 201.947H117.8V203.887H119.74V201.947Z" fill="#F0F0F0"/>
<path d="M119.74 205.197H117.8V207.137H119.74V205.197Z" fill="#F0F0F0"/>
<path d="M119.74 208.447H117.8V210.387H119.74V208.447Z" fill="#F0F0F0"/>
<path d="M119.74 211.687H117.8V213.627H119.74V211.687Z" fill="#F0F0F0"/>
<path d="M119.74 214.937H117.8V216.877H119.74V214.937Z" fill="#F0F0F0"/>
<path d="M116.67 185.707H114.73V187.647H116.67V185.707Z" fill="#F0F0F0"/>
<path d="M116.67 188.957H114.73V190.897H116.67V188.957Z" fill="#F0F0F0"/>
<path d="M116.67 192.207H114.73V194.147H116.67V192.207Z" fill="#F0F0F0"/>
<path d="M116.67 195.457H114.73V197.397H116.67V195.457Z" fill="#F0F0F0"/>
<path d="M116.67 198.697H114.73V200.637H116.67V198.697Z" fill="#F0F0F0"/>
<path d="M116.67 201.947H114.73V203.887H116.67V201.947Z" fill="#F0F0F0"/>
<path d="M116.67 205.197H114.73V207.137H116.67V205.197Z" fill="#F0F0F0"/>
<path d="M116.67 208.447H114.73V210.387H116.67V208.447Z" fill="#F0F0F0"/>
<path d="M116.67 211.687H114.73V213.627H116.67V211.687Z" fill="#F0F0F0"/>
<path d="M134.97 62.4771H131.72V243.587H134.97V62.4771Z" fill="#E0E0E0"/>
<path d="M196.13 62.4771H192.88V243.587H196.13V62.4771Z" fill="#E0E0E0"/>
<path d="M257.28 62.4771H254.03V243.587H257.28V62.4771Z" fill="#E0E0E0"/>
<path d="M365.52 75.1867C373.346 75.1867 379.69 68.8426 379.69 61.0167C379.69 53.1908 373.346 46.8467 365.52 46.8467C357.694 46.8467 351.35 53.1908 351.35 61.0167C351.35 68.8426 357.694 75.1867 365.52 75.1867Z" fill="#E0E0E0"/>
<path d="M365.52 73.0668C372.175 73.0668 377.57 67.6718 377.57 61.0168C377.57 54.3618 372.175 48.9668 365.52 48.9668C358.865 48.9668 353.47 54.3618 353.47 61.0168C353.47 67.6718 358.865 73.0668 365.52 73.0668Z" fill="#F0F0F0"/>
<path d="M364.95 52.7471V61.1771L359.37 58.0171" fill="#F0F0F0"/>
<path d="M364.95 52.7471V61.1771L359.37 58.0171" stroke="#E0E0E0" stroke-width="2" stroke-linecap="round" stroke-linejoin="round"/>
<path d="M426.9 177.637V84.7368L307.35 84.7368V177.637H426.9Z" fill="#E0E0E0"/>
<path d="M309 175.977L425.24 175.977V86.3871L309 86.3871V175.977Z" fill="#EBEBEB"/>
<path d="M401.91 116.547H415.46V97.3969H401.91V116.547Z" fill="#F5F5F5"/>
<path d="M384.27 123.547H398.53V103.047H384.27V123.547Z" fill="#F5F5F5"/>
<path d="M402.967 166.912L417.105 165.053L414.433 144.728L400.295 146.586L402.967 166.912Z" fill="#F5F5F5"/>
<path d="M365.52 165.257H379.78V144.757H365.52V165.257Z" fill="#F5F5F5"/>
<path d="M382.55 163.097H396.81V142.597H382.55V163.097Z" fill="#F5F5F5"/>
<path d="M341.01 107.637H349.86V98.7867H341.01V107.637Z" fill="#F5F5F5"/>
<path d="M331.311 109.735L339.577 106.572L336.414 98.3068L328.148 101.47L331.311 109.735Z" fill="#F5F5F5"/>
<path d="M345.43 99.907C345.408 99.9844 345.404 100.066 345.419 100.145C345.434 100.224 345.467 100.299 345.515 100.363C345.563 100.427 345.626 100.479 345.698 100.515C345.77 100.551 345.85 100.57 345.93 100.57C346.011 100.57 346.09 100.551 346.162 100.515C346.234 100.479 346.297 100.427 346.345 100.363C346.394 100.299 346.427 100.224 346.441 100.145C346.456 100.066 346.452 99.9844 346.43 99.907C346.452 99.8296 346.456 99.7481 346.441 99.669C346.427 99.5899 346.394 99.5152 346.345 99.451C346.297 99.3867 346.234 99.3346 346.162 99.2987C346.09 99.2628 346.011 99.2441 345.93 99.2441C345.85 99.2441 345.77 99.2628 345.698 99.2987C345.626 99.3346 345.563 99.3867 345.515 99.451C345.467 99.5152 345.434 99.5899 345.419 99.669C345.404 99.7481 345.408 99.8296 345.43 99.907Z" fill="#E0E0E0"/>
<path d="M335.24 99.907C335.218 99.9844 335.214 100.066 335.229 100.145C335.244 100.224 335.277 100.299 335.325 100.363C335.374 100.427 335.436 100.479 335.508 100.515C335.58 100.551 335.66 100.57 335.74 100.57C335.821 100.57 335.9 100.551 335.972 100.515C336.044 100.479 336.107 100.427 336.155 100.363C336.204 100.299 336.237 100.224 336.251 100.145C336.266 100.066 336.262 99.9844 336.24 99.907C336.262 99.8296 336.266 99.7481 336.251 99.669C336.237 99.5899 336.204 99.5152 336.155 99.451C336.107 99.3867 336.044 99.3346 335.972 99.2987C335.9 99.2628 335.821 99.2441 335.74 99.2441C335.66 99.2441 335.58 99.2628 335.508 99.2987C335.436 99.3346 335.374 99.3867 335.325 99.451C335.277 99.5152 335.244 99.5899 335.229 99.669C335.214 99.7481 335.218 99.8296 335.24 99.907Z" fill="#E0E0E0"/>
<path d="M390.88 104.557C390.88 104.695 390.935 104.827 391.032 104.925C391.13 105.022 391.262 105.077 391.4 105.077C391.537 105.075 391.668 105.019 391.765 104.922C391.862 104.825 391.917 104.694 391.92 104.557C391.92 104.419 391.865 104.287 391.768 104.189C391.67 104.092 391.538 104.037 391.4 104.037C391.262 104.037 391.13 104.092 391.032 104.189C390.935 104.287 390.88 104.419 390.88 104.557Z" fill="#E0E0E0"/>
<path d="M408.69 99.3071C408.977 99.3071 409.21 99.0743 409.21 98.7871C409.21 98.4999 408.977 98.2671 408.69 98.2671C408.403 98.2671 408.17 98.4999 408.17 98.7871C408.17 99.0743 408.403 99.3071 408.69 99.3071Z" fill="#E0E0E0"/>
<path d="M413 146.237C412.978 146.314 412.974 146.396 412.989 146.475C413.003 146.554 413.036 146.629 413.085 146.693C413.133 146.757 413.196 146.809 413.268 146.845C413.34 146.881 413.42 146.9 413.5 146.9C413.58 146.9 413.66 146.881 413.732 146.845C413.804 146.809 413.867 146.757 413.915 146.693C413.964 146.629 413.996 146.554 414.011 146.475C414.026 146.396 414.022 146.314 414 146.237C413.969 146.128 413.903 146.033 413.813 145.965C413.723 145.897 413.613 145.86 413.5 145.86C413.387 145.86 413.277 145.897 413.187 145.965C413.097 146.033 413.031 146.128 413 146.237Z" fill="#E0E0E0"/>
<path d="M389.69 144.297C389.977 144.297 390.21 144.064 390.21 143.777C390.21 143.49 389.977 143.257 389.69 143.257C389.403 143.257 389.17 143.49 389.17 143.777C389.17 144.064 389.403 144.297 389.69 144.297Z" fill="#E0E0E0"/>
<path d="M372.13 145.717C372.13 145.855 372.185 145.987 372.282 146.084C372.38 146.182 372.512 146.237 372.65 146.237C372.787 146.234 372.918 146.179 373.015 146.082C373.112 145.985 373.167 145.854 373.17 145.717C373.17 145.579 373.115 145.447 373.018 145.349C372.92 145.252 372.788 145.197 372.65 145.197C372.512 145.197 372.38 145.252 372.282 145.349C372.185 145.447 372.13 145.579 372.13 145.717Z" fill="#E0E0E0"/>
<path d="M318.06 144.287H346.47V126.477H318.06V144.287Z" fill="#E0E0E0"/>
<path d="M327.78 166.317H352.58V146.737H327.78V166.317Z" fill="#E0E0E0"/>
<path d="M250 372.627C357.082 372.627 443.89 367.559 443.89 361.307C443.89 355.055 357.082 349.987 250 349.987C142.917 349.987 56.1099 355.055 56.1099 361.307C56.1099 367.559 142.917 372.627 250 372.627Z" fill="#F5F5F5"/>
<path d="M87.4302 139.337L72.1502 253.167C72.1094 253.47 72.1288 253.779 72.2072 254.075C72.2856 254.371 72.4216 254.648 72.6073 254.891C72.7931 255.135 73.0249 255.339 73.2897 255.493C73.5544 255.646 73.8468 255.746 74.1502 255.787L198.46 272.467C198.763 272.508 199.071 272.488 199.366 272.41C199.661 272.331 199.938 272.195 200.181 272.009C200.423 271.823 200.627 271.592 200.779 271.327C200.932 271.062 201.031 270.77 201.07 270.467L217.76 146.147C217.84 145.536 217.674 144.918 217.299 144.429C216.924 143.94 216.371 143.619 215.76 143.537L101.93 128.267C101.32 128.186 100.702 128.348 100.21 128.717L88.3202 137.797C87.8316 138.172 87.5115 138.726 87.4302 139.337Z" fill="#263238"/>
<path d="M87.0004 250.747L86.1104 257.387L186.54 270.867L187.43 264.227C187.531 263.471 187.482 262.703 187.285 261.967C187.088 261.231 186.747 260.541 186.283 259.937C185.818 259.332 185.238 258.826 184.577 258.447C183.916 258.068 183.186 257.823 182.43 257.727L93.4304 245.727C91.913 245.546 90.3857 245.972 89.1812 246.912C87.9767 247.853 87.1928 249.231 87.0004 250.747Z" fill="#0080FF"/>
<path opacity="0.2" d="M115.75 130.117L110.32 170.567C110.258 171.031 110.289 171.502 110.409 171.954C110.529 172.406 110.737 172.83 111.022 173.201C111.306 173.573 111.66 173.885 112.065 174.119C112.47 174.353 112.917 174.506 113.38 174.567L194.38 185.447C195.316 185.567 196.26 185.312 197.009 184.739C197.758 184.167 198.251 183.321 198.38 182.387L203.8 141.947L115.75 130.117Z" fill="#262627"/>
<path d="M115.75 130.127L110.32 170.557C110.198 171.494 110.453 172.442 111.028 173.192C111.604 173.941 112.453 174.432 113.39 174.557L168.31 181.927C168.774 181.989 169.245 181.959 169.697 181.838C170.149 181.718 170.573 181.51 170.944 181.226C171.315 180.942 171.627 180.587 171.862 180.182C172.096 179.778 172.248 179.331 172.31 178.867L177.74 138.427L115.75 130.127ZM135 172.387L121.14 170.527L125.71 136.527L139.56 138.387L135 172.387ZM171.58 142.837L161.85 141.537L162.27 138.417L171.99 139.717L171.58 142.837Z" fill="#0080FF"/>
<path opacity="0.6" d="M115.75 130.127L110.32 170.557C110.198 171.494 110.453 172.442 111.028 173.192C111.604 173.941 112.453 174.432 113.39 174.557L168.31 181.927C168.774 181.989 169.245 181.959 169.697 181.838C170.149 181.718 170.573 181.51 170.944 181.226C171.315 180.942 171.627 180.587 171.862 180.182C172.096 179.778 172.248 179.331 172.31 178.867L177.74 138.427L115.75 130.127ZM135 172.387L121.14 170.527L125.71 136.527L139.56 138.387L135 172.387ZM171.58 142.837L161.85 141.537L162.27 138.417L171.99 139.717L171.58 142.837Z" fill="white"/>
<path opacity="0.2" d="M190.341 267.276L198.181 268.327L199.023 262.053L191.183 261.002L190.341 267.276Z" fill="#262627"/>
<path opacity="0.2" d="M75.3277 251.829L83.1675 252.881L84.009 246.607L76.1693 245.555L75.3277 251.829Z" fill="#262627"/>
<path opacity="0.2" d="M208.91 158.787L210.42 168.307L204.94 167.567L208.91 158.787Z" fill="#262627"/>
<path opacity="0.6" d="M151.143 233.245C160.762 229.883 165.835 219.361 162.474 209.741C159.113 200.122 148.59 195.049 138.971 198.41C129.352 201.771 124.278 212.294 127.64 221.913C131.001 231.532 141.523 236.606 151.143 233.245Z" fill="white"/>
<path opacity="0.4" d="M148.959 211.388L144.415 210.792C143.289 210.644 142.256 211.437 142.108 212.563L141.511 217.107C141.363 218.234 142.156 219.267 143.283 219.415L147.827 220.011C148.953 220.159 149.986 219.366 150.134 218.24L150.731 213.696C150.878 212.569 150.085 211.536 148.959 211.388Z" fill="#262627"/>
<path opacity="0.4" d="M140.028 204.153L135.697 207.46C135.2 207.839 135.105 208.548 135.484 209.044L136.971 210.992C137.349 211.488 138.059 211.583 138.555 211.204L142.887 207.897C143.383 207.518 143.478 206.809 143.099 206.313L141.612 204.366C141.234 203.87 140.524 203.774 140.028 204.153Z" fill="#262627"/>
<path opacity="0.6" d="M87.0004 250.747L86.1104 257.387L186.54 270.867L187.43 264.227C187.531 263.471 187.482 262.703 187.285 261.967C187.088 261.231 186.747 260.541 186.283 259.937C185.818 259.332 185.238 258.826 184.577 258.447C183.916 258.068 183.186 257.823 182.43 257.727L93.4304 245.727C91.913 245.546 90.3857 245.972 89.1812 246.912C87.9767 247.853 87.1928 249.231 87.0004 250.747Z" fill="white"/>
<path d="M271.05 45.4973L296.15 157.577C296.281 158.179 296.17 158.808 295.841 159.329C295.511 159.849 294.99 160.219 294.39 160.357L172 187.767C171.702 187.834 171.395 187.841 171.095 187.788C170.794 187.736 170.507 187.625 170.25 187.461C169.993 187.298 169.77 187.085 169.595 186.836C169.42 186.586 169.296 186.305 169.23 186.007L141.8 63.6073C141.733 63.3099 141.726 63.0023 141.779 62.702C141.831 62.4018 141.943 62.1149 142.106 61.8577C142.269 61.6004 142.482 61.3779 142.731 61.2028C142.981 61.0278 143.262 60.9036 143.56 60.8373L255.64 35.7273C256.241 35.5965 256.87 35.7079 257.39 36.0373L270 44.0673C270.523 44.3885 270.9 44.9018 271.05 45.4973Z" fill="#0080FF"/>
<path opacity="0.6" d="M268.73 100.817L282.66 162.977L183.73 185.137L169.8 122.977C169.466 121.479 169.741 119.909 170.564 118.613C171.387 117.318 172.691 116.402 174.19 116.067L261.82 96.4374C262.561 96.2706 263.328 96.2516 264.077 96.3815C264.825 96.5114 265.541 96.7877 266.183 97.1945C266.825 97.6013 267.38 98.1307 267.817 98.7524C268.254 99.374 268.564 100.076 268.73 100.817Z" fill="white"/>
<path opacity="0.2" d="M242 38.7773L251 78.5973C251.206 79.5202 251.037 80.4871 250.531 81.2857C250.025 82.0844 249.223 82.6496 248.3 82.8573L168.52 100.727C167.597 100.933 166.63 100.765 165.832 100.258C165.033 99.7522 164.468 98.9498 164.26 98.0274L155.35 58.2073L242 38.7773Z" fill="#262627"/>
<path d="M181 52.4473L189.92 92.2673C190.022 92.7248 190.213 93.1576 190.482 93.541C190.751 93.9245 191.094 94.251 191.489 94.5018C191.885 94.7527 192.327 94.9229 192.788 95.0028C193.25 95.0827 193.723 95.0706 194.18 94.9673L248.26 82.8573C249.182 82.6496 249.985 82.0844 250.491 81.2857C250.997 80.4871 251.166 79.5202 250.96 78.5973L242 38.7773L181 52.4473ZM240.2 79.4973L226.56 82.4973L219.05 49.0673L232.7 46.0673L240.2 79.4973Z" fill="#0080FF"/>
<path opacity="0.6" d="M181 52.4473L189.92 92.2673C190.022 92.7248 190.213 93.1576 190.482 93.541C190.751 93.9245 191.094 94.251 191.489 94.5018C191.885 94.7527 192.327 94.9229 192.788 95.0028C193.25 95.0827 193.723 95.0706 194.18 94.9673L248.26 82.8573C249.182 82.6496 249.985 82.0844 250.491 81.2857C250.997 80.4871 251.166 79.5202 250.96 78.5973L242 38.7773L181 52.4473ZM240.2 79.4973L226.56 82.4973L219.05 49.0673L232.7 46.0673L240.2 79.4973Z" fill="white"/>
<path opacity="0.2" d="M178.207 175.716L170.488 177.444L171.871 183.621L179.59 181.893L178.207 175.716Z" fill="#262627"/>
<path opacity="0.2" d="M291.474 150.31L283.755 152.039L285.139 158.216L292.858 156.486L291.474 150.31Z" fill="#262627"/>
<path opacity="0.2" d="M151.71 75.4272L151.03 85.0372L156.43 83.8272L151.71 75.4272Z" fill="#262627"/>
<g opacity="0.2">
<path d="M263.64 122.367L183.64 140.297C183.575 140.31 183.508 140.297 183.452 140.262C183.397 140.226 183.356 140.171 183.34 140.107C183.332 140.075 183.332 140.042 183.337 140.009C183.343 139.977 183.355 139.946 183.372 139.918C183.39 139.89 183.413 139.866 183.44 139.847C183.467 139.828 183.498 139.815 183.53 139.807L263.53 121.877C263.562 121.87 263.595 121.869 263.628 121.875C263.66 121.88 263.692 121.892 263.719 121.91C263.747 121.928 263.771 121.951 263.79 121.978C263.809 122.005 263.823 122.035 263.83 122.067C263.837 122.1 263.838 122.133 263.833 122.165C263.827 122.198 263.815 122.229 263.797 122.257C263.78 122.285 263.757 122.309 263.73 122.328C263.703 122.347 263.672 122.36 263.64 122.367Z" fill="#262627"/>
<path d="M266 132.917L186 150.847C185.967 150.855 185.934 150.856 185.902 150.85C185.869 150.844 185.838 150.832 185.81 150.815C185.782 150.797 185.758 150.774 185.739 150.747C185.72 150.72 185.707 150.689 185.7 150.657C185.692 150.625 185.691 150.592 185.697 150.559C185.703 150.527 185.714 150.496 185.732 150.468C185.75 150.44 185.773 150.416 185.8 150.397C185.827 150.378 185.857 150.364 185.89 150.357L265.89 132.427C265.922 132.42 265.955 132.419 265.988 132.424C266.02 132.43 266.051 132.442 266.079 132.46C266.107 132.477 266.131 132.5 266.15 132.527C266.169 132.554 266.183 132.585 266.19 132.617C266.197 132.649 266.198 132.683 266.192 132.715C266.187 132.748 266.175 132.779 266.157 132.807C266.14 132.835 266.117 132.859 266.089 132.878C266.062 132.897 266.032 132.91 266 132.917Z" fill="#262627"/>
<path d="M268.37 143.467L188.37 161.397C188.338 161.405 188.304 161.406 188.272 161.4C188.239 161.395 188.208 161.383 188.18 161.365C188.152 161.347 188.128 161.324 188.109 161.297C188.09 161.27 188.077 161.24 188.07 161.207C188.062 161.175 188.061 161.142 188.067 161.109C188.073 161.077 188.085 161.046 188.102 161.018C188.12 160.99 188.143 160.966 188.17 160.947C188.197 160.928 188.228 160.915 188.26 160.907L268.26 142.987C268.293 142.973 268.33 142.967 268.366 142.968C268.403 142.969 268.438 142.979 268.471 142.995C268.503 143.012 268.532 143.035 268.554 143.064C268.577 143.093 268.593 143.126 268.601 143.162C268.609 143.198 268.609 143.234 268.601 143.27C268.594 143.306 268.578 143.339 268.556 143.369C268.534 143.398 268.506 143.422 268.474 143.439C268.442 143.456 268.406 143.466 268.37 143.467Z" fill="#262627"/>
<path d="M270.73 154.068L190.73 171.988C190.696 172.002 190.66 172.008 190.624 172.007C190.587 172.006 190.551 171.996 190.519 171.98C190.486 171.963 190.458 171.94 190.436 171.911C190.413 171.882 190.397 171.849 190.389 171.813C190.381 171.778 190.381 171.741 190.388 171.705C190.396 171.669 190.411 171.636 190.433 171.607C190.455 171.577 190.483 171.553 190.516 171.536C190.548 171.519 190.584 171.509 190.62 171.508L270.62 153.578C270.652 153.57 270.686 153.569 270.718 153.575C270.751 153.58 270.782 153.592 270.81 153.61C270.838 153.628 270.862 153.651 270.881 153.678C270.9 153.705 270.913 153.735 270.92 153.768C270.927 153.8 270.928 153.833 270.923 153.866C270.917 153.898 270.905 153.929 270.888 153.957C270.87 153.985 270.847 154.009 270.82 154.028C270.793 154.047 270.762 154.061 270.73 154.068Z" fill="#262627"/>
</g>
<path d="M268.73 100.817L270.29 107.817L171.36 129.977L169.8 122.977C169.466 121.479 169.741 119.909 170.564 118.613C171.387 117.318 172.691 116.402 174.19 116.067L261.82 96.4374C262.561 96.2706 263.328 96.2516 264.077 96.3815C264.825 96.5114 265.541 96.7877 266.183 97.1945C266.825 97.6013 267.38 98.1307 267.817 98.7524C268.254 99.374 268.564 100.076 268.73 100.817Z" fill="#263238"/>
<path d="M203.9 164.607C203.837 164.618 203.773 164.618 203.71 164.607C203.621 164.572 203.544 164.512 203.489 164.434C203.434 164.355 203.403 164.263 203.4 164.167L201.77 138.467C200.74 139.079 199.77 139.786 198.87 140.577C198.824 140.624 198.77 140.661 198.71 140.686C198.65 140.711 198.585 140.724 198.52 140.724C198.455 140.724 198.39 140.711 198.33 140.686C198.27 140.661 198.216 140.624 198.17 140.577C198.122 140.532 198.084 140.478 198.058 140.418C198.032 140.358 198.019 140.293 198.019 140.227C198.019 140.162 198.032 140.097 198.058 140.036C198.084 139.976 198.122 139.922 198.17 139.877C198.39 139.667 203.75 134.827 208.23 136.067C210.37 136.657 211.92 138.517 212.83 141.597C216.19 152.907 204.7 164.067 204.21 164.537C204.117 164.594 204.008 164.619 203.9 164.607ZM202.65 137.947C202.717 138.026 202.756 138.124 202.76 138.227L204.32 162.947C206.86 160.197 214.59 150.867 211.9 141.807C211.09 139.087 209.78 137.457 207.99 136.957C206.149 136.627 204.25 136.979 202.65 137.947Z" fill="#263238"/>
<path d="M216.63 163.807C216.499 163.79 216.38 163.723 216.296 163.621C216.213 163.519 216.171 163.389 216.18 163.257C217.45 150.357 219.32 134.887 221.03 134.467C221.132 134.445 221.238 134.443 221.341 134.462C221.444 134.481 221.542 134.52 221.63 134.577C223.71 135.837 228.14 153.947 229.01 157.577C229.04 157.706 229.018 157.841 228.949 157.954C228.879 158.066 228.768 158.147 228.64 158.177C228.576 158.194 228.51 158.197 228.445 158.187C228.38 158.177 228.317 158.154 228.261 158.12C228.205 158.085 228.157 158.04 228.119 157.986C228.081 157.932 228.054 157.872 228.04 157.807C225.62 147.737 222.5 136.967 221.26 135.567C220.2 137.437 218.39 151.027 217.18 163.367C217.165 163.498 217.099 163.618 216.995 163.701C216.892 163.783 216.761 163.821 216.63 163.807Z" fill="#263238"/>
<path d="M215.62 151.877C215.533 151.879 215.448 151.857 215.373 151.815C215.297 151.773 215.234 151.712 215.19 151.637C215.155 151.582 215.131 151.519 215.121 151.454C215.11 151.39 215.112 151.323 215.127 151.259C215.142 151.195 215.169 151.134 215.207 151.081C215.246 151.027 215.294 150.982 215.35 150.947C218.929 148.823 222.885 147.41 227 146.787C227.133 146.771 227.266 146.809 227.371 146.891C227.476 146.974 227.544 147.095 227.56 147.227C227.576 147.36 227.538 147.493 227.456 147.598C227.373 147.703 227.253 147.771 227.12 147.787C223.141 148.398 219.314 149.755 215.84 151.787C215.777 151.838 215.7 151.869 215.62 151.877Z" fill="#263238"/>
<path d="M235.59 154.587C235.477 154.589 235.367 154.551 235.279 154.48C235.191 154.408 235.131 154.308 235.11 154.197C234.46 151.297 233.91 148.277 233.39 145.347C232.39 139.517 231.26 133.497 229.3 128.277C229.257 128.151 229.265 128.013 229.32 127.892C229.376 127.771 229.476 127.676 229.6 127.627C229.725 127.585 229.861 127.592 229.98 127.648C230.1 127.704 230.193 127.804 230.24 127.927C232.24 133.227 233.32 139.297 234.37 145.167C234.9 148.087 235.44 151.107 236.08 153.987C236.107 154.116 236.082 154.25 236.011 154.36C235.94 154.47 235.828 154.548 235.7 154.577L235.59 154.587Z" fill="#263238"/>
<path d="M220.05 130.778C219.957 130.775 219.866 130.748 219.787 130.699C219.708 130.65 219.643 130.58 219.6 130.498C219.571 130.438 219.555 130.373 219.551 130.307C219.548 130.241 219.558 130.175 219.58 130.112C219.602 130.05 219.637 129.993 219.682 129.944C219.726 129.895 219.78 129.855 219.84 129.828C221.3 129.118 234.22 122.928 237.94 124.718C238.21 124.844 238.447 125.031 238.631 125.266C238.815 125.501 238.942 125.775 239 126.068C239.015 126.133 239.016 126.201 239.004 126.267C238.992 126.333 238.968 126.397 238.931 126.453C238.895 126.51 238.848 126.559 238.793 126.597C238.738 126.636 238.676 126.663 238.61 126.678C238.544 126.692 238.477 126.693 238.41 126.682C238.344 126.67 238.281 126.645 238.224 126.609C238.168 126.573 238.119 126.526 238.08 126.47C238.042 126.415 238.015 126.353 238 126.288C237.97 126.15 237.907 126.021 237.817 125.913C237.726 125.805 237.611 125.721 237.48 125.668C234.7 124.318 224.09 128.888 220.24 130.768C220.178 130.782 220.114 130.785 220.05 130.778Z" fill="#263238"/>
<path d="M240.66 154.487C240.536 154.486 240.417 154.439 240.325 154.356C240.233 154.273 240.174 154.16 240.16 154.037C239.7 150.037 237.65 130.087 242.16 129.087C245.6 128.317 249.75 145.157 250.94 150.337C250.956 150.401 250.959 150.467 250.949 150.532C250.939 150.597 250.917 150.66 250.882 150.716C250.847 150.772 250.802 150.82 250.748 150.858C250.695 150.896 250.634 150.923 250.57 150.937C250.505 150.952 250.439 150.954 250.374 150.943C250.309 150.931 250.246 150.907 250.191 150.872C250.135 150.837 250.086 150.791 250.049 150.737C250.011 150.683 249.984 150.622 249.97 150.557C247.63 140.407 244.07 129.677 242.38 130.067C239.6 130.687 240.19 145.067 241.2 153.927C241.208 153.992 241.203 154.058 241.185 154.122C241.168 154.185 241.137 154.244 241.096 154.295C241.055 154.347 241.004 154.389 240.946 154.42C240.889 154.452 240.825 154.471 240.76 154.477L240.66 154.487Z" fill="#263238"/>
<path d="M238.09 143.067C237.974 143.067 237.863 143.028 237.773 142.955C237.684 142.882 237.623 142.78 237.6 142.667C237.573 142.535 237.6 142.397 237.675 142.285C237.751 142.172 237.867 142.094 238 142.067C238.08 142.067 245.69 140.457 249 138.017C249.108 137.941 249.241 137.91 249.372 137.931C249.503 137.952 249.62 138.022 249.7 138.127C249.74 138.18 249.769 138.24 249.785 138.304C249.802 138.369 249.805 138.435 249.794 138.501C249.784 138.566 249.761 138.629 249.725 138.685C249.69 138.741 249.644 138.79 249.59 138.827C246.06 141.397 238.49 142.987 238.16 143.047L238.09 143.067Z" fill="#263238"/>
<path d="M303.47 206.527H282.96V216.277H303.47V206.527Z" fill="#263238"/>
<path d="M304.58 216.277H281.83V217.717H304.58V216.277Z" fill="#263238"/>
<path opacity="0.4" d="M303.47 206.527H282.96V216.277H303.47V206.527Z" fill="white"/>
<path opacity="0.6" d="M304.58 216.277H281.83V217.717H304.58V216.277Z" fill="white"/>
<path d="M287.79 177.487L261.85 183.587V204.857L285.02 209.487L287.79 177.487Z" fill="#263238"/>
<path opacity="0.6" d="M287.79 177.487L285.01 209.487L275.77 207.637L261.85 204.847V183.587L278.48 179.677L287.79 177.487Z" fill="white"/>
<path opacity="0.2" d="M287.79 177.487L285.01 209.487L275.77 207.637L278.48 179.677L287.79 177.487Z" fill="#262627"/>
<path d="M326.52 175.277H280.41C279.383 175.277 278.55 176.11 278.55 177.137V210.547C278.55 211.574 279.383 212.407 280.41 212.407H326.52C327.547 212.407 328.38 211.574 328.38 210.547V177.137C328.38 176.11 327.547 175.277 326.52 175.277Z" fill="#263238"/>
<path opacity="0.6" d="M326.52 175.277H280.41C279.383 175.277 278.55 176.11 278.55 177.137V210.547C278.55 211.574 279.383 212.407 280.41 212.407H326.52C327.547 212.407 328.38 211.574 328.38 210.547V177.137C328.38 176.11 327.547 175.277 326.52 175.277Z" fill="white"/>
<path opacity="0.4" d="M326.52 175.277H286.11C285.083 175.277 284.25 176.11 284.25 177.137V210.547C284.25 211.574 285.083 212.407 286.11 212.407H326.52C327.547 212.407 328.38 211.574 328.38 210.547V177.137C328.38 176.11 327.547 175.277 326.52 175.277Z" fill="white"/>
<path opacity="0.4" d="M322.83 179.937H289.79V207.737H322.83V179.937Z" fill="#262627"/>
<path d="M321.26 206.867H289.79V180.867H321.26C322.615 189.48 322.615 198.253 321.26 206.867Z" fill="#0080FF"/>
<path d="M310.71 219.807H275.71V218.737L281.01 217.417H305.41L310.71 218.737V219.807Z" fill="#263238"/>
<path opacity="0.7" d="M310.71 219.807H275.71V218.737L281.01 217.417H305.41L310.71 218.737V219.807Z" fill="white"/>
<path opacity="0.2" d="M321.26 206.867H289.79V180.867H321.26C322.615 189.48 322.615 198.253 321.26 206.867Z" fill="white"/>
<path d="M332.76 219.787H259.09C258.477 219.787 257.98 220.284 257.98 220.897V238.007C257.98 238.62 258.477 239.117 259.09 239.117H332.76C333.373 239.117 333.87 238.62 333.87 238.007V220.897C333.87 220.284 333.373 219.787 332.76 219.787Z" fill="#263238"/>
<path opacity="0.6" d="M332.76 219.787H259.09C258.477 219.787 257.98 220.284 257.98 220.897V238.007C257.98 238.62 258.477 239.117 259.09 239.117H332.76C333.373 239.117 333.87 238.62 333.87 238.007V220.897C333.87 220.284 333.373 219.787 332.76 219.787Z" fill="white"/>
<path opacity="0.4" d="M332.75 219.787H282.14C281.527 219.787 281.03 220.284 281.03 220.897V238.007C281.03 238.62 281.527 239.117 282.14 239.117H332.75C333.363 239.117 333.86 238.62 333.86 238.007V220.897C333.86 220.284 333.363 219.787 332.75 219.787Z" fill="white"/>
<path opacity="0.2" d="M326.8 223.987C326.66 223.988 326.521 223.962 326.391 223.909C326.262 223.856 326.143 223.779 326.044 223.68C325.944 223.581 325.866 223.464 325.812 223.335C325.758 223.206 325.73 223.067 325.73 222.927C325.73 222.643 325.843 222.371 326.043 222.17C326.244 221.97 326.516 221.857 326.8 221.857C327.082 221.86 327.352 221.973 327.55 222.174C327.749 222.374 327.86 222.645 327.86 222.927C327.86 223.208 327.748 223.478 327.549 223.676C327.351 223.875 327.081 223.987 326.8 223.987Z" fill="#262627"/>
<path opacity="0.2" d="M331.4 221.857H329.27V223.987H331.4V221.857Z" fill="#262627"/>
<path opacity="0.2" d="M300.71 223.757H285.14V229.367H300.71V223.757Z" stroke="#262627" stroke-width="0.5" stroke-miterlimit="10"/>
<path opacity="0.2" d="M300.71 231.167H285.14V236.777H300.71V231.167Z" stroke="#262627" stroke-width="0.5" stroke-miterlimit="10"/>
<path opacity="0.2" d="M295.05 226.067C294.462 225.551 293.707 225.266 292.925 225.266C292.143 225.266 291.387 225.551 290.8 226.067H286.63V227.067H299.22V226.067H295.05Z" fill="#262627"/>
<path opacity="0.2" d="M299.21 233.517H295.22V232.707H290.63V233.517H286.64V234.427H290.63V235.247H295.22V234.427H299.21V233.517Z" fill="#262627"/>
<path d="M286.64 233.977H299.21" stroke="#263238" stroke-width="0.25" stroke-miterlimit="10"/>
<path d="M286.64 226.567H299.21" stroke="#263238" stroke-width="0.25" stroke-miterlimit="10"/>
<path opacity="0.2" d="M287.95 235.427H286.64V235.847H287.95V235.427Z" fill="#262627"/>
<path opacity="0.2" d="M287.95 227.927H286.64V228.347H287.95V227.927Z" fill="#262627"/>
<path opacity="0.2" d="M333.86 232.867H304.88V219.807H304.3V239.117H304.88V233.447H333.86V232.867Z" fill="#262627"/>
<path d="M268.52 239.097V236.297H270.39L268.52 235.207H269.93L268.05 233.987H266.27V232.577H268.33L266.27 231.757V228.707H268.33V226.707H270.39L268.33 226.017V224.597H269.81L268.6 223.387L267.56 222.347H235.6V223.777H233.49L235.83 224.827V226.017H231.52V228.217H229.61L231.52 229.177V231.637H232.88V232.807H235.6V236.297H234.07L235.32 237.547V239.107L268.52 239.097Z" fill="#0080FF"/>
<path opacity="0.7" d="M268.52 239.097V236.297H270.39L268.52 235.207H269.93L268.05 233.987H266.27V232.577H268.33L266.27 231.757V228.707H268.33V226.707H270.39L268.33 226.017V224.597H269.81L268.6 223.387L267.56 222.347H235.6V223.777H233.49L235.83 224.827V226.017H231.52V228.217H229.61L231.52 229.177V231.637H232.88V232.807H235.6V236.297H234.07L235.32 237.547V239.107L268.52 239.097Z" fill="white"/>
<path opacity="0.1" d="M268.52 239.097V236.297H270.39L268.52 235.207H269.93L268.05 233.987H266.27V232.577H268.33L266.27 231.757V228.707H268.33V226.707H270.39L268.33 226.017V224.597H269.81L268.6 223.387L267.56 222.347H250.72V223.777H248.61L250.96 224.827V226.017H246.65V228.217H244.74L246.65 229.177V231.637H248V232.807H250.72V236.297H249.2L250.44 237.547V239.107L268.52 239.097Z" fill="#262627"/>
<path opacity="0.1" d="M235.83 226.017H250.96L235.83 225.467V226.017Z" fill="#262627"/>
<path opacity="0.1" d="M235.6 232.807H250.72L250.79 233.867L235.6 232.807Z" fill="#262627"/>
<path opacity="0.1" d="M232.88 231.637H248L232.88 232.167V231.637Z" fill="#262627"/>
<path opacity="0.1" d="M235.6 236.297H250.72L235.6 235.747V236.297Z" fill="#262627"/>
<path opacity="0.1" d="M235.32 237.547H250.44V238.127L235.32 237.547Z" fill="#262627"/>
<path opacity="0.1" d="M231.52 228.217H246.65L231.52 227.737V228.217Z" fill="#262627"/>
<path opacity="0.1" d="M235.6 223.777H250.72L235.6 223.247V223.777Z" fill="#262627"/>
<path opacity="0.1" d="M268.33 224.597H252.99L268.33 225.067V224.597Z" fill="#262627"/>
<path opacity="0.1" d="M250.96 226.017H268.33L252.58 226.537L250.96 226.017Z" fill="#262627"/>
<path opacity="0.1" d="M246.65 228.217L268.33 228.707V228.217H246.65Z" fill="#262627"/>
<path opacity="0.1" d="M246.65 229.177H257.37L246.65 229.697V229.177Z" fill="#262627"/>
<path opacity="0.1" d="M266.27 231.757L250.72 231.637L266.27 231.287V231.757Z" fill="#262627"/>
<path opacity="0.1" d="M266.27 232.577H250.44L266.27 233.107V232.577Z" fill="#262627"/>
<path opacity="0.1" d="M268.52 235.207H250.96V235.747L268.52 235.207Z" fill="#262627"/>
<path opacity="0.1" d="M268.52 236.297H255.79L268.52 236.657V236.297Z" fill="#262627"/>
<path d="M310.28 361.157H314.94L323.32 244.557H317.14L310.28 361.157Z" fill="#263238"/>
<path opacity="0.1" d="M310.28 361.157H314.94L322.91 250.347L323.32 244.747H317.14L316.8 250.347L310.28 361.157Z" fill="white"/>
<path opacity="0.2" d="M316.8 250.077H322.91L323.32 244.747H317.14L316.8 250.077Z" fill="#262627"/>
<path d="M276.08 361.157H280.74L281.5 244.557H275.32L276.08 361.157Z" fill="#263238"/>
<path opacity="0.1" d="M275.31 244.747L275.44 263.557L276.07 361.157H280.74L281.38 263.557L281.5 244.747H275.31Z" fill="white"/>
<path opacity="0.2" d="M275.31 244.747L275.44 263.767H281.38L281.5 244.747H275.31Z" fill="#262627"/>
<path d="M226.59 361.157H231.26L239.63 244.557H233.45L226.59 361.157Z" fill="#263238"/>
<path opacity="0.1" d="M226.59 361.157H231.26L239.22 250.347L239.63 244.747H233.45L233.11 250.347L226.59 361.157Z" fill="white"/>
<path opacity="0.2" d="M233.11 250.077H239.22L239.63 244.747H233.45L233.11 250.077Z" fill="#262627"/>
<path d="M363.6 361.157H368.26L361.41 244.557H355.23L363.6 361.157Z" fill="#263238"/>
<path opacity="0.1" d="M355.23 244.747L355.64 250.347L363.61 361.157H368.26L361.75 250.347L361.42 244.747H355.23Z" fill="white"/>
<path opacity="0.2" d="M361.42 244.747H355.23L355.64 250.077H361.75L361.42 244.747Z" fill="#262627"/>
<path d="M364.67 247.477L230.19 247.477C229.755 247.477 229.337 247.304 229.03 246.997C228.722 246.689 228.55 246.272 228.55 245.837V241.647L366.31 241.647V245.837C366.31 246.272 366.137 246.689 365.829 246.997C365.522 247.304 365.105 247.477 364.67 247.477Z" fill="#263238"/>
<path opacity="0.4" d="M364.67 247.477L230.19 247.477C229.755 247.477 229.337 247.304 229.03 246.997C228.722 246.689 228.55 246.272 228.55 245.837V241.647L366.31 241.647V245.837C366.31 246.272 366.137 246.689 365.829 246.997C365.522 247.304 365.105 247.477 364.67 247.477Z" fill="white"/>
<path opacity="0.2" d="M228.54 244.557L366.31 244.557V241.637L228.54 241.637V244.557Z" fill="#262627"/>
<path d="M225.66 242.407H369.2C369.637 242.407 370.057 242.233 370.367 241.923C370.676 241.614 370.85 241.194 370.85 240.757C370.85 240.541 370.807 240.326 370.724 240.127C370.641 239.927 370.519 239.746 370.366 239.594C370.213 239.441 370.031 239.321 369.83 239.239C369.63 239.157 369.416 239.115 369.2 239.117H225.66C225.444 239.115 225.229 239.157 225.029 239.239C224.829 239.321 224.647 239.441 224.494 239.594C224.34 239.746 224.219 239.927 224.136 240.127C224.053 240.326 224.01 240.541 224.01 240.757C224.01 241.194 224.184 241.614 224.493 241.923C224.802 242.233 225.222 242.407 225.66 242.407Z" fill="#263238"/>
<path opacity="0.4" d="M225.66 242.407H369.2C369.637 242.407 370.057 242.233 370.367 241.923C370.676 241.614 370.85 241.194 370.85 240.757C370.85 240.541 370.807 240.326 370.724 240.127C370.641 239.927 370.519 239.746 370.366 239.594C370.213 239.441 370.031 239.321 369.83 239.239C369.63 239.157 369.416 239.115 369.2 239.117H225.66C225.444 239.115 225.229 239.157 225.029 239.239C224.829 239.321 224.647 239.441 224.494 239.594C224.34 239.746 224.219 239.927 224.136 240.127C224.053 240.326 224.01 240.541 224.01 240.757C224.01 241.194 224.184 241.614 224.493 241.923C224.802 242.233 225.222 242.407 225.66 242.407Z" fill="white"/>
<path d="M353.8 239.117H300.91V235.917H340.12L353.8 237.917V239.117Z" fill="#263238"/>
<path opacity="0.6" d="M353.8 239.117H300.91V235.917H340.12L353.8 237.917V239.117Z" fill="white"/>
<path opacity="0.2" d="M299.9 235.917L315.63 238.127H353.8L340.12 235.917H300.91" fill="white"/>
<path d="M188.63 297.687C188.63 297.687 194.53 292.767 199.63 297.687C204.73 302.607 205.63 333.097 205.63 333.097" stroke="#0080FF" stroke-miterlimit="10"/>
<path d="M206.05 338.987C206.05 338.987 202.57 303.207 215.67 288.167" stroke="#0080FF" stroke-miterlimit="10"/>
<path d="M204.8 335.217C204.8 335.217 207.48 294.487 197.65 285.447" stroke="#0080FF" stroke-miterlimit="10"/>
<path d="M206.05 335.217C206.05 335.217 206.28 308.297 213.58 304.117C220.88 299.937 224.58 313.577 224.58 313.577" stroke="#0080FF" stroke-miterlimit="10"/>
<path d="M203.16 335.217C203.16 335.217 204.35 314.557 198.7 307.217C193.05 299.877 187.08 310.377 187.08 310.377" stroke="#0080FF" stroke-miterlimit="10"/>
<path d="M205.13 337.987C205.13 337.987 201.48 289.657 207.53 281.467" stroke="#0080FF" stroke-miterlimit="10"/>
<path d="M219.83 308.067C219.83 308.067 216.19 309.407 217.27 312.577C218.35 315.747 229.87 320.957 229.87 320.957C229.87 320.957 234.69 316.537 230.26 309.357C225.83 302.177 219.93 305.767 219.83 308.067Z" fill="#0080FF"/>
<path opacity="0.2" d="M219.83 308.067C219.83 308.067 216.19 309.407 217.27 312.577C218.35 315.747 229.87 320.957 229.87 320.957C229.87 320.957 234.69 316.537 230.26 309.357C225.83 302.177 219.93 305.767 219.83 308.067Z" fill="#262627"/>
<path d="M204 302.007C204 302.007 207.88 301.837 208.1 305.187C208.32 308.537 199.7 317.767 199.7 317.767C199.7 317.767 193.55 315.547 194.87 307.207C196.19 298.867 203 299.947 204 302.007Z" fill="#0080FF"/>
<path opacity="0.2" d="M204 302.007C204 302.007 207.88 301.837 208.1 305.187C208.32 308.537 199.7 317.767 199.7 317.767C199.7 317.767 193.55 315.547 194.87 307.207C196.19 298.867 203 299.947 204 302.007Z" fill="#262627"/>
<path d="M200.72 286.007C200.72 286.007 203.31 285.737 203.1 284.157C202.89 282.577 193.1 278.527 187.24 285.087C187.24 285.087 190.96 291.467 196.33 291.557C201.7 291.647 200.72 286.007 200.72 286.007Z" fill="#0080FF"/>
<path opacity="0.2" d="M200.72 286.007C200.72 286.007 203.31 285.737 203.1 284.157C202.89 282.577 193.1 278.527 187.24 285.087C187.24 285.087 190.96 291.467 196.33 291.557C201.7 291.647 200.72 286.007 200.72 286.007Z" fill="#262627"/>
<path d="M205.54 282.187C205.54 282.187 203.2 283.317 202.54 281.867C201.88 280.417 208.09 271.777 216.54 274.277C216.54 274.277 216.76 281.657 212.24 284.567C207.72 287.477 205.54 282.187 205.54 282.187Z" fill="#0080FF"/>
<path opacity="0.2" d="M205.54 282.187C205.54 282.187 203.2 283.317 202.54 281.867C201.88 280.417 208.09 271.777 216.54 274.277C216.54 274.277 216.76 281.657 212.24 284.567C207.72 287.477 205.54 282.187 205.54 282.187Z" fill="#262627"/>
<path d="M193.3 306.768C193.3 306.768 195.08 305.327 193.16 304.617C191.24 303.907 181.79 304.117 181.69 313.477C181.69 313.477 192.69 315.298 194.05 311.738C195.41 308.178 193.3 306.768 193.3 306.768Z" fill="#0080FF"/>
<path opacity="0.2" d="M193.3 306.768C193.3 306.768 195.08 305.327 193.16 304.617C191.24 303.907 181.79 304.117 181.69 313.477C181.69 313.477 192.69 315.298 194.05 311.738C195.41 308.178 193.3 306.768 193.3 306.768Z" fill="#262627"/>
<path d="M215.73 285.777C215.73 285.777 213.95 284.337 215.88 283.627C217.81 282.917 227.25 283.127 227.35 292.487C227.35 292.487 216.35 294.317 214.98 290.747C213.61 287.177 215.73 285.777 215.73 285.777Z" fill="#0080FF"/>
<path opacity="0.2" d="M215.73 285.777C215.73 285.777 213.95 284.337 215.88 283.627C217.81 282.917 227.25 283.127 227.35 292.487C227.35 292.487 216.35 294.317 214.98 290.747C213.61 287.177 215.73 285.777 215.73 285.777Z" fill="#262627"/>
<path d="M209.92 293.317C209.92 293.317 209.76 291.567 211.17 292.247C212.58 292.927 217.51 298.247 212.41 303.247C212.41 303.247 205.54 298.157 206.77 295.507C208 292.857 209.92 293.317 209.92 293.317Z" fill="#0080FF"/>
<path opacity="0.2" d="M209.92 293.317C209.92 293.317 209.76 291.567 211.17 292.247C212.58 292.927 217.51 298.247 212.41 303.247C212.41 303.247 205.54 298.157 206.77 295.507C208 292.857 209.92 293.317 209.92 293.317Z" fill="#262627"/>
<path d="M191.7 295.807C191.7 295.807 192.77 294.407 191.21 294.237C189.65 294.067 182.65 295.937 184.28 302.917C184.28 302.917 192.8 302.277 193.17 299.377C193.54 296.477 191.7 295.807 191.7 295.807Z" fill="#0080FF"/>
<path opacity="0.2" d="M191.7 295.807C191.7 295.807 192.77 294.407 191.21 294.237C189.65 294.067 182.65 295.937 184.28 302.917C184.28 302.917 192.8 302.277 193.17 299.377C193.54 296.477 191.7 295.807 191.7 295.807Z" fill="#262627"/>
<path d="M220.51 361.157H191.25L188.1 329.117H223.67L220.51 361.157Z" fill="#0080FF"/>
<path d="M225.23 325.587H186.54V332.657H225.23V325.587Z" fill="#0080FF"/>
<path opacity="0.2" d="M225.23 325.587H186.54V332.657H225.23V325.587Z" fill="white"/>
<path d="M361.33 234.067L354.85 235.067C353.377 234.596 351.864 234.262 350.33 234.067C348.666 233.931 346.994 233.931 345.33 234.067C345.33 234.067 342.4 235.167 342.4 237.977C342.4 237.977 349.24 239.817 351.87 238.717L361.34 237.977L361.33 234.067Z" fill="#EBB376"/>
<path d="M376.7 209.407C372.7 213.567 369.92 229.707 369.19 230.807C368.46 231.907 354.52 233.917 354.52 233.917C354.52 233.917 353.06 236.917 354.52 239.477C354.52 239.477 371.79 238.687 373.88 237.587C375.97 236.487 381.11 224.437 381.11 224.437C381.362 221.652 381.132 218.844 380.43 216.137C379.27 211.007 376.7 209.407 376.7 209.407Z" fill="#0080FF"/>
<path opacity="0.6" d="M376.7 209.407C372.7 213.567 369.92 229.707 369.19 230.807C368.46 231.907 354.52 233.917 354.52 233.917C354.52 233.917 353.06 236.917 354.52 239.477C354.52 239.477 371.79 238.687 373.88 237.587C375.97 236.487 381.11 224.437 381.11 224.437C381.362 221.652 381.132 218.844 380.43 216.137C379.27 211.007 376.7 209.407 376.7 209.407Z" fill="white"/>
<path d="M345.88 186.138C346.03 187.288 345.75 188.278 345.25 188.348C344.75 188.418 344.25 187.528 344.07 186.348C343.89 185.168 344.2 184.208 344.7 184.138C345.2 184.068 345.73 184.988 345.88 186.138Z" stroke="#263238" stroke-width="0.25" stroke-miterlimit="10"/>
<path d="M346.08 187.197C345.57 188.553 344.898 189.842 344.08 191.037C344.375 191.353 344.751 191.581 345.168 191.695C345.584 191.81 346.025 191.807 346.44 191.687L346.08 187.197Z" fill="#D58745"/>
<path d="M345 186.067C345.08 186.767 345.52 187.287 346 187.237C346.48 187.187 346.78 186.577 346.7 185.877C346.62 185.177 346.17 184.657 345.7 184.717C345.23 184.777 344.91 185.357 345 186.067Z" fill="#2E353A"/>
<path d="M345.16 183.277C345.368 183.249 345.58 183.271 345.778 183.34C345.976 183.41 346.155 183.525 346.3 183.677" stroke="#2E353A" stroke-width="0.72468" stroke-linecap="round" stroke-linejoin="round"/>
<path d="M347.91 195.067C348.08 195.377 348.25 195.677 348.44 195.957C349.531 197.578 351.085 198.833 352.9 199.557C353.359 199.737 353.83 199.884 354.31 199.997C356.157 200.458 358.103 200.302 359.853 199.552C361.603 198.803 363.059 197.502 364 195.847C366.52 191.577 365.44 187.657 364.13 180.847C363.853 179.261 363.174 177.773 362.159 176.524C361.143 175.274 359.825 174.306 358.329 173.71C356.833 173.115 355.21 172.912 353.614 173.122C352.017 173.331 350.501 173.946 349.21 174.907C343.34 179.237 345 189.397 347.91 195.067Z" fill="#EBB376"/>
<path opacity="0.2" d="M352.9 199.518C353.359 199.697 353.83 199.844 354.31 199.958C355.577 200.273 356.899 200.3 358.178 200.037C359.457 199.774 360.66 199.227 361.7 198.438C361.204 197.696 360.612 197.023 359.94 196.438C357.346 196.764 354.901 197.834 352.9 199.518Z" fill="#262627"/>
<path d="M372.3 204.207C369.77 208.017 357.65 209.517 357.65 209.517C357.65 209.517 352.28 209.417 352.94 207.577C355.77 206.337 356.86 204.577 357 202.677C357.053 201.502 356.866 200.328 356.45 199.227C356.24 198.604 355.997 197.993 355.72 197.397L363.81 187.517C361.7 198.437 368.2 201.487 372.3 204.207Z" fill="#EBB376"/>
<path d="M346.05 174.527C348.34 170.927 350.38 171.527 350.38 171.527C351.84 168.527 360.43 168.387 364.79 171.347C369.15 174.307 370.67 179.887 370.38 184.347C369.96 190.777 365.92 197.347 365.92 197.347C360.84 198.697 356.59 197.587 356.27 194.897C355.95 192.207 353.27 190.217 353.27 190.217C350.77 191.067 348.51 188.277 348.51 188.277C348.51 188.277 345.68 185.787 346.44 182.277C347.2 178.767 344.11 177.567 346.05 174.527Z" fill="#263238"/>
<path d="M344.07 186.377L349.84 186.257" stroke="#263238" stroke-width="0.25" stroke-miterlimit="10"/>
<path d="M354.13 188.417C354.16 189.078 354.044 189.737 353.79 190.347C353.536 190.957 353.15 191.504 352.66 191.947C351.45 192.867 350.07 191.177 349.76 189.117C349.5 187.297 349.76 184.557 351.32 184.527C352.88 184.497 354.15 186.507 354.13 188.417Z" fill="#EBB376"/>
<path d="M355.12 207.578C355.12 207.578 357.07 198.797 368.86 198.877L371.86 203.228L355.12 207.578Z" fill="#0080FF"/>
<path opacity="0.8" d="M355.12 207.578C355.12 207.578 357.07 198.797 368.86 198.877L371.86 203.228L355.12 207.578Z" fill="white"/>
<path d="M364.15 255.188L361.21 246.308C361.21 246.308 359.1 229.868 348.37 209.148C348.37 209.148 361.28 199.978 375.59 201.348C386.59 202.398 396.97 230.628 400.21 252.968L364.15 255.188Z" fill="#0080FF"/>
<path opacity="0.9" d="M400.21 252.968L364.21 255.198L361.21 246.318C360.829 243.766 360.315 241.236 359.67 238.738C358.622 234.563 357.364 230.445 355.9 226.398C353.777 220.486 351.261 214.723 348.37 209.148C348.37 209.148 361.28 199.978 375.59 201.348C386.61 202.398 397 230.618 400.21 252.968Z" fill="white"/>
<path opacity="0.2" d="M359.67 239.517C358.62 235.537 357.361 231.615 355.9 227.767C356.502 226.479 357.387 225.344 358.49 224.447C358.49 224.447 361.88 235.477 359.67 239.517Z" fill="#262627"/>
<path d="M331 236.587L325.54 235.707C324.068 235.231 322.555 234.896 321.02 234.707C319.356 234.566 317.683 234.566 316.02 234.707C316.02 234.707 313.09 235.807 313.09 238.617C313.09 238.617 319.93 240.447 322.56 239.347L330.61 241.167L331 236.587Z" fill="#EBB376"/>
<path d="M348.37 209.407C345.82 212.197 347.31 235.107 346.48 236.677C345.65 238.247 326.57 235.077 326.57 235.077L325.32 240.747C325.32 240.747 347.74 247.337 351.86 247.417C355.98 247.497 358.49 223.217 358.49 223.217C357.828 220.44 356.606 217.827 354.9 215.537C353.204 213.036 350.973 210.942 348.37 209.407Z" fill="#0080FF"/>
<path opacity="0.9" d="M348.37 209.407C345.82 212.197 347.31 235.107 346.48 236.677C345.65 238.247 326.57 235.077 326.57 235.077L325.32 240.747C325.32 240.747 347.74 247.337 351.86 247.417C355.98 247.497 358.49 223.217 358.49 223.217C357.828 220.44 356.606 217.827 354.9 215.537C353.204 213.036 350.973 210.942 348.37 209.407Z" fill="white"/>
<path d="M371.9 353.067L379.78 352.577C379.911 352.563 380.043 352.601 380.146 352.684C380.249 352.766 380.315 352.886 380.33 353.017L381.11 359.237C381.129 359.564 381.02 359.885 380.805 360.132C380.59 360.379 380.286 360.531 379.96 360.557C377.2 360.687 375.88 360.607 372.41 360.797C369.331 361.116 366.233 361.216 363.14 361.097C360.2 360.807 360.56 357.907 361.83 357.777C365.105 357.149 368.163 355.689 370.71 353.537C371.047 353.258 371.464 353.093 371.9 353.067Z" fill="#263238"/>
<path d="M357.09 316.337C361.56 333.337 368.6 355.217 368.6 355.217L381 354.267C381 354.267 374.29 324.717 372.45 306.577C371.31 295.387 371.45 286.117 374.69 285.397C376.76 284.947 381.58 284.957 387.77 285.107V262.067C370.41 265.627 353.14 272.347 351.83 277.737C350 285.327 353.16 301.387 357.09 316.337Z" fill="#0080FF"/>
<path opacity="0.2" d="M357.09 316.337C361.71 313.407 367.09 309.977 372.41 306.577C371.27 295.387 371.41 286.117 374.65 285.397C376.72 284.947 381.54 284.957 387.73 285.107V262.067C370.37 265.627 353.1 272.347 351.79 277.737C350 285.327 353.16 301.387 357.09 316.337Z" fill="#262627"/>
<path opacity="0.2" d="M357.09 316.337C361.56 333.337 368.6 355.217 368.6 355.217L381 354.267C381 354.267 374.29 324.717 372.45 306.577C371.31 295.387 371.45 286.117 374.69 285.397C376.76 284.947 381.58 284.957 387.77 285.107V262.067C370.41 265.627 353.14 272.347 351.83 277.737C350 285.327 353.16 301.387 357.09 316.337Z" fill="white"/>
<path d="M331.72 353.067L339.6 352.577C339.731 352.563 339.862 352.601 339.966 352.684C340.069 352.766 340.135 352.886 340.15 353.017L340.93 359.237C340.949 359.564 340.84 359.885 340.625 360.132C340.41 360.379 340.106 360.531 339.78 360.557C337.02 360.687 335.7 360.607 332.23 360.797C329.151 361.116 326.053 361.216 322.96 361.097C320.02 360.807 320.38 357.907 321.65 357.777C324.925 357.149 327.983 355.689 330.53 353.537C330.867 353.258 331.283 353.093 331.72 353.067Z" fill="#263238"/>
<path d="M363.86 259.787L362.77 251.067L398.14 245.247C398.14 245.247 409.71 268.167 404.05 279.397C398.85 289.707 343.56 283.567 335.05 285.397C326.54 287.227 340.84 354.117 340.84 354.117L328.48 355.057C328.48 355.057 308.26 293.947 312.19 277.737C313.9 270.667 343.05 261.297 363.86 259.787Z" fill="#0080FF"/>
<path opacity="0.2" d="M363.86 259.787L362.77 251.067L398.14 245.247C398.14 245.247 409.71 268.167 404.05 279.397C398.85 289.707 343.56 283.567 335.05 285.397C326.54 287.227 340.84 354.117 340.84 354.117L328.48 355.057C328.48 355.057 308.26 293.947 312.19 277.737C313.9 270.667 343.05 261.297 363.86 259.787Z" fill="white"/>
<path d="M399.44 249.197L383.05 251.337L382.52 248.927L398.94 246.537L399.44 249.197Z" fill="#262627"/>
<path d="M381.15 248.938L381.35 251.338L366.2 253.428V251.048L381.15 248.938Z" fill="#262627"/>
<path d="M365.26 251.188V253.428L363.06 253.717V251.548L365.26 251.188Z" fill="#262627"/>
<path d="M414.18 289.097H344.11V284.637C344.11 282.836 344.825 281.109 346.098 279.836C347.372 278.563 349.099 277.847 350.9 277.847H407.39C409.19 277.847 410.918 278.563 412.191 279.836C413.464 281.109 414.18 282.836 414.18 284.637V289.097Z" fill="#0080FF"/>
<path opacity="0.4" d="M414.18 289.097H344.11V284.637C344.11 282.836 344.825 281.109 346.098 279.836C347.372 278.563 349.099 277.847 350.9 277.847H407.39C409.19 277.847 410.918 278.563 412.191 279.836C413.464 281.109 414.18 282.836 414.18 284.637V289.097Z" fill="white"/>
<path d="M391.2 249.987H352.62C350.62 249.987 349.17 252.137 349.62 254.387L356.52 289.097H358.11L352.24 258.677C351.8 256.437 353.24 254.297 355.24 254.297H390.41L391.2 249.987Z" fill="#263238"/>
<path d="M374.65 290.317V319.647C374.65 320.098 374.829 320.531 375.148 320.849C375.467 321.168 375.899 321.347 376.35 321.347H383.55C384.001 321.347 384.433 321.168 384.752 320.849C385.071 320.531 385.25 320.098 385.25 319.647V290.317H374.65Z" fill="#263238"/>
<path d="M414.34 358.067C414.34 357.45 414.523 356.847 414.866 356.334C415.208 355.821 415.696 355.421 416.266 355.185C416.836 354.949 417.463 354.887 418.069 355.007C418.674 355.128 419.23 355.425 419.666 355.861C420.102 356.297 420.4 356.853 420.52 357.459C420.64 358.064 420.578 358.691 420.342 359.261C420.106 359.831 419.706 360.319 419.193 360.661C418.68 361.004 418.077 361.187 417.46 361.187C416.632 361.187 415.839 360.859 415.254 360.273C414.669 359.688 414.34 358.895 414.34 358.067Z" fill="#263238"/>
<path opacity="0.2" d="M415.9 358.067C415.9 357.759 415.991 357.457 416.163 357.201C416.334 356.944 416.578 356.744 416.863 356.626C417.148 356.508 417.462 356.477 417.764 356.537C418.067 356.597 418.345 356.746 418.563 356.964C418.781 357.182 418.93 357.46 418.99 357.763C419.05 358.066 419.019 358.379 418.901 358.664C418.783 358.949 418.583 359.193 418.327 359.364C418.07 359.536 417.768 359.627 417.46 359.627C417.046 359.627 416.649 359.463 416.357 359.17C416.064 358.878 415.9 358.481 415.9 358.067Z" fill="white"/>
<path d="M339.33 358.067C339.33 357.45 339.513 356.847 339.855 356.334C340.198 355.821 340.686 355.421 341.256 355.185C341.826 354.949 342.453 354.887 343.058 355.007C343.664 355.128 344.219 355.425 344.656 355.861C345.092 356.297 345.389 356.853 345.51 357.459C345.63 358.064 345.568 358.691 345.332 359.261C345.096 359.831 344.696 360.319 344.183 360.661C343.67 361.004 343.067 361.187 342.45 361.187C341.622 361.187 340.829 360.859 340.243 360.273C339.658 359.688 339.33 358.895 339.33 358.067Z" fill="#263238"/>
<path opacity="0.2" d="M340.89 358.067C340.89 357.759 340.981 357.457 341.153 357.201C341.324 356.944 341.568 356.744 341.853 356.626C342.138 356.508 342.451 356.477 342.754 356.537C343.057 356.597 343.335 356.746 343.553 356.964C343.771 357.182 343.919 357.46 343.98 357.763C344.04 358.066 344.009 358.379 343.891 358.664C343.773 358.949 343.573 359.193 343.316 359.364C343.06 359.536 342.758 359.627 342.45 359.627C342.036 359.627 341.639 359.463 341.347 359.17C341.054 358.878 340.89 358.481 340.89 358.067Z" fill="white"/>
<path d="M377.37 344.367V310.837H382.53V344.367C402.61 344.877 414.81 351.897 417.25 353.437C417.387 353.528 417.501 353.651 417.579 353.796C417.658 353.941 417.699 354.103 417.7 354.267V357.067C417.7 357.333 417.595 357.587 417.407 357.775C417.219 357.962 416.965 358.067 416.7 358.067C416.525 358.066 416.354 358.02 416.203 357.932C416.052 357.844 415.927 357.719 415.84 357.567L414.65 355.487C404.251 352.165 393.425 350.37 382.51 350.157V355.667C382.511 355.835 382.479 356.001 382.416 356.156C382.353 356.312 382.26 356.453 382.141 356.572C382.023 356.691 381.883 356.785 381.728 356.85C381.574 356.914 381.408 356.947 381.24 356.947H378.63C378.29 356.947 377.965 356.813 377.725 356.573C377.485 356.332 377.35 356.007 377.35 355.667V350.157C366.438 350.371 355.616 352.166 345.22 355.487L344.02 357.567C343.934 357.717 343.81 357.842 343.661 357.929C343.512 358.017 343.343 358.065 343.17 358.067C342.905 358.067 342.65 357.962 342.463 357.775C342.275 357.587 342.17 357.333 342.17 357.067V354.267C342.172 354.102 342.215 353.939 342.295 353.794C342.375 353.65 342.49 353.527 342.63 353.437C345.1 351.897 357.3 344.877 377.37 344.367Z" fill="#263238"/>
<path d="M378.27 361.147H381.65V354.917H378.27V361.147Z" fill="#263238"/>
<path opacity="0.2" d="M385.25 290.317H374.65V302.507H385.25V290.317Z" fill="#262627"/>
<path d="M342.2 287.297V290.797C342.169 291.238 342.314 291.673 342.602 292.009C342.891 292.344 343.299 292.552 343.74 292.587H414.56C415 292.552 415.407 292.343 415.694 292.008C415.981 291.672 416.123 291.237 416.09 290.797V287.297C416.12 286.858 415.977 286.424 415.691 286.089C415.405 285.755 414.999 285.546 414.56 285.507H343.74C343.3 285.546 342.893 285.754 342.605 286.089C342.318 286.423 342.172 286.857 342.2 287.297Z" fill="#263238"/>
<path d="M374.78 289.067H416.09C416.09 289.067 429.22 267.517 429.22 231.887V218.837C429.201 216.24 428.152 213.756 426.304 211.931C424.455 210.107 421.957 209.091 419.36 209.107H401.84C399.291 209.093 396.837 210.073 394.999 211.839C393.162 213.606 392.086 216.02 392 218.567C391.47 236.917 388.73 276.667 374.78 289.067Z" fill="#263238"/>
<path opacity="0.2" d="M383.87 289.067H414.23C414.802 289.071 415.364 288.918 415.856 288.626C416.348 288.333 416.75 287.912 417.02 287.407C420.02 281.717 429.22 261.737 429.22 231.887V218.837C429.201 216.24 428.152 213.756 426.303 211.931C424.455 210.107 421.957 209.091 419.36 209.107H404.22C401.669 209.09 399.212 210.069 397.373 211.836C395.533 213.603 394.456 216.018 394.37 218.567C393.91 234.957 391.68 268.437 381.26 284.257C380.953 284.727 380.779 285.271 380.756 285.831C380.734 286.391 380.863 286.947 381.13 287.44C381.398 287.933 381.794 288.345 382.276 288.631C382.758 288.918 383.309 289.068 383.87 289.067Z" fill="white"/>
<path opacity="0.2" d="M342.2 287.297V290.797C342.169 291.238 342.314 291.673 342.602 292.009C342.891 292.344 343.299 292.552 343.74 292.587H375.47C376.065 292.539 376.617 292.257 377.007 291.804C377.396 291.351 377.591 290.763 377.55 290.167V287.927C377.591 287.331 377.396 286.743 377.007 286.29C376.617 285.837 376.065 285.556 375.47 285.507H343.74C343.3 285.546 342.893 285.754 342.605 286.089C342.318 286.423 342.172 286.857 342.2 287.297Z" fill="#262627"/>
</g>
<defs>
<clipPath id="clip0_491_30746">
<rect width="500" height="372.61" fill="white" transform="translate(0 0.0170898)"/>
</clipPath>
</defs>
</svg>
