<svg width="1048" height="390" viewBox="0 0 1048 390" fill="none" xmlns="http://www.w3.org/2000/svg">
<path d="M78.821 286.318H1040.76" stroke="#262627"/>
<path d="M78.821 296.822V286.318" stroke="#262627"/>
<path d="M78.8211 323.858C78.1791 323.858 77.6322 323.683 77.1805 323.333C76.7288 322.981 76.3836 322.471 76.145 321.804C75.9063 321.133 75.787 320.324 75.787 319.375C75.787 318.431 75.9063 317.626 76.145 316.958C76.3864 316.288 76.733 315.777 77.1847 315.424C77.6393 315.069 78.1847 314.892 78.8211 314.892C79.4575 314.892 80.0015 315.069 80.4532 315.424C80.9077 315.777 81.2543 316.288 81.493 316.958C81.7345 317.626 81.8552 318.431 81.8552 319.375C81.8552 320.324 81.7359 321.133 81.4972 321.804C81.2586 322.471 80.9134 322.981 80.4617 323.333C80.01 323.683 79.4631 323.858 78.8211 323.858ZM78.8211 322.92C79.4575 322.92 79.9518 322.613 80.3041 322C80.6563 321.386 80.8325 320.511 80.8325 319.375C80.8325 318.619 80.7515 317.975 80.5896 317.444C80.4305 316.913 80.2004 316.508 79.8992 316.23C79.6009 315.951 79.2416 315.812 78.8211 315.812C78.1904 315.812 77.6975 316.123 77.3424 316.745C76.9873 317.365 76.8097 318.241 76.8097 319.375C76.8097 320.13 76.8893 320.772 77.0484 321.301C77.2075 321.829 77.4362 322.231 77.7345 322.507C78.0356 322.782 78.3978 322.92 78.8211 322.92Z" fill="#262627"/>
<path d="M111.991 296.822V286.318" stroke="#262627"/>
<path d="M113.174 315.011V323.738H112.117V316.119H112.066L109.935 317.534V316.46L112.117 315.011H113.174Z" fill="#262627"/>
<path d="M145.162 296.822V286.318" stroke="#262627"/>
<path d="M142.432 323.738V322.971L145.313 319.818C145.651 319.449 145.93 319.127 146.148 318.855C146.367 318.579 146.529 318.321 146.634 318.079C146.742 317.835 146.796 317.579 146.796 317.312C146.796 317.005 146.722 316.74 146.574 316.515C146.43 316.291 146.231 316.118 145.978 315.995C145.725 315.873 145.441 315.812 145.126 315.812C144.79 315.812 144.498 315.882 144.248 316.021C144.001 316.157 143.809 316.349 143.672 316.596C143.539 316.843 143.472 317.133 143.472 317.466H142.466C142.466 316.954 142.584 316.505 142.82 316.119C143.056 315.733 143.377 315.431 143.783 315.216C144.192 315 144.651 314.892 145.16 314.892C145.671 314.892 146.124 315 146.519 315.216C146.914 315.431 147.224 315.723 147.448 316.089C147.672 316.456 147.785 316.863 147.785 317.312C147.785 317.633 147.726 317.947 147.61 318.254C147.496 318.558 147.297 318.897 147.013 319.272C146.732 319.645 146.341 320.099 145.841 320.636L143.881 322.733V322.801H147.938V323.738H142.432Z" fill="#262627"/>
<path d="M178.332 296.822V286.318" stroke="#262627"/>
<path d="M178.364 323.858C177.802 323.858 177.3 323.761 176.86 323.568C176.422 323.375 176.074 323.106 175.816 322.762C175.56 322.416 175.421 322.014 175.398 321.556H176.472C176.495 321.838 176.591 322.081 176.762 322.285C176.932 322.487 177.155 322.643 177.431 322.754C177.706 322.865 178.012 322.92 178.347 322.92C178.722 322.92 179.055 322.855 179.344 322.724C179.634 322.593 179.861 322.412 180.026 322.179C180.191 321.946 180.273 321.676 180.273 321.369C180.273 321.048 180.194 320.765 180.035 320.521C179.876 320.274 179.643 320.081 179.336 319.941C179.029 319.802 178.654 319.733 178.211 319.733H177.512V318.795H178.211C178.557 318.795 178.861 318.733 179.123 318.608C179.387 318.483 179.593 318.306 179.741 318.079C179.891 317.852 179.966 317.585 179.966 317.278C179.966 316.983 179.901 316.725 179.77 316.507C179.64 316.288 179.455 316.118 179.216 315.995C178.981 315.873 178.702 315.812 178.381 315.812C178.08 315.812 177.796 315.868 177.529 315.978C177.265 316.086 177.049 316.244 176.881 316.451C176.714 316.656 176.623 316.903 176.608 317.193H175.586C175.603 316.735 175.741 316.335 175.999 315.991C176.258 315.645 176.596 315.375 177.013 315.181C177.434 314.988 177.895 314.892 178.398 314.892C178.938 314.892 179.401 315.001 179.787 315.22C180.174 315.436 180.471 315.721 180.678 316.076C180.885 316.431 180.989 316.815 180.989 317.227C180.989 317.718 180.86 318.137 180.601 318.484C180.346 318.831 179.998 319.071 179.557 319.204V319.272C180.108 319.363 180.539 319.598 180.849 319.975C181.158 320.35 181.313 320.815 181.313 321.369C181.313 321.843 181.184 322.27 180.925 322.647C180.67 323.022 180.32 323.318 179.877 323.534C179.434 323.75 178.93 323.858 178.364 323.858Z" fill="#262627"/>
<path d="M211.503 296.822V286.318" stroke="#262627"/>
<path d="M208.352 321.949V321.079L212.187 315.011H212.818V316.358H212.392L209.494 320.943V321.011H214.659V321.949H208.352ZM212.46 323.738V321.684V321.279V315.011H213.466V323.738H212.46Z" fill="#262627"/>
<path d="M244.673 296.822V286.318" stroke="#262627"/>
<path d="M244.653 323.858C244.153 323.858 243.703 323.758 243.302 323.559C242.902 323.36 242.581 323.088 242.339 322.741C242.098 322.395 241.966 322 241.943 321.556H242.966C243.005 321.951 243.184 322.278 243.503 322.537C243.824 322.792 244.207 322.92 244.653 322.92C245.011 322.92 245.329 322.836 245.608 322.669C245.889 322.501 246.109 322.271 246.268 321.978C246.43 321.683 246.511 321.349 246.511 320.977C246.511 320.596 246.427 320.257 246.26 319.958C246.095 319.657 245.868 319.42 245.578 319.247C245.288 319.074 244.957 318.985 244.585 318.983C244.318 318.98 244.044 319.021 243.763 319.106C243.481 319.189 243.25 319.295 243.068 319.426L242.079 319.306L242.608 315.011H247.142V315.949H243.494L243.187 318.522H243.238C243.417 318.38 243.642 318.262 243.912 318.169C244.182 318.075 244.463 318.028 244.755 318.028C245.29 318.028 245.765 318.156 246.183 318.412C246.603 318.664 246.933 319.011 247.172 319.451C247.413 319.892 247.534 320.395 247.534 320.96C247.534 321.517 247.409 322.014 247.159 322.451C246.912 322.886 246.571 323.23 246.136 323.483C245.701 323.733 245.207 323.858 244.653 323.858Z" fill="#262627"/>
<path d="M277.843 296.822V286.318" stroke="#262627"/>
<path d="M277.9 323.858C277.542 323.852 277.184 323.784 276.826 323.653C276.468 323.522 276.142 323.302 275.846 322.993C275.551 322.68 275.314 322.258 275.135 321.727C274.956 321.193 274.866 320.522 274.866 319.716C274.866 318.943 274.939 318.258 275.083 317.662C275.228 317.062 275.439 316.558 275.714 316.149C275.99 315.737 276.322 315.424 276.711 315.211C277.103 314.998 277.545 314.892 278.037 314.892C278.525 314.892 278.96 314.99 279.341 315.186C279.724 315.379 280.037 315.649 280.278 315.995C280.52 316.342 280.676 316.741 280.747 317.193H279.707C279.61 316.801 279.423 316.475 279.145 316.217C278.866 315.958 278.497 315.829 278.037 315.829C277.36 315.829 276.828 316.123 276.439 316.711C276.052 317.299 275.858 318.125 275.855 319.187H275.923C276.082 318.946 276.271 318.74 276.49 318.569C276.711 318.396 276.956 318.262 277.223 318.169C277.49 318.075 277.772 318.028 278.071 318.028C278.571 318.028 279.028 318.153 279.443 318.403C279.858 318.65 280.19 318.993 280.44 319.43C280.69 319.865 280.815 320.363 280.815 320.926C280.815 321.466 280.694 321.96 280.453 322.409C280.211 322.855 279.872 323.21 279.434 323.474C279 323.735 278.488 323.863 277.9 323.858ZM277.9 322.92C278.258 322.92 278.579 322.831 278.863 322.652C279.15 322.473 279.376 322.233 279.541 321.931C279.708 321.63 279.792 321.295 279.792 320.926C279.792 320.565 279.711 320.237 279.549 319.941C279.39 319.643 279.17 319.406 278.889 319.23C278.61 319.054 278.292 318.966 277.934 318.966C277.664 318.966 277.413 319.02 277.18 319.127C276.947 319.233 276.743 319.377 276.566 319.562C276.393 319.747 276.257 319.958 276.157 320.197C276.058 320.433 276.008 320.681 276.008 320.943C276.008 321.289 276.089 321.613 276.251 321.914C276.416 322.216 276.64 322.458 276.924 322.643C277.211 322.828 277.537 322.92 277.9 322.92Z" fill="#262627"/>
<path d="M311.014 296.822V286.318" stroke="#262627"/>
<path d="M308.762 323.738L312.665 316.017V315.949H308.165V315.011H313.756V316L309.87 323.738H308.762Z" fill="#262627"/>
<path d="M344.184 296.822V286.318" stroke="#262627"/>
<path d="M344.185 323.858C343.6 323.858 343.083 323.754 342.634 323.547C342.188 323.336 341.84 323.048 341.59 322.681C341.34 322.312 341.217 321.892 341.22 321.42C341.217 321.051 341.289 320.71 341.437 320.397C341.585 320.082 341.786 319.819 342.042 319.609C342.301 319.396 342.589 319.261 342.907 319.204V319.153C342.489 319.045 342.157 318.811 341.91 318.45C341.663 318.086 341.541 317.673 341.543 317.21C341.541 316.767 341.653 316.37 341.88 316.021C342.107 315.672 342.42 315.396 342.818 315.194C343.218 314.993 343.674 314.892 344.185 314.892C344.691 314.892 345.143 314.993 345.541 315.194C345.938 315.396 346.251 315.672 346.478 316.021C346.708 316.37 346.825 316.767 346.828 317.21C346.825 317.673 346.698 318.086 346.448 318.45C346.201 318.811 345.873 319.045 345.464 319.153V319.204C345.779 319.261 346.063 319.396 346.316 319.609C346.569 319.819 346.771 320.082 346.921 320.397C347.072 320.71 347.149 321.051 347.151 321.42C347.149 321.892 347.021 322.312 346.768 322.681C346.518 323.048 346.17 323.336 345.724 323.547C345.281 323.754 344.768 323.858 344.185 323.858ZM344.185 322.92C344.58 322.92 344.921 322.856 345.208 322.728C345.495 322.6 345.717 322.42 345.873 322.187C346.029 321.954 346.109 321.681 346.112 321.369C346.109 321.039 346.024 320.748 345.856 320.495C345.688 320.243 345.46 320.044 345.17 319.899C344.883 319.754 344.555 319.681 344.185 319.681C343.813 319.681 343.481 319.754 343.188 319.899C342.899 320.044 342.67 320.243 342.502 320.495C342.337 320.748 342.257 321.039 342.259 321.369C342.257 321.681 342.332 321.954 342.485 322.187C342.641 322.42 342.864 322.6 343.154 322.728C343.444 322.856 343.788 322.92 344.185 322.92ZM344.185 318.778C344.498 318.778 344.775 318.716 345.016 318.591C345.261 318.466 345.453 318.291 345.592 318.066C345.731 317.842 345.802 317.579 345.805 317.278C345.802 316.983 345.732 316.725 345.596 316.507C345.46 316.285 345.271 316.115 345.029 315.995C344.788 315.873 344.507 315.812 344.185 315.812C343.859 315.812 343.573 315.873 343.329 315.995C343.085 316.115 342.896 316.285 342.762 316.507C342.629 316.725 342.563 316.983 342.566 317.278C342.563 317.579 342.63 317.842 342.766 318.066C342.906 318.291 343.097 318.466 343.342 318.591C343.586 318.716 343.867 318.778 344.185 318.778Z" fill="#262627"/>
<path d="M377.354 296.822V286.318" stroke="#262627"/>
<path d="M377.292 314.892C377.65 314.895 378.008 314.963 378.366 315.096C378.724 315.23 379.051 315.451 379.346 315.761C379.641 316.068 379.879 316.487 380.058 317.018C380.237 317.549 380.326 318.216 380.326 319.017C380.326 319.792 380.252 320.481 380.104 321.083C379.96 321.683 379.749 322.189 379.474 322.6C379.201 323.012 378.869 323.325 378.477 323.538C378.087 323.751 377.647 323.858 377.156 323.858C376.667 323.858 376.231 323.761 375.847 323.568C375.467 323.372 375.154 323.1 374.91 322.754C374.668 322.404 374.514 322 374.445 321.539H375.485C375.579 321.94 375.765 322.271 376.043 322.532C376.325 322.791 376.695 322.92 377.156 322.92C377.829 322.92 378.36 322.626 378.749 322.038C379.141 321.45 379.337 320.619 379.337 319.545H379.269C379.11 319.784 378.921 319.99 378.702 320.163C378.484 320.336 378.241 320.47 377.974 320.564C377.707 320.657 377.423 320.704 377.122 320.704C376.622 320.704 376.163 320.581 375.745 320.333C375.33 320.083 374.998 319.741 374.748 319.306C374.501 318.869 374.377 318.369 374.377 317.806C374.377 317.272 374.497 316.784 374.735 316.341C374.977 315.895 375.315 315.539 375.749 315.275C376.187 315.011 376.701 314.883 377.292 314.892ZM377.292 315.829C376.934 315.829 376.612 315.919 376.325 316.098C376.041 316.274 375.815 316.512 375.647 316.814C375.482 317.112 375.4 317.443 375.4 317.806C375.4 318.17 375.479 318.501 375.639 318.799C375.801 319.095 376.021 319.331 376.299 319.507C376.58 319.68 376.9 319.767 377.258 319.767C377.528 319.767 377.779 319.714 378.012 319.609C378.245 319.501 378.448 319.355 378.622 319.17C378.798 318.983 378.935 318.771 379.035 318.535C379.134 318.297 379.184 318.048 379.184 317.789C379.184 317.449 379.102 317.129 378.937 316.831C378.775 316.532 378.551 316.291 378.264 316.106C377.979 315.922 377.656 315.829 377.292 315.829Z" fill="#262627"/>
<path d="M443.695 296.822V286.318" stroke="#262627"/>
<path d="M442.088 315.011V323.738H441.032V316.119H440.98L438.85 317.534V316.46L441.032 315.011H442.088ZM447.666 315.011V323.738H446.61V316.119H446.559L444.428 317.534V316.46L446.61 315.011H447.666Z" fill="#262627"/>
<path d="M510.036 296.822V286.318" stroke="#262627"/>
<path d="M507.398 315.011V323.738H506.341V316.119H506.29L504.159 317.534V316.46L506.341 315.011H507.398ZM512.857 323.858C512.294 323.858 511.793 323.761 511.352 323.568C510.915 323.375 510.567 323.106 510.308 322.762C510.053 322.416 509.914 322.014 509.891 321.556H510.965C510.987 321.838 511.084 322.081 511.254 322.285C511.425 322.487 511.648 322.643 511.923 322.754C512.199 322.865 512.504 322.92 512.84 322.92C513.215 322.92 513.547 322.855 513.837 322.724C514.127 322.593 514.354 322.412 514.519 322.179C514.683 321.946 514.766 321.676 514.766 321.369C514.766 321.048 514.686 320.765 514.527 320.521C514.368 320.274 514.135 320.081 513.828 319.941C513.521 319.802 513.146 319.733 512.703 319.733H512.004V318.795H512.703C513.05 318.795 513.354 318.733 513.615 318.608C513.879 318.483 514.085 318.306 514.233 318.079C514.384 317.852 514.459 317.585 514.459 317.278C514.459 316.983 514.394 316.725 514.263 316.507C514.132 316.288 513.948 316.118 513.709 315.995C513.473 315.873 513.195 315.812 512.874 315.812C512.573 315.812 512.289 315.868 512.021 315.978C511.757 316.086 511.541 316.244 511.374 316.451C511.206 316.656 511.115 316.903 511.101 317.193H510.078C510.095 316.735 510.233 316.335 510.492 315.991C510.75 315.645 511.088 315.375 511.506 315.181C511.926 314.988 512.388 314.892 512.891 314.892C513.431 314.892 513.894 315.001 514.28 315.22C514.666 315.436 514.963 315.721 515.171 316.076C515.378 316.431 515.482 316.815 515.482 317.227C515.482 317.718 515.352 318.137 515.094 318.484C514.838 318.831 514.49 319.071 514.05 319.204V319.272C514.601 319.363 515.031 319.598 515.341 319.975C515.651 320.35 515.806 320.815 515.806 321.369C515.806 321.843 515.676 322.27 515.418 322.647C515.162 323.022 514.813 323.318 514.369 323.534C513.926 323.75 513.422 323.858 512.857 323.858Z" fill="#262627"/>
<path d="M576.376 296.822V286.318" stroke="#262627"/>
<path d="M573.908 315.011V323.738H572.852V316.119H572.8L570.67 317.534V316.46L572.852 315.011H573.908ZM579.146 323.858C578.646 323.858 578.195 323.758 577.795 323.559C577.394 323.36 577.073 323.088 576.832 322.741C576.59 322.395 576.458 322 576.435 321.556H577.458C577.498 321.951 577.677 322.278 577.995 322.537C578.316 322.792 578.7 322.92 579.146 322.92C579.504 322.92 579.822 322.836 580.1 322.669C580.381 322.501 580.602 322.271 580.761 321.978C580.923 321.683 581.004 321.349 581.004 320.977C581.004 320.596 580.92 320.257 580.752 319.958C580.587 319.657 580.36 319.42 580.07 319.247C579.781 319.074 579.45 318.985 579.077 318.983C578.81 318.98 578.536 319.021 578.255 319.106C577.974 319.189 577.742 319.295 577.56 319.426L576.572 319.306L577.1 315.011H581.634V315.949H577.987L577.68 318.522H577.731C577.91 318.38 578.134 318.262 578.404 318.169C578.674 318.075 578.955 318.028 579.248 318.028C579.782 318.028 580.258 318.156 580.675 318.412C581.096 318.664 581.425 319.011 581.664 319.451C581.906 319.892 582.026 320.395 582.026 320.96C582.026 321.517 581.901 322.014 581.651 322.451C581.404 322.886 581.063 323.23 580.629 323.483C580.194 323.733 579.7 323.858 579.146 323.858Z" fill="#262627"/>
<path d="M642.717 296.822V286.318" stroke="#262627"/>
<path d="M640.472 315.011V323.738H639.415V316.119H639.364L637.233 317.534V316.46L639.415 315.011H640.472ZM643.255 323.738L647.158 316.017V315.949H642.658V315.011H648.249V316L644.363 323.738H643.255Z" fill="#262627"/>
<path d="M709.058 296.822V286.318" stroke="#262627"/>
<path d="M706.496 315.011V323.738H705.439V316.119H705.388L703.258 317.534V316.46L705.439 315.011H706.496ZM711.785 314.892C712.142 314.895 712.5 314.963 712.858 315.096C713.216 315.23 713.543 315.451 713.838 315.761C714.134 316.068 714.371 316.487 714.55 317.018C714.729 317.549 714.819 318.216 714.819 319.017C714.819 319.792 714.745 320.481 714.597 321.083C714.452 321.683 714.242 322.189 713.966 322.6C713.694 323.012 713.361 323.325 712.969 323.538C712.58 323.751 712.14 323.858 711.648 323.858C711.16 323.858 710.723 323.761 710.34 323.568C709.959 323.372 709.647 323.1 709.402 322.754C709.161 322.404 709.006 322 708.938 321.539H709.978C710.071 321.94 710.258 322.271 710.536 322.532C710.817 322.791 711.188 322.92 711.648 322.92C712.321 322.92 712.853 322.626 713.242 322.038C713.634 321.45 713.83 320.619 713.83 319.545H713.762C713.603 319.784 713.414 319.99 713.195 320.163C712.976 320.336 712.733 320.47 712.466 320.564C712.199 320.657 711.915 320.704 711.614 320.704C711.114 320.704 710.655 320.581 710.238 320.333C709.823 320.083 709.49 319.741 709.24 319.306C708.993 318.869 708.87 318.369 708.87 317.806C708.87 317.272 708.989 316.784 709.228 316.341C709.469 315.895 709.807 315.539 710.242 315.275C710.679 315.011 711.194 314.883 711.785 314.892ZM711.785 315.829C711.427 315.829 711.104 315.919 710.817 316.098C710.533 316.274 710.307 316.512 710.14 316.814C709.975 317.112 709.892 317.443 709.892 317.806C709.892 318.17 709.972 318.501 710.131 318.799C710.293 319.095 710.513 319.331 710.792 319.507C711.073 319.68 711.392 319.767 711.75 319.767C712.02 319.767 712.272 319.714 712.505 319.609C712.738 319.501 712.941 319.355 713.114 319.17C713.29 318.983 713.428 318.771 713.527 318.535C713.627 318.297 713.677 318.048 713.677 317.789C713.677 317.449 713.594 317.129 713.429 316.831C713.267 316.532 713.043 316.291 712.756 316.106C712.472 315.922 712.148 315.829 711.785 315.829Z" fill="#262627"/>
<path d="M775.399 296.822V286.318" stroke="#262627"/>
<path d="M769.88 323.738V322.971L772.761 319.818C773.099 319.449 773.377 319.127 773.596 318.855C773.815 318.579 773.977 318.321 774.082 318.079C774.19 317.835 774.244 317.579 774.244 317.312C774.244 317.005 774.17 316.74 774.022 316.515C773.877 316.291 773.678 316.118 773.425 315.995C773.173 315.873 772.889 315.812 772.573 315.812C772.238 315.812 771.945 315.882 771.695 316.021C771.448 316.157 771.256 316.349 771.12 316.596C770.987 316.843 770.92 317.133 770.92 317.466H769.914C769.914 316.954 770.032 316.505 770.268 316.119C770.504 315.733 770.825 315.431 771.231 315.216C771.64 315 772.099 314.892 772.607 314.892C773.119 314.892 773.572 315 773.967 315.216C774.362 315.431 774.671 315.723 774.896 316.089C775.12 316.456 775.232 316.863 775.232 317.312C775.232 317.633 775.174 317.947 775.058 318.254C774.944 318.558 774.745 318.897 774.461 319.272C774.18 319.645 773.789 320.099 773.289 320.636L771.329 322.733V322.801H775.386V323.738H769.88ZM780.214 315.011V323.738H779.157V316.119H779.106L776.975 317.534V316.46L779.157 315.011H780.214Z" fill="#262627"/>
<path d="M841.739 296.822V286.318" stroke="#262627"/>
<path d="M835.19 323.738V322.971L838.07 319.818C838.408 319.449 838.687 319.127 838.905 318.855C839.124 318.579 839.286 318.321 839.391 318.079C839.499 317.835 839.553 317.579 839.553 317.312C839.553 317.005 839.479 316.74 839.332 316.515C839.187 316.291 838.988 316.118 838.735 315.995C838.482 315.873 838.198 315.812 837.883 315.812C837.548 315.812 837.255 315.882 837.005 316.021C836.758 316.157 836.566 316.349 836.43 316.596C836.296 316.843 836.229 317.133 836.229 317.466H835.224C835.224 316.954 835.342 316.505 835.577 316.119C835.813 315.733 836.134 315.431 836.54 315.216C836.949 315 837.408 314.892 837.917 314.892C838.428 314.892 838.881 315 839.276 315.216C839.671 315.431 839.981 315.723 840.205 316.089C840.43 316.456 840.542 316.863 840.542 317.312C840.542 317.633 840.484 317.947 840.367 318.254C840.253 318.558 840.055 318.897 839.771 319.272C839.489 319.645 839.099 320.099 838.599 320.636L836.638 322.733V322.801H840.695V323.738H835.19ZM845.404 323.858C844.842 323.858 844.34 323.761 843.9 323.568C843.462 323.375 843.114 323.106 842.856 322.762C842.6 322.416 842.461 322.014 842.438 321.556H843.512C843.535 321.838 843.631 322.081 843.802 322.285C843.972 322.487 844.195 322.643 844.471 322.754C844.746 322.865 845.052 322.92 845.387 322.92C845.762 322.92 846.094 322.855 846.384 322.724C846.674 322.593 846.901 322.412 847.066 322.179C847.231 321.946 847.313 321.676 847.313 321.369C847.313 321.048 847.234 320.765 847.074 320.521C846.915 320.274 846.682 320.081 846.376 319.941C846.069 319.802 845.694 319.733 845.251 319.733H844.552V318.795H845.251C845.597 318.795 845.901 318.733 846.163 318.608C846.427 318.483 846.633 318.306 846.78 318.079C846.931 317.852 847.006 317.585 847.006 317.278C847.006 316.983 846.941 316.725 846.81 316.507C846.68 316.288 846.495 316.118 846.256 315.995C846.021 315.873 845.742 315.812 845.421 315.812C845.12 315.812 844.836 315.868 844.569 315.978C844.305 316.086 844.089 316.244 843.921 316.451C843.753 316.656 843.663 316.903 843.648 317.193H842.626C842.643 316.735 842.78 316.335 843.039 315.991C843.298 315.645 843.636 315.375 844.053 315.181C844.474 314.988 844.935 314.892 845.438 314.892C845.978 314.892 846.441 315.001 846.827 315.22C847.214 315.436 847.511 315.721 847.718 316.076C847.925 316.431 848.029 316.815 848.029 317.227C848.029 317.718 847.9 318.137 847.641 318.484C847.386 318.831 847.038 319.071 846.597 319.204V319.272C847.148 319.363 847.579 319.598 847.888 319.975C848.198 320.35 848.353 320.815 848.353 321.369C848.353 321.843 848.224 322.27 847.965 322.647C847.709 323.022 847.36 323.318 846.917 323.534C846.474 323.75 845.969 323.858 845.404 323.858Z" fill="#262627"/>
<path d="M908.08 296.822V286.318" stroke="#262627"/>
<path d="M901.7 323.738V322.971L904.581 319.818C904.919 319.449 905.197 319.127 905.416 318.855C905.635 318.579 905.797 318.321 905.902 318.079C906.01 317.835 906.064 317.579 906.064 317.312C906.064 317.005 905.99 316.74 905.842 316.515C905.697 316.291 905.498 316.118 905.246 315.995C904.993 315.873 904.709 315.812 904.393 315.812C904.058 315.812 903.765 315.882 903.515 316.021C903.268 316.157 903.076 316.349 902.94 316.596C902.807 316.843 902.74 317.133 902.74 317.466H901.734C901.734 316.954 901.852 316.505 902.088 316.119C902.324 315.733 902.645 315.431 903.051 315.216C903.46 315 903.919 314.892 904.427 314.892C904.939 314.892 905.392 315 905.787 315.216C906.182 315.431 906.491 315.723 906.716 316.089C906.94 316.456 907.052 316.863 907.052 317.312C907.052 317.633 906.994 317.947 906.878 318.254C906.764 318.558 906.565 318.897 906.281 319.272C906 319.645 905.609 320.099 905.109 320.636L903.149 322.733V322.801H907.206V323.738H901.7ZM911.693 323.858C911.193 323.858 910.743 323.758 910.342 323.559C909.942 323.36 909.621 323.088 909.379 322.741C909.138 322.395 909.005 322 908.983 321.556H910.005C910.045 321.951 910.224 322.278 910.542 322.537C910.863 322.792 911.247 322.92 911.693 322.92C912.051 322.92 912.369 322.836 912.647 322.669C912.929 322.501 913.149 322.271 913.308 321.978C913.47 321.683 913.551 321.349 913.551 320.977C913.551 320.596 913.467 320.257 913.299 319.958C913.135 319.657 912.907 319.42 912.618 319.247C912.328 319.074 911.997 318.985 911.625 318.983C911.358 318.98 911.084 319.021 910.802 319.106C910.521 319.189 910.29 319.295 910.108 319.426L909.119 319.306L909.647 315.011H914.182V315.949H910.534L910.227 318.522H910.278C910.457 318.38 910.682 318.262 910.951 318.169C911.221 318.075 911.503 318.028 911.795 318.028C912.329 318.028 912.805 318.156 913.223 318.412C913.643 318.664 913.973 319.011 914.211 319.451C914.453 319.892 914.574 320.395 914.574 320.96C914.574 321.517 914.449 322.014 914.199 322.451C913.951 322.886 913.611 323.23 913.176 323.483C912.741 323.733 912.247 323.858 911.693 323.858Z" fill="#262627"/>
<path d="M974.421 296.822V286.318" stroke="#262627"/>
<path d="M968.263 323.738V322.971L971.144 319.818C971.482 319.449 971.761 319.127 971.979 318.855C972.198 318.579 972.36 318.321 972.465 318.079C972.573 317.835 972.627 317.579 972.627 317.312C972.627 317.005 972.553 316.74 972.405 316.515C972.261 316.291 972.062 316.118 971.809 315.995C971.556 315.873 971.272 315.812 970.957 315.812C970.621 315.812 970.329 315.882 970.079 316.021C969.832 316.157 969.64 316.349 969.503 316.596C969.37 316.843 969.303 317.133 969.303 317.466H968.297C968.297 316.954 968.415 316.505 968.651 316.119C968.887 315.733 969.208 315.431 969.614 315.216C970.023 315 970.482 314.892 970.991 314.892C971.502 314.892 971.955 315 972.35 315.216C972.745 315.431 973.055 315.723 973.279 316.089C973.503 316.456 973.616 316.863 973.616 317.312C973.616 317.633 973.557 317.947 973.441 318.254C973.327 318.558 973.128 318.897 972.844 319.272C972.563 319.645 972.172 320.099 971.672 320.636L969.712 322.733V322.801H973.769V323.738H968.263ZM975.802 323.738L979.705 316.017V315.949H975.205V315.011H980.796V316L976.91 323.738H975.802Z" fill="#262627"/>
<path d="M1040.76 296.822V286.318" stroke="#262627"/>
<path d="M1029.46 323.738V322.971L1032.34 319.818C1032.68 319.449 1032.96 319.127 1033.18 318.855C1033.4 318.579 1033.56 318.321 1033.66 318.079C1033.77 317.835 1033.83 317.579 1033.83 317.312C1033.83 317.005 1033.75 316.74 1033.6 316.515C1033.46 316.291 1033.26 316.118 1033.01 315.995C1032.75 315.873 1032.47 315.812 1032.16 315.812C1031.82 315.812 1031.53 315.882 1031.28 316.021C1031.03 316.157 1030.84 316.349 1030.7 316.596C1030.57 316.843 1030.5 317.133 1030.5 317.466H1029.5C1029.5 316.954 1029.61 316.505 1029.85 316.119C1030.09 315.733 1030.41 315.431 1030.81 315.216C1031.22 315 1031.68 314.892 1032.19 314.892C1032.7 314.892 1033.15 315 1033.55 315.216C1033.94 315.431 1034.25 315.723 1034.48 316.089C1034.7 316.456 1034.81 316.863 1034.81 317.312C1034.81 317.633 1034.76 317.947 1034.64 318.254C1034.53 318.558 1034.33 318.897 1034.04 319.272C1033.76 319.645 1033.37 320.099 1032.87 320.636L1030.91 322.733V322.801H1034.97V323.738H1029.46ZM1039.51 314.892C1039.86 314.895 1040.22 314.963 1040.58 315.096C1040.94 315.23 1041.26 315.451 1041.56 315.761C1041.86 316.068 1042.09 316.487 1042.27 317.018C1042.45 317.549 1042.54 318.216 1042.54 319.017C1042.54 319.792 1042.47 320.481 1042.32 321.083C1042.17 321.683 1041.96 322.189 1041.69 322.6C1041.42 323.012 1041.08 323.325 1040.69 323.538C1040.3 323.751 1039.86 323.858 1039.37 323.858C1038.88 323.858 1038.44 323.761 1038.06 323.568C1037.68 323.372 1037.37 323.1 1037.12 322.754C1036.88 322.404 1036.73 322 1036.66 321.539H1037.7C1037.79 321.94 1037.98 322.271 1038.26 322.532C1038.54 322.791 1038.91 322.92 1039.37 322.92C1040.04 322.92 1040.57 322.626 1040.96 322.038C1041.36 321.45 1041.55 320.619 1041.55 319.545H1041.48C1041.32 319.784 1041.14 319.99 1040.92 320.163C1040.7 320.336 1040.45 320.47 1040.19 320.564C1039.92 320.657 1039.64 320.704 1039.34 320.704C1038.84 320.704 1038.38 320.581 1037.96 320.333C1037.54 320.083 1037.21 319.741 1036.96 319.306C1036.71 318.869 1036.59 318.369 1036.59 317.806C1036.59 317.272 1036.71 316.784 1036.95 316.341C1037.19 315.895 1037.53 315.539 1037.96 315.275C1038.4 315.011 1038.92 314.883 1039.51 314.892ZM1039.51 315.829C1039.15 315.829 1038.83 315.919 1038.54 316.098C1038.25 316.274 1038.03 316.512 1037.86 316.814C1037.7 317.112 1037.61 317.443 1037.61 317.806C1037.61 318.17 1037.69 318.501 1037.85 318.799C1038.01 319.095 1038.23 319.331 1038.51 319.507C1038.79 319.68 1039.11 319.767 1039.47 319.767C1039.74 319.767 1039.99 319.714 1040.23 319.609C1040.46 319.501 1040.66 319.355 1040.84 319.17C1041.01 318.983 1041.15 318.771 1041.25 318.535C1041.35 318.297 1041.4 318.048 1041.4 317.789C1041.4 317.449 1041.32 317.129 1041.15 316.831C1040.99 316.532 1040.76 316.291 1040.48 316.106C1040.19 315.922 1039.87 315.829 1039.51 315.829Z" fill="#262627"/>
<path d="M78.8213 6.19775V286.319" stroke="#262627"/>
<path d="M69.1694 286.318H78.821" stroke="#262627"/>
<path d="M57.3766 284.887C56.7345 284.887 56.1877 284.712 55.736 284.363C55.2842 284.01 54.9391 283.501 54.7004 282.833C54.4618 282.162 54.3425 281.353 54.3425 280.404C54.3425 279.461 54.4618 278.655 54.7004 277.988C54.9419 277.317 55.2885 276.806 55.7402 276.454C56.1948 276.099 56.7402 275.921 57.3766 275.921C58.0129 275.921 58.557 276.099 59.0087 276.454C59.4632 276.806 59.8098 277.317 60.0485 277.988C60.2899 278.655 60.4107 279.461 60.4107 280.404C60.4107 281.353 60.2913 282.162 60.0527 282.833C59.8141 283.501 59.4689 284.01 59.0172 284.363C58.5655 284.712 58.0186 284.887 57.3766 284.887ZM57.3766 283.949C58.0129 283.949 58.5073 283.643 58.8595 283.029C59.2118 282.415 59.3879 281.54 59.3879 280.404C59.3879 279.648 59.307 279.005 59.145 278.474C58.986 277.942 58.7558 277.537 58.4547 277.259C58.1564 276.981 57.797 276.841 57.3766 276.841C56.7459 276.841 56.253 277.153 55.8979 277.775C55.5428 278.394 55.3652 279.27 55.3652 280.404C55.3652 281.16 55.4448 281.802 55.6038 282.33C55.7629 282.858 55.9916 283.26 56.2899 283.536C56.5911 283.812 56.9533 283.949 57.3766 283.949Z" fill="#262627"/>
<path d="M69.1697 216.289H78.8213" stroke="#262627"/>
<path d="M29.7194 206.01V214.737H28.6626V207.117H28.6115L26.4808 208.532V207.458L28.6626 206.01H29.7194ZM34.9566 214.856C34.4566 214.856 34.0063 214.757 33.6058 214.558C33.2052 214.359 32.8842 214.086 32.6427 213.74C32.4012 213.393 32.2691 212.998 32.2464 212.555H33.2691C33.3089 212.95 33.4879 213.277 33.8061 213.535C34.1271 213.791 34.5106 213.919 34.9566 213.919C35.3146 213.919 35.6328 213.835 35.9112 213.667C36.1924 213.5 36.4126 213.269 36.5717 212.977C36.7336 212.681 36.8146 212.348 36.8146 211.975C36.8146 211.595 36.7308 211.255 36.5632 210.957C36.3984 210.656 36.1711 210.419 35.8813 210.245C35.5916 210.072 35.2606 209.984 34.8884 209.981C34.6214 209.978 34.3472 210.019 34.066 210.105C33.7847 210.187 33.5532 210.294 33.3714 210.424L32.3828 210.305L32.9112 206.01H37.4453V206.947H33.7975L33.4907 209.521H33.5419C33.7208 209.379 33.9453 209.261 34.2151 209.167C34.485 209.073 34.7663 209.027 35.0589 209.027C35.593 209.027 36.0688 209.154 36.4865 209.41C36.9069 209.663 37.2365 210.01 37.4751 210.45C37.7166 210.89 37.8373 211.393 37.8373 211.958C37.8373 212.515 37.7123 213.012 37.4623 213.45C37.2151 213.885 36.8742 214.228 36.4396 214.481C36.0049 214.731 35.5106 214.856 34.9566 214.856ZM42.3767 214.856C41.7347 214.856 41.1878 214.681 40.7361 214.332C40.2844 213.98 39.9392 213.47 39.7006 212.802C39.462 212.132 39.3426 211.322 39.3426 210.373C39.3426 209.43 39.462 208.625 39.7006 207.957C39.9421 207.287 40.2887 206.775 40.7404 206.423C41.1949 206.068 41.7404 205.89 42.3767 205.89C43.0131 205.89 43.5571 206.068 44.0088 206.423C44.4634 206.775 44.81 207.287 45.0486 207.957C45.2901 208.625 45.4108 209.43 45.4108 210.373C45.4108 211.322 45.2915 212.132 45.0529 212.802C44.8142 213.47 44.4691 213.98 44.0173 214.332C43.5656 214.681 43.0188 214.856 42.3767 214.856ZM42.3767 213.919C43.0131 213.919 43.5074 213.612 43.8597 212.998C44.212 212.385 44.3881 211.51 44.3881 210.373C44.3881 209.617 44.3071 208.974 44.1452 208.443C43.9861 207.912 43.756 207.507 43.4548 207.228C43.1566 206.95 42.7972 206.811 42.3767 206.811C41.746 206.811 41.2531 207.122 40.898 207.744C40.5429 208.363 40.3654 209.24 40.3654 210.373C40.3654 211.129 40.4449 211.771 40.604 212.299C40.7631 212.828 40.9918 213.23 41.2901 213.505C41.5912 213.781 41.9534 213.919 42.3767 213.919ZM49.8767 214.856C49.2347 214.856 48.6878 214.681 48.2361 214.332C47.7844 213.98 47.4392 213.47 47.2006 212.802C46.962 212.132 46.8426 211.322 46.8426 210.373C46.8426 209.43 46.962 208.625 47.2006 207.957C47.4421 207.287 47.7887 206.775 48.2404 206.423C48.6949 206.068 49.2404 205.89 49.8767 205.89C50.5131 205.89 51.0571 206.068 51.5088 206.423C51.9634 206.775 52.31 207.287 52.5486 207.957C52.7901 208.625 52.9108 209.43 52.9108 210.373C52.9108 211.322 52.7915 212.132 52.5529 212.802C52.3142 213.47 51.9691 213.98 51.5173 214.332C51.0656 214.681 50.5188 214.856 49.8767 214.856ZM49.8767 213.919C50.5131 213.919 51.0074 213.612 51.3597 212.998C51.712 212.385 51.8881 211.51 51.8881 210.373C51.8881 209.617 51.8071 208.974 51.6452 208.443C51.4861 207.912 51.256 207.507 50.9548 207.228C50.6566 206.95 50.2972 206.811 49.8767 206.811C49.246 206.811 48.7531 207.122 48.398 207.744C48.0429 208.363 47.8654 209.24 47.8654 210.373C47.8654 211.129 47.9449 211.771 48.104 212.299C48.2631 212.828 48.4918 213.23 48.7901 213.505C49.0912 213.781 49.4534 213.919 49.8767 213.919ZM57.3767 214.856C56.7347 214.856 56.1878 214.681 55.7361 214.332C55.2844 213.98 54.9392 213.47 54.7006 212.802C54.462 212.132 54.3426 211.322 54.3426 210.373C54.3426 209.43 54.462 208.625 54.7006 207.957C54.9421 207.287 55.2887 206.775 55.7404 206.423C56.1949 206.068 56.7404 205.89 57.3767 205.89C58.0131 205.89 58.5571 206.068 59.0088 206.423C59.4634 206.775 59.81 207.287 60.0486 207.957C60.2901 208.625 60.4108 209.43 60.4108 210.373C60.4108 211.322 60.2915 212.132 60.0529 212.802C59.8142 213.47 59.4691 213.98 59.0173 214.332C58.5656 214.681 58.0188 214.856 57.3767 214.856ZM57.3767 213.919C58.0131 213.919 58.5074 213.612 58.8597 212.998C59.212 212.385 59.3881 211.51 59.3881 210.373C59.3881 209.617 59.3071 208.974 59.1452 208.443C58.9861 207.912 58.756 207.507 58.4548 207.228C58.1566 206.95 57.7972 206.811 57.3767 206.811C56.746 206.811 56.2531 207.122 55.898 207.744C55.5429 208.363 55.3654 209.24 55.3654 210.373C55.3654 211.129 55.4449 211.771 55.604 212.299C55.7631 212.828 55.9918 213.23 56.2901 213.505C56.5912 213.781 56.9534 213.919 57.3767 213.919Z" fill="#262627"/>
<path d="M69.1697 146.258H78.8213" stroke="#262627"/>
<path d="M27.3383 144.826C26.7758 144.826 26.2744 144.73 25.834 144.537C25.3965 144.343 25.0485 144.075 24.79 143.731C24.5343 143.385 24.3951 142.983 24.3724 142.525H25.4462C25.469 142.806 25.5656 143.049 25.736 143.254C25.9065 143.456 26.1295 143.612 26.405 143.723C26.6806 143.833 26.986 143.889 27.3212 143.889C27.6962 143.889 28.0286 143.824 28.3184 143.693C28.6082 143.562 28.8354 143.38 29.0002 143.147C29.165 142.914 29.2474 142.645 29.2474 142.338C29.2474 142.017 29.1678 141.734 29.0087 141.49C28.8496 141.243 28.6167 141.049 28.3099 140.91C28.0031 140.771 27.6281 140.701 27.1849 140.701H26.486V139.764H27.1849C27.5315 139.764 27.8354 139.701 28.0968 139.576C28.361 139.451 28.567 139.275 28.7147 139.048C28.8653 138.821 28.9406 138.554 28.9406 138.247C28.9406 137.951 28.8752 137.694 28.7445 137.475C28.6138 137.257 28.4292 137.086 28.1906 136.964C27.9548 136.842 27.6763 136.781 27.3553 136.781C27.0542 136.781 26.7701 136.836 26.5031 136.947C26.2388 137.055 26.0229 137.213 25.8553 137.42C25.6877 137.625 25.5968 137.872 25.5826 138.162H24.5599C24.5769 137.704 24.7147 137.304 24.9732 136.96C25.2317 136.613 25.5698 136.343 25.9874 136.15C26.4079 135.957 26.8695 135.86 27.3724 135.86C27.9121 135.86 28.3752 135.97 28.7616 136.189C29.1479 136.404 29.4448 136.69 29.6522 137.045C29.8596 137.4 29.9633 137.784 29.9633 138.196C29.9633 138.687 29.834 139.106 29.5755 139.453C29.3198 139.799 28.9718 140.039 28.5315 140.173V140.241C29.0826 140.332 29.513 140.566 29.8227 140.944C30.1323 141.319 30.2871 141.784 30.2871 142.338C30.2871 142.812 30.1579 143.238 29.8994 143.616C29.6437 143.991 29.2942 144.287 28.8511 144.502C28.4079 144.718 27.9036 144.826 27.3383 144.826ZM34.8766 144.826C34.2346 144.826 33.6877 144.652 33.236 144.302C32.7843 143.95 32.4391 143.44 32.2005 142.772C31.9619 142.102 31.8425 141.292 31.8425 140.343C31.8425 139.4 31.9619 138.595 32.2005 137.927C32.442 137.257 32.7886 136.745 33.2403 136.393C33.6948 136.038 34.2403 135.86 34.8766 135.86C35.513 135.86 36.057 136.038 36.5087 136.393C36.9633 136.745 37.3099 137.257 37.5485 137.927C37.79 138.595 37.9107 139.4 37.9107 140.343C37.9107 141.292 37.7914 142.102 37.5528 142.772C37.3141 143.44 36.969 143.95 36.5173 144.302C36.0656 144.652 35.5187 144.826 34.8766 144.826ZM34.8766 143.889C35.513 143.889 36.0073 143.582 36.3596 142.968C36.7119 142.355 36.888 141.48 36.888 140.343C36.888 139.588 36.807 138.944 36.6451 138.413C36.486 137.882 36.2559 137.477 35.9548 137.199C35.6565 136.92 35.2971 136.781 34.8766 136.781C34.246 136.781 33.7531 137.092 33.3979 137.714C33.0428 138.333 32.8653 139.21 32.8653 140.343C32.8653 141.099 32.9448 141.741 33.1039 142.27C33.263 142.798 33.4917 143.2 33.79 143.475C34.0911 143.751 34.4533 143.889 34.8766 143.889ZM42.3766 144.826C41.7346 144.826 41.1877 144.652 40.736 144.302C40.2843 143.95 39.9391 143.44 39.7005 142.772C39.4619 142.102 39.3425 141.292 39.3425 140.343C39.3425 139.4 39.4619 138.595 39.7005 137.927C39.942 137.257 40.2886 136.745 40.7403 136.393C41.1948 136.038 41.7403 135.86 42.3766 135.86C43.013 135.86 43.557 136.038 44.0087 136.393C44.4633 136.745 44.8099 137.257 45.0485 137.927C45.29 138.595 45.4107 139.4 45.4107 140.343C45.4107 141.292 45.2914 142.102 45.0528 142.772C44.8141 143.44 44.469 143.95 44.0173 144.302C43.5656 144.652 43.0187 144.826 42.3766 144.826ZM42.3766 143.889C43.013 143.889 43.5073 143.582 43.8596 142.968C44.2119 142.355 44.388 141.48 44.388 140.343C44.388 139.588 44.307 138.944 44.1451 138.413C43.986 137.882 43.7559 137.477 43.4548 137.199C43.1565 136.92 42.7971 136.781 42.3766 136.781C41.746 136.781 41.2531 137.092 40.8979 137.714C40.5428 138.333 40.3653 139.21 40.3653 140.343C40.3653 141.099 40.4448 141.741 40.6039 142.27C40.763 142.798 40.9917 143.2 41.29 143.475C41.5911 143.751 41.9533 143.889 42.3766 143.889ZM49.8766 144.826C49.2346 144.826 48.6877 144.652 48.236 144.302C47.7843 143.95 47.4391 143.44 47.2005 142.772C46.9619 142.102 46.8425 141.292 46.8425 140.343C46.8425 139.4 46.9619 138.595 47.2005 137.927C47.442 137.257 47.7886 136.745 48.2403 136.393C48.6948 136.038 49.2403 135.86 49.8766 135.86C50.513 135.86 51.057 136.038 51.5087 136.393C51.9633 136.745 52.3099 137.257 52.5485 137.927C52.79 138.595 52.9107 139.4 52.9107 140.343C52.9107 141.292 52.7914 142.102 52.5528 142.772C52.3141 143.44 51.969 143.95 51.5173 144.302C51.0656 144.652 50.5187 144.826 49.8766 144.826ZM49.8766 143.889C50.513 143.889 51.0073 143.582 51.3596 142.968C51.7119 142.355 51.888 141.48 51.888 140.343C51.888 139.588 51.807 138.944 51.6451 138.413C51.486 137.882 51.2559 137.477 50.9548 137.199C50.6565 136.92 50.2971 136.781 49.8766 136.781C49.246 136.781 48.7531 137.092 48.3979 137.714C48.0428 138.333 47.8653 139.21 47.8653 140.343C47.8653 141.099 47.9448 141.741 48.1039 142.27C48.263 142.798 48.4917 143.2 48.79 143.475C49.0911 143.751 49.4533 143.889 49.8766 143.889ZM57.3766 144.826C56.7346 144.826 56.1877 144.652 55.736 144.302C55.2843 143.95 54.9391 143.44 54.7005 142.772C54.4619 142.102 54.3425 141.292 54.3425 140.343C54.3425 139.4 54.4619 138.595 54.7005 137.927C54.942 137.257 55.2886 136.745 55.7403 136.393C56.1948 136.038 56.7403 135.86 57.3766 135.86C58.013 135.86 58.557 136.038 59.0087 136.393C59.4633 136.745 59.8099 137.257 60.0485 137.927C60.29 138.595 60.4107 139.4 60.4107 140.343C60.4107 141.292 60.2914 142.102 60.0528 142.772C59.8141 143.44 59.469 143.95 59.0173 144.302C58.5656 144.652 58.0187 144.826 57.3766 144.826ZM57.3766 143.889C58.013 143.889 58.5073 143.582 58.8596 142.968C59.2119 142.355 59.388 141.48 59.388 140.343C59.388 139.588 59.307 138.944 59.1451 138.413C58.986 137.882 58.7559 137.477 58.4548 137.199C58.1565 136.92 57.7971 136.781 57.3766 136.781C56.746 136.781 56.2531 137.092 55.8979 137.714C55.5428 138.333 55.3653 139.21 55.3653 140.343C55.3653 141.099 55.4448 141.741 55.6039 142.27C55.763 142.798 55.9917 143.2 56.29 143.475C56.5911 143.751 56.9533 143.889 57.3766 143.889Z" fill="#262627"/>
<path d="M69.1697 76.2285H78.8213" stroke="#262627"/>
<path d="M24.3255 72.887V72.0177L28.1607 65.9495H28.7914V67.2961H28.3653L25.4675 71.8813V71.9495H30.6323V72.887H24.3255ZM28.4335 74.6768V72.6228V72.218V65.9495H29.4391V74.6768H28.4335ZM34.9565 74.7961C34.4565 74.7961 34.0062 74.6966 33.6057 74.4978C33.2051 74.2989 32.8841 74.0262 32.6426 73.6796C32.4011 73.333 32.269 72.9381 32.2463 72.4949H33.269C33.3088 72.8898 33.4878 73.2165 33.806 73.4751C34.127 73.7307 34.5105 73.8586 34.9565 73.8586C35.3145 73.8586 35.6327 73.7748 35.9111 73.6072C36.1923 73.4395 36.4125 73.2094 36.5716 72.9168C36.7335 72.6214 36.8145 72.2876 36.8145 71.9154C36.8145 71.5347 36.7307 71.1952 36.5631 70.8969C36.3983 70.5958 36.171 70.3586 35.8812 70.1853C35.5915 70.012 35.2605 69.9239 34.8884 69.9211C34.6213 69.9182 34.3472 69.9594 34.0659 70.0447C33.7847 70.127 33.5531 70.2336 33.3713 70.3643L32.3827 70.2449L32.9111 65.9495H37.4452V66.887H33.7974L33.4906 69.4608H33.5418C33.7207 69.3188 33.9452 69.2009 34.2151 69.1072C34.4849 69.0134 34.7662 68.9665 35.0588 68.9665C35.5929 68.9665 36.0687 69.0944 36.4864 69.3501C36.9068 69.6029 37.2364 69.9495 37.475 70.3898C37.7165 70.8302 37.8372 71.333 37.8372 71.8983C37.8372 72.4552 37.7122 72.9523 37.4622 73.3898C37.2151 73.8245 36.8741 74.1682 36.4395 74.4211C36.0048 74.6711 35.5105 74.7961 34.9565 74.7961ZM42.3766 74.7961C41.7346 74.7961 41.1877 74.6214 40.736 74.2719C40.2843 73.9197 39.9391 73.4097 39.7005 72.7421C39.4619 72.0716 39.3425 71.262 39.3425 70.3131C39.3425 69.3699 39.4619 68.5645 39.7005 67.8969C39.942 67.2265 40.2886 66.7151 40.7403 66.3628C41.1948 66.0077 41.7403 65.8302 42.3766 65.8302C43.013 65.8302 43.557 66.0077 44.0087 66.3628C44.4633 66.7151 44.8099 67.2265 45.0485 67.8969C45.29 68.5645 45.4107 69.3699 45.4107 70.3131C45.4107 71.262 45.2914 72.0716 45.0528 72.7421C44.8141 73.4097 44.469 73.9197 44.0173 74.2719C43.5656 74.6214 43.0187 74.7961 42.3766 74.7961ZM42.3766 73.8586C43.013 73.8586 43.5073 73.5518 43.8596 72.9381C44.2119 72.3245 44.388 71.4495 44.388 70.3131C44.388 69.5574 44.307 68.914 44.1451 68.3827C43.986 67.8515 43.7559 67.4466 43.4548 67.1682C43.1565 66.8898 42.7971 66.7506 42.3766 66.7506C41.746 66.7506 41.2531 67.0617 40.8979 67.6839C40.5428 68.3032 40.3653 69.1796 40.3653 70.3131C40.3653 71.0688 40.4448 71.7108 40.6039 72.2393C40.763 72.7677 40.9917 73.1697 41.29 73.4452C41.5911 73.7208 41.9533 73.8586 42.3766 73.8586ZM49.8766 74.7961C49.2346 74.7961 48.6877 74.6214 48.236 74.2719C47.7843 73.9197 47.4391 73.4097 47.2005 72.7421C46.9619 72.0716 46.8425 71.262 46.8425 70.3131C46.8425 69.3699 46.9619 68.5645 47.2005 67.8969C47.442 67.2265 47.7886 66.7151 48.2403 66.3628C48.6948 66.0077 49.2403 65.8302 49.8766 65.8302C50.513 65.8302 51.057 66.0077 51.5087 66.3628C51.9633 66.7151 52.3099 67.2265 52.5485 67.8969C52.79 68.5645 52.9107 69.3699 52.9107 70.3131C52.9107 71.262 52.7914 72.0716 52.5528 72.7421C52.3141 73.4097 51.969 73.9197 51.5173 74.2719C51.0656 74.6214 50.5187 74.7961 49.8766 74.7961ZM49.8766 73.8586C50.513 73.8586 51.0073 73.5518 51.3596 72.9381C51.7119 72.3245 51.888 71.4495 51.888 70.3131C51.888 69.5574 51.807 68.914 51.6451 68.3827C51.486 67.8515 51.2559 67.4466 50.9548 67.1682C50.6565 66.8898 50.2971 66.7506 49.8766 66.7506C49.246 66.7506 48.7531 67.0617 48.3979 67.6839C48.0428 68.3032 47.8653 69.1796 47.8653 70.3131C47.8653 71.0688 47.9448 71.7108 48.1039 72.2393C48.263 72.7677 48.4917 73.1697 48.79 73.4452C49.0911 73.7208 49.4533 73.8586 49.8766 73.8586ZM57.3766 74.7961C56.7346 74.7961 56.1877 74.6214 55.736 74.2719C55.2843 73.9197 54.9391 73.4097 54.7005 72.7421C54.4619 72.0716 54.3425 71.262 54.3425 70.3131C54.3425 69.3699 54.4619 68.5645 54.7005 67.8969C54.942 67.2265 55.2886 66.7151 55.7403 66.3628C56.1948 66.0077 56.7403 65.8302 57.3766 65.8302C58.013 65.8302 58.557 66.0077 59.0087 66.3628C59.4633 66.7151 59.8099 67.2265 60.0485 67.8969C60.29 68.5645 60.4107 69.3699 60.4107 70.3131C60.4107 71.262 60.2914 72.0716 60.0528 72.7421C59.8141 73.4097 59.469 73.9197 59.0173 74.2719C58.5656 74.6214 58.0187 74.7961 57.3766 74.7961ZM57.3766 73.8586C58.013 73.8586 58.5073 73.5518 58.8596 72.9381C59.2119 72.3245 59.388 71.4495 59.388 70.3131C59.388 69.5574 59.307 68.914 59.1451 68.3827C58.986 67.8515 58.7559 67.4466 58.4548 67.1682C58.1565 66.8898 57.7971 66.7506 57.3766 66.7506C56.746 66.7506 56.2531 67.0617 55.8979 67.6839C55.5428 68.3032 55.3653 69.1796 55.3653 70.3131C55.3653 71.0688 55.4448 71.7108 55.6039 72.2393C55.763 72.7677 55.9917 73.1697 56.29 73.4452C56.5911 73.7208 56.9533 73.8586 57.3766 73.8586Z" fill="#262627"/>
<path d="M69.1697 6.19775H78.8213" stroke="#262627"/>
<path d="M27.4395 12.1193C27.0815 12.1136 26.7236 12.0455 26.3656 11.9148C26.0077 11.7841 25.681 11.5639 25.3855 11.2543C25.0901 10.9418 24.8528 10.5199 24.6739 9.98864C24.4949 9.45455 24.4054 8.78409 24.4054 7.97727C24.4054 7.20455 24.4778 6.51989 24.6227 5.9233C24.7676 5.32386 24.9778 4.8196 25.2534 4.41051C25.529 3.99858 25.8614 3.68608 26.2506 3.47301C26.6426 3.25994 27.0844 3.15341 27.5759 3.15341C28.0645 3.15341 28.4991 3.25142 28.8798 3.44744C29.2634 3.64062 29.5759 3.91051 29.8173 4.2571C30.0588 4.60369 30.2151 5.00284 30.2861 5.45455H29.2463C29.1497 5.0625 28.9622 4.73722 28.6838 4.47869C28.4054 4.22017 28.0361 4.09091 27.5759 4.09091C26.8997 4.09091 26.367 4.38494 25.9778 4.97301C25.5915 5.56108 25.3969 6.38636 25.394 7.44886H25.4622C25.6213 7.20739 25.8102 7.00142 26.029 6.83097C26.2506 6.65767 26.4949 6.52415 26.7619 6.4304C27.029 6.33665 27.3116 6.28977 27.6099 6.28977C28.1099 6.28977 28.5673 6.41477 28.9821 6.66477C29.3969 6.91193 29.7293 7.25426 29.9793 7.69176C30.2293 8.12642 30.3543 8.625 30.3543 9.1875C30.3543 9.72727 30.2335 10.2216 29.992 10.6705C29.7506 11.1165 29.4111 11.4716 28.9736 11.7358C28.5389 11.9972 28.0276 12.125 27.4395 12.1193ZM27.4395 11.1818C27.7974 11.1818 28.1185 11.0923 28.4026 10.9134C28.6895 10.7344 28.9153 10.4943 29.0801 10.1932C29.2477 9.89205 29.3315 9.55682 29.3315 9.1875C29.3315 8.8267 29.2506 8.49858 29.0886 8.20312C28.9295 7.90483 28.7094 7.66761 28.4281 7.49148C28.1497 7.31534 27.8315 7.22727 27.4736 7.22727C27.2037 7.22727 26.9523 7.28125 26.7193 7.3892C26.4864 7.49432 26.2818 7.6392 26.1057 7.82386C25.9324 8.00852 25.796 8.22017 25.6966 8.45881C25.5972 8.6946 25.5474 8.94318 25.5474 9.20455C25.5474 9.55114 25.6284 9.875 25.7903 10.1761C25.9551 10.4773 26.1795 10.7202 26.4636 10.9048C26.7506 11.0895 27.0759 11.1818 27.4395 11.1818ZM34.8766 12.1193C34.2346 12.1193 33.6877 11.9446 33.236 11.5952C32.7843 11.2429 32.4391 10.733 32.2005 10.0653C31.9619 9.39489 31.8425 8.58523 31.8425 7.63636C31.8425 6.69318 31.9619 5.88778 32.2005 5.22017C32.442 4.54972 32.7886 4.03835 33.2403 3.68608C33.6948 3.33097 34.2403 3.15341 34.8766 3.15341C35.513 3.15341 36.057 3.33097 36.5087 3.68608C36.9633 4.03835 37.3099 4.54972 37.5485 5.22017C37.79 5.88778 37.9107 6.69318 37.9107 7.63636C37.9107 8.58523 37.7914 9.39489 37.5528 10.0653C37.3141 10.733 36.969 11.2429 36.5173 11.5952C36.0656 11.9446 35.5187 12.1193 34.8766 12.1193ZM34.8766 11.1818C35.513 11.1818 36.0073 10.875 36.3596 10.2614C36.7119 9.64773 36.888 8.77273 36.888 7.63636C36.888 6.88068 36.807 6.23722 36.6451 5.70597C36.486 5.17472 36.2559 4.76989 35.9548 4.49148C35.6565 4.21307 35.2971 4.07386 34.8766 4.07386C34.246 4.07386 33.7531 4.38494 33.3979 5.0071C33.0428 5.62642 32.8653 6.50284 32.8653 7.63636C32.8653 8.39205 32.9448 9.03409 33.1039 9.5625C33.263 10.0909 33.4917 10.4929 33.79 10.7685C34.0911 11.044 34.4533 11.1818 34.8766 11.1818ZM42.3766 12.1193C41.7346 12.1193 41.1877 11.9446 40.736 11.5952C40.2843 11.2429 39.9391 10.733 39.7005 10.0653C39.4619 9.39489 39.3425 8.58523 39.3425 7.63636C39.3425 6.69318 39.4619 5.88778 39.7005 5.22017C39.942 4.54972 40.2886 4.03835 40.7403 3.68608C41.1948 3.33097 41.7403 3.15341 42.3766 3.15341C43.013 3.15341 43.557 3.33097 44.0087 3.68608C44.4633 4.03835 44.8099 4.54972 45.0485 5.22017C45.29 5.88778 45.4107 6.69318 45.4107 7.63636C45.4107 8.58523 45.2914 9.39489 45.0528 10.0653C44.8141 10.733 44.469 11.2429 44.0173 11.5952C43.5656 11.9446 43.0187 12.1193 42.3766 12.1193ZM42.3766 11.1818C43.013 11.1818 43.5073 10.875 43.8596 10.2614C44.2119 9.64773 44.388 8.77273 44.388 7.63636C44.388 6.88068 44.307 6.23722 44.1451 5.70597C43.986 5.17472 43.7559 4.76989 43.4548 4.49148C43.1565 4.21307 42.7971 4.07386 42.3766 4.07386C41.746 4.07386 41.2531 4.38494 40.8979 5.0071C40.5428 5.62642 40.3653 6.50284 40.3653 7.63636C40.3653 8.39205 40.4448 9.03409 40.6039 9.5625C40.763 10.0909 40.9917 10.4929 41.29 10.7685C41.5911 11.044 41.9533 11.1818 42.3766 11.1818ZM49.8766 12.1193C49.2346 12.1193 48.6877 11.9446 48.236 11.5952C47.7843 11.2429 47.4391 10.733 47.2005 10.0653C46.9619 9.39489 46.8425 8.58523 46.8425 7.63636C46.8425 6.69318 46.9619 5.88778 47.2005 5.22017C47.442 4.54972 47.7886 4.03835 48.2403 3.68608C48.6948 3.33097 49.2403 3.15341 49.8766 3.15341C50.513 3.15341 51.057 3.33097 51.5087 3.68608C51.9633 4.03835 52.3099 4.54972 52.5485 5.22017C52.79 5.88778 52.9107 6.69318 52.9107 7.63636C52.9107 8.58523 52.7914 9.39489 52.5528 10.0653C52.3141 10.733 51.969 11.2429 51.5173 11.5952C51.0656 11.9446 50.5187 12.1193 49.8766 12.1193ZM49.8766 11.1818C50.513 11.1818 51.0073 10.875 51.3596 10.2614C51.7119 9.64773 51.888 8.77273 51.888 7.63636C51.888 6.88068 51.807 6.23722 51.6451 5.70597C51.486 5.17472 51.2559 4.76989 50.9548 4.49148C50.6565 4.21307 50.2971 4.07386 49.8766 4.07386C49.246 4.07386 48.7531 4.38494 48.3979 5.0071C48.0428 5.62642 47.8653 6.50284 47.8653 7.63636C47.8653 8.39205 47.9448 9.03409 48.1039 9.5625C48.263 10.0909 48.4917 10.4929 48.79 10.7685C49.0911 11.044 49.4533 11.1818 49.8766 11.1818ZM57.3766 12.1193C56.7346 12.1193 56.1877 11.9446 55.736 11.5952C55.2843 11.2429 54.9391 10.733 54.7005 10.0653C54.4619 9.39489 54.3425 8.58523 54.3425 7.63636C54.3425 6.69318 54.4619 5.88778 54.7005 5.22017C54.942 4.54972 55.2886 4.03835 55.7403 3.68608C56.1948 3.33097 56.7403 3.15341 57.3766 3.15341C58.013 3.15341 58.557 3.33097 59.0087 3.68608C59.4633 4.03835 59.8099 4.54972 60.0485 5.22017C60.29 5.88778 60.4107 6.69318 60.4107 7.63636C60.4107 8.58523 60.2914 9.39489 60.0528 10.0653C59.8141 10.733 59.469 11.2429 59.0173 11.5952C58.5656 11.9446 58.0187 12.1193 57.3766 12.1193ZM57.3766 11.1818C58.013 11.1818 58.5073 10.875 58.8596 10.2614C59.2119 9.64773 59.388 8.77273 59.388 7.63636C59.388 6.88068 59.307 6.23722 59.1451 5.70597C58.986 5.17472 58.7559 4.76989 58.4548 4.49148C58.1565 4.21307 57.7971 4.07386 57.3766 4.07386C56.746 4.07386 56.2531 4.38494 55.8979 5.0071C55.5428 5.62642 55.3653 6.50284 55.3653 7.63636C55.3653 8.39205 55.4448 9.03409 55.6039 9.5625C55.763 10.0909 55.9917 10.4929 56.29 10.7685C56.5911 11.044 56.9533 11.1818 57.3766 11.1818Z" fill="#262627"/>
<path d="M78.8213 286.317H1040.76" stroke="#D2D7E0"/>
<path d="M78.8213 216.289H1040.76" stroke="#D2D7E0"/>
<path d="M78.8213 146.258H1040.76" stroke="#D2D7E0"/>
<path d="M78.8213 76.2285H1040.76" stroke="#D2D7E0"/>
<path d="M78.8213 6.19775H1040.76" stroke="#D2D7E0"/>
<path d="M78.8213 6.19775V286.319" stroke="#D2D7E0"/>
<path d="M111.992 6.19775V286.319" stroke="#D2D7E0"/>
<path d="M145.162 6.19775V286.319" stroke="#D2D7E0"/>
<path d="M178.332 6.19775V286.319" stroke="#D2D7E0"/>
<path d="M211.503 6.19775V286.319" stroke="#D2D7E0"/>
<path d="M244.673 6.19775V286.319" stroke="#D2D7E0"/>
<path d="M277.843 6.19775V286.319" stroke="#D2D7E0"/>
<path d="M311.014 6.19775V286.319" stroke="#D2D7E0"/>
<path d="M344.184 6.19775V286.319" stroke="#D2D7E0"/>
<path d="M377.354 6.19775V286.319" stroke="#D2D7E0"/>
<path d="M443.695 6.19775V286.319" stroke="#D2D7E0"/>
<path d="M510.036 6.19775V286.319" stroke="#D2D7E0"/>
<path d="M576.376 6.19775V286.319" stroke="#D2D7E0"/>
<path d="M642.717 6.19775V286.319" stroke="#D2D7E0"/>
<path d="M709.058 6.19775V286.319" stroke="#D2D7E0"/>
<path d="M775.399 6.19775V286.319" stroke="#D2D7E0"/>
<path d="M841.739 6.19775V286.319" stroke="#D2D7E0"/>
<path d="M908.08 6.19775V286.319" stroke="#D2D7E0"/>
<path d="M974.421 6.19775V286.319" stroke="#D2D7E0"/>
<path d="M1040.76 6.19775V286.319" stroke="#D2D7E0"/>
<path d="M78.8213 195.648L111.992 162.416L145.162 92.9367L178.332 178.369L211.503 144.143L244.673 282.798L277.843 154.909L311.014 214.981L344.184 69.2385L377.354 98.6465L410.525 180.157L443.695 63.5894L476.865 265.127L510.036 148.657L543.206 57.7021L576.376 68.8089L609.547 258.642L642.717 120.706L675.888 208.342L709.058 220.317L742.228 142.826L775.399 153.009L808.569 172.939L841.739 198.776L874.91 207.945L908.08 223.006L941.25 194.023L974.421 179.209L1007.59 266.925L1040.76 272.041" stroke="#0080FF"/>
<path d="M78.8211 200.9C81.4864 200.9 83.6469 198.548 83.6469 195.647C83.6469 192.747 81.4864 190.395 78.8211 190.395C76.1559 190.395 73.9954 192.747 73.9954 195.647C73.9954 198.548 76.1559 200.9 78.8211 200.9Z" fill="white" stroke="#0080FF"/>
<path d="M111.992 167.669C114.657 167.669 116.817 165.317 116.817 162.416C116.817 159.516 114.657 157.164 111.992 157.164C109.326 157.164 107.166 159.516 107.166 162.416C107.166 165.317 109.326 167.669 111.992 167.669Z" fill="white" stroke="#0080FF"/>
<path d="M145.162 98.1886C147.827 98.1886 149.988 95.8371 149.988 92.9364C149.988 90.0356 147.827 87.6841 145.162 87.6841C142.497 87.6841 140.336 90.0356 140.336 92.9364C140.336 95.8371 142.497 98.1886 145.162 98.1886Z" fill="white" stroke="#0080FF"/>
<path d="M178.332 183.621C180.997 183.621 183.158 181.27 183.158 178.369C183.158 175.468 180.997 173.117 178.332 173.117C175.667 173.117 173.506 175.468 173.506 178.369C173.506 181.27 175.667 183.621 178.332 183.621Z" fill="white" stroke="#0080FF"/>
<path d="M211.503 149.395C214.168 149.395 216.328 147.044 216.328 144.143C216.328 141.242 214.168 138.891 211.503 138.891C208.837 138.891 206.677 141.242 206.677 144.143C206.677 147.044 208.837 149.395 211.503 149.395Z" fill="white" stroke="#0080FF"/>
<path d="M244.673 288.05C247.338 288.05 249.499 285.699 249.499 282.798C249.499 279.897 247.338 277.546 244.673 277.546C242.008 277.546 239.847 279.897 239.847 282.798C239.847 285.699 242.008 288.05 244.673 288.05Z" fill="white" stroke="#0080FF"/>
<path d="M277.843 160.161C280.508 160.161 282.669 157.81 282.669 154.909C282.669 152.008 280.508 149.657 277.843 149.657C275.178 149.657 273.017 152.008 273.017 154.909C273.017 157.81 275.178 160.161 277.843 160.161Z" fill="white" stroke="#0080FF"/>
<path d="M311.014 220.233C313.679 220.233 315.839 217.881 315.839 214.98C315.839 212.08 313.679 209.728 311.014 209.728C308.348 209.728 306.188 212.08 306.188 214.98C306.188 217.881 308.348 220.233 311.014 220.233Z" fill="white" stroke="#0080FF"/>
<path d="M344.184 74.4904C346.849 74.4904 349.01 72.1389 349.01 69.2381C349.01 66.3374 346.849 63.9858 344.184 63.9858C341.519 63.9858 339.358 66.3374 339.358 69.2381C339.358 72.1389 341.519 74.4904 344.184 74.4904Z" fill="white" stroke="#0080FF"/>
<path d="M377.354 103.9C380.02 103.9 382.18 101.548 382.18 98.6473C382.18 95.7465 380.02 93.395 377.354 93.395C374.689 93.395 372.529 95.7465 372.529 98.6473C372.529 101.548 374.689 103.9 377.354 103.9Z" fill="white" stroke="#0080FF"/>
<path d="M410.525 185.409C413.19 185.409 415.351 183.058 415.351 180.157C415.351 177.256 413.19 174.905 410.525 174.905C407.86 174.905 405.699 177.256 405.699 180.157C405.699 183.058 407.86 185.409 410.525 185.409Z" fill="white" stroke="#0080FF"/>
<path d="M443.695 68.8415C446.36 68.8415 448.521 66.4899 448.521 63.5892C448.521 60.6884 446.36 58.3369 443.695 58.3369C441.03 58.3369 438.869 60.6884 438.869 63.5892C438.869 66.4899 441.03 68.8415 443.695 68.8415Z" fill="white" stroke="#0080FF"/>
<path d="M476.865 270.38C479.531 270.38 481.691 268.029 481.691 265.128C481.691 262.227 479.531 259.875 476.865 259.875C474.2 259.875 472.04 262.227 472.04 265.128C472.04 268.029 474.2 270.38 476.865 270.38Z" fill="white" stroke="#0080FF"/>
<path d="M510.036 153.909C512.701 153.909 514.862 151.558 514.862 148.657C514.862 145.756 512.701 143.405 510.036 143.405C507.371 143.405 505.21 145.756 505.21 148.657C505.21 151.558 507.371 153.909 510.036 153.909Z" fill="white" stroke="#0080FF"/>
<path d="M543.206 62.9542C545.871 62.9542 548.032 60.6027 548.032 57.702C548.032 54.8012 545.871 52.4497 543.206 52.4497C540.541 52.4497 538.38 54.8012 538.38 57.702C538.38 60.6027 540.541 62.9542 543.206 62.9542Z" fill="white" stroke="#0080FF"/>
<path d="M576.376 74.0612C579.042 74.0612 581.202 71.7097 581.202 68.8089C581.202 65.9082 579.042 63.5566 576.376 63.5566C573.711 63.5566 571.551 65.9082 571.551 68.8089C571.551 71.7097 573.711 74.0612 576.376 74.0612Z" fill="white" stroke="#0080FF"/>
<path d="M609.547 263.896C612.212 263.896 614.373 261.544 614.373 258.643C614.373 255.743 612.212 253.391 609.547 253.391C606.882 253.391 604.721 255.743 604.721 258.643C604.721 261.544 606.882 263.896 609.547 263.896Z" fill="white" stroke="#0080FF"/>
<path d="M642.717 125.959C645.382 125.959 647.543 123.607 647.543 120.706C647.543 117.806 645.382 115.454 642.717 115.454C640.052 115.454 637.891 117.806 637.891 120.706C637.891 123.607 640.052 125.959 642.717 125.959Z" fill="white" stroke="#0080FF"/>
<path d="M675.888 213.593C678.553 213.593 680.713 211.242 680.713 208.341C680.713 205.44 678.553 203.089 675.888 203.089C673.222 203.089 671.062 205.44 671.062 208.341C671.062 211.242 673.222 213.593 675.888 213.593Z" fill="white" stroke="#0080FF"/>
<path d="M709.058 225.57C711.723 225.57 713.884 223.218 713.884 220.318C713.884 217.417 711.723 215.065 709.058 215.065C706.393 215.065 704.232 217.417 704.232 220.318C704.232 223.218 706.393 225.57 709.058 225.57Z" fill="white" stroke="#0080FF"/>
<path d="M742.228 148.078C744.893 148.078 747.054 145.727 747.054 142.826C747.054 139.925 744.893 137.574 742.228 137.574C739.563 137.574 737.402 139.925 737.402 142.826C737.402 145.727 739.563 148.078 742.228 148.078Z" fill="white" stroke="#0080FF"/>
<path d="M775.399 158.261C778.064 158.261 780.224 155.91 780.224 153.009C780.224 150.108 778.064 147.757 775.399 147.757C772.733 147.757 770.573 150.108 770.573 153.009C770.573 155.91 772.733 158.261 775.399 158.261Z" fill="white" stroke="#0080FF"/>
<path d="M808.569 178.191C811.234 178.191 813.395 175.84 813.395 172.939C813.395 170.038 811.234 167.687 808.569 167.687C805.904 167.687 803.743 170.038 803.743 172.939C803.743 175.84 805.904 178.191 808.569 178.191Z" fill="white" stroke="#0080FF"/>
<path d="M841.739 204.028C844.404 204.028 846.565 201.676 846.565 198.776C846.565 195.875 844.404 193.523 841.739 193.523C839.074 193.523 836.913 195.875 836.913 198.776C836.913 201.676 839.074 204.028 841.739 204.028Z" fill="white" stroke="#0080FF"/>
<path d="M874.91 213.197C877.575 213.197 879.735 210.846 879.735 207.945C879.735 205.044 877.575 202.693 874.91 202.693C872.244 202.693 870.084 205.044 870.084 207.945C870.084 210.846 872.244 213.197 874.91 213.197Z" fill="white" stroke="#0080FF"/>
<path d="M908.08 228.258C910.745 228.258 912.906 225.906 912.906 223.006C912.906 220.105 910.745 217.753 908.08 217.753C905.415 217.753 903.254 220.105 903.254 223.006C903.254 225.906 905.415 228.258 908.08 228.258Z" fill="white" stroke="#0080FF"/>
<path d="M941.25 199.275C943.916 199.275 946.076 196.923 946.076 194.022C946.076 191.122 943.916 188.77 941.25 188.77C938.585 188.77 936.425 191.122 936.425 194.022C936.425 196.923 938.585 199.275 941.25 199.275Z" fill="white" stroke="#0080FF"/>
<path d="M974.421 184.462C977.086 184.462 979.246 182.11 979.246 179.209C979.246 176.309 977.086 173.957 974.421 173.957C971.755 173.957 969.595 176.309 969.595 179.209C969.595 182.11 971.755 184.462 974.421 184.462Z" fill="white" stroke="#0080FF"/>
<path d="M1007.59 272.177C1010.26 272.177 1012.42 269.825 1012.42 266.925C1012.42 264.024 1010.26 261.672 1007.59 261.672C1004.93 261.672 1002.77 264.024 1002.77 266.925C1002.77 269.825 1004.93 272.177 1007.59 272.177Z" fill="white" stroke="#0080FF"/>
<path d="M1040.76 277.295C1043.43 277.295 1045.59 274.943 1045.59 272.042C1045.59 269.142 1043.43 266.79 1040.76 266.79C1038.1 266.79 1035.94 269.142 1035.94 272.042C1035.94 274.943 1038.1 277.295 1040.76 277.295Z" fill="white" stroke="#0080FF"/>
<path d="M78.8213 78.7346L111.992 80.9569L145.162 137.892L178.332 203.743L211.503 207.123L244.673 121.729L277.843 153.219L311.014 73.6924L344.184 100.846L377.354 143.895L410.525 218.692L443.695 244.809L476.865 197.076L510.036 241.695L543.206 116.775L576.376 125.263L609.547 272.985L642.717 280.903L675.888 149.344L709.058 196.409L742.228 238.707L775.399 188.752L808.569 65.2515L841.739 109.557L874.91 73.9866L908.08 169.695L941.25 248.455L974.421 67.6232L1007.59 95.9154L1040.76 67.329" stroke="#4CDB24"/>
<path d="M78.8211 83.987C81.4864 83.987 83.6469 81.6354 83.6469 78.7347C83.6469 75.8339 81.4864 73.4824 78.8211 73.4824C76.1559 73.4824 73.9954 75.8339 73.9954 78.7347C73.9954 81.6354 76.1559 83.987 78.8211 83.987Z" fill="white" stroke="#4CDB24"/>
<path d="M111.992 86.2096C114.657 86.2096 116.817 83.8581 116.817 80.9573C116.817 78.0566 114.657 75.7051 111.992 75.7051C109.326 75.7051 107.166 78.0566 107.166 80.9573C107.166 83.8581 109.326 86.2096 111.992 86.2096Z" fill="white" stroke="#4CDB24"/>
<path d="M145.162 143.144C147.827 143.144 149.988 140.792 149.988 137.891C149.988 134.991 147.827 132.639 145.162 132.639C142.497 132.639 140.336 134.991 140.336 137.891C140.336 140.792 142.497 143.144 145.162 143.144Z" fill="white" stroke="#4CDB24"/>
<path d="M178.332 208.995C180.997 208.995 183.158 206.644 183.158 203.743C183.158 200.842 180.997 198.491 178.332 198.491C175.667 198.491 173.506 200.842 173.506 203.743C173.506 206.644 175.667 208.995 178.332 208.995Z" fill="white" stroke="#4CDB24"/>
<path d="M211.503 212.375C214.168 212.375 216.328 210.024 216.328 207.123C216.328 204.222 214.168 201.871 211.503 201.871C208.837 201.871 206.677 204.222 206.677 207.123C206.677 210.024 208.837 212.375 211.503 212.375Z" fill="white" stroke="#4CDB24"/>
<path d="M244.673 126.981C247.338 126.981 249.499 124.629 249.499 121.728C249.499 118.828 247.338 116.476 244.673 116.476C242.008 116.476 239.847 118.828 239.847 121.728C239.847 124.629 242.008 126.981 244.673 126.981Z" fill="white" stroke="#4CDB24"/>
<path d="M277.843 158.471C280.508 158.471 282.669 156.12 282.669 153.219C282.669 150.318 280.508 147.967 277.843 147.967C275.178 147.967 273.017 150.318 273.017 153.219C273.017 156.12 275.178 158.471 277.843 158.471Z" fill="white" stroke="#4CDB24"/>
<path d="M311.014 78.9445C313.679 78.9445 315.839 76.593 315.839 73.6922C315.839 70.7915 313.679 68.4399 311.014 68.4399C308.348 68.4399 306.188 70.7915 306.188 73.6922C306.188 76.593 308.348 78.9445 311.014 78.9445Z" fill="white" stroke="#4CDB24"/>
<path d="M344.184 106.098C346.849 106.098 349.01 103.746 349.01 100.846C349.01 97.9448 346.849 95.5933 344.184 95.5933C341.519 95.5933 339.358 97.9448 339.358 100.846C339.358 103.746 341.519 106.098 344.184 106.098Z" fill="white" stroke="#4CDB24"/>
<path d="M377.354 149.148C380.02 149.148 382.18 146.796 382.18 143.895C382.18 140.995 380.02 138.643 377.354 138.643C374.689 138.643 372.529 140.995 372.529 143.895C372.529 146.796 374.689 149.148 377.354 149.148Z" fill="white" stroke="#4CDB24"/>
<path d="M410.525 223.945C413.19 223.945 415.351 221.593 415.351 218.693C415.351 215.792 413.19 213.44 410.525 213.44C407.86 213.44 405.699 215.792 405.699 218.693C405.699 221.593 407.86 223.945 410.525 223.945Z" fill="white" stroke="#4CDB24"/>
<path d="M443.695 250.062C446.36 250.062 448.521 247.71 448.521 244.809C448.521 241.909 446.36 239.557 443.695 239.557C441.03 239.557 438.869 241.909 438.869 244.809C438.869 247.71 441.03 250.062 443.695 250.062Z" fill="white" stroke="#4CDB24"/>
<path d="M476.865 202.329C479.531 202.329 481.691 199.977 481.691 197.076C481.691 194.176 479.531 191.824 476.865 191.824C474.2 191.824 472.04 194.176 472.04 197.076C472.04 199.977 474.2 202.329 476.865 202.329Z" fill="white" stroke="#4CDB24"/>
<path d="M510.036 246.946C512.701 246.946 514.862 244.595 514.862 241.694C514.862 238.793 512.701 236.442 510.036 236.442C507.371 236.442 505.21 238.793 505.21 241.694C505.21 244.595 507.371 246.946 510.036 246.946Z" fill="white" stroke="#4CDB24"/>
<path d="M543.206 122.027C545.871 122.027 548.032 119.675 548.032 116.775C548.032 113.874 545.871 111.522 543.206 111.522C540.541 111.522 538.38 113.874 538.38 116.775C538.38 119.675 540.541 122.027 543.206 122.027Z" fill="white" stroke="#4CDB24"/>
<path d="M576.376 130.515C579.042 130.515 581.202 128.163 581.202 125.263C581.202 122.362 579.042 120.01 576.376 120.01C573.711 120.01 571.551 122.362 571.551 125.263C571.551 128.163 573.711 130.515 576.376 130.515Z" fill="white" stroke="#4CDB24"/>
<path d="M609.547 278.237C612.212 278.237 614.373 275.885 614.373 272.985C614.373 270.084 612.212 267.732 609.547 267.732C606.882 267.732 604.721 270.084 604.721 272.985C604.721 275.885 606.882 278.237 609.547 278.237Z" fill="white" stroke="#4CDB24"/>
<path d="M642.717 286.155C645.382 286.155 647.543 283.803 647.543 280.903C647.543 278.002 645.382 275.65 642.717 275.65C640.052 275.65 637.891 278.002 637.891 280.903C637.891 283.803 640.052 286.155 642.717 286.155Z" fill="white" stroke="#4CDB24"/>
<path d="M675.888 154.596C678.553 154.596 680.713 152.244 680.713 149.344C680.713 146.443 678.553 144.091 675.888 144.091C673.222 144.091 671.062 146.443 671.062 149.344C671.062 152.244 673.222 154.596 675.888 154.596Z" fill="white" stroke="#4CDB24"/>
<path d="M709.058 201.661C711.723 201.661 713.884 199.31 713.884 196.409C713.884 193.508 711.723 191.157 709.058 191.157C706.393 191.157 704.232 193.508 704.232 196.409C704.232 199.31 706.393 201.661 709.058 201.661Z" fill="white" stroke="#4CDB24"/>
<path d="M742.228 243.96C744.893 243.96 747.054 241.608 747.054 238.707C747.054 235.807 744.893 233.455 742.228 233.455C739.563 233.455 737.402 235.807 737.402 238.707C737.402 241.608 739.563 243.96 742.228 243.96Z" fill="white" stroke="#4CDB24"/>
<path d="M775.399 194.004C778.064 194.004 780.224 191.653 780.224 188.752C780.224 185.851 778.064 183.5 775.399 183.5C772.733 183.5 770.573 185.851 770.573 188.752C770.573 191.653 772.733 194.004 775.399 194.004Z" fill="white" stroke="#4CDB24"/>
<path d="M808.569 70.5041C811.234 70.5041 813.395 68.1525 813.395 65.2518C813.395 62.351 811.234 59.9995 808.569 59.9995C805.904 59.9995 803.743 62.351 803.743 65.2518C803.743 68.1525 805.904 70.5041 808.569 70.5041Z" fill="white" stroke="#4CDB24"/>
<path d="M841.739 114.81C844.404 114.81 846.565 112.458 846.565 109.557C846.565 106.657 844.404 104.305 841.739 104.305C839.074 104.305 836.913 106.657 836.913 109.557C836.913 112.458 839.074 114.81 841.739 114.81Z" fill="white" stroke="#4CDB24"/>
<path d="M874.91 79.2389C877.575 79.2389 879.735 76.8874 879.735 73.9866C879.735 71.0859 877.575 68.7344 874.91 68.7344C872.244 68.7344 870.084 71.0859 870.084 73.9866C870.084 76.8874 872.244 79.2389 874.91 79.2389Z" fill="white" stroke="#4CDB24"/>
<path d="M908.08 174.946C910.745 174.946 912.906 172.595 912.906 169.694C912.906 166.793 910.745 164.442 908.08 164.442C905.415 164.442 903.254 166.793 903.254 169.694C903.254 172.595 905.415 174.946 908.08 174.946Z" fill="white" stroke="#4CDB24"/>
<path d="M941.25 253.708C943.916 253.708 946.076 251.356 946.076 248.455C946.076 245.555 943.916 243.203 941.25 243.203C938.585 243.203 936.425 245.555 936.425 248.455C936.425 251.356 938.585 253.708 941.25 253.708Z" fill="white" stroke="#4CDB24"/>
<path d="M974.421 72.8751C977.086 72.8751 979.246 70.5236 979.246 67.6229C979.246 64.7221 977.086 62.3706 974.421 62.3706C971.755 62.3706 969.595 64.7221 969.595 67.6229C969.595 70.5236 971.755 72.8751 974.421 72.8751Z" fill="white" stroke="#4CDB24"/>
<path d="M1007.59 101.168C1010.26 101.168 1012.42 98.8161 1012.42 95.9154C1012.42 93.0146 1010.26 90.6631 1007.59 90.6631C1004.93 90.6631 1002.77 93.0146 1002.77 95.9154C1002.77 98.8161 1004.93 101.168 1007.59 101.168Z" fill="white" stroke="#4CDB24"/>
<path d="M1040.76 72.5812C1043.43 72.5812 1045.59 70.2297 1045.59 67.3289C1045.59 64.4282 1043.43 62.0767 1040.76 62.0767C1038.1 62.0767 1035.94 64.4282 1035.94 67.3289C1035.94 70.2297 1038.1 72.5812 1040.76 72.5812Z" fill="white" stroke="#4CDB24"/>
<path d="M78.8213 236.196L111.992 204.659L145.162 237.018L178.332 67.7642L211.503 279.615L244.673 185.849L277.843 237.714L311.014 196.302L344.184 171.684L377.354 161.171L410.525 243.297L443.695 109.61L476.865 107.308L510.036 227.965L543.206 161.147L576.376 185.373L609.547 196.578L642.717 118.069L675.888 222.694L709.058 142.225L742.228 159.378L775.399 148.981L808.569 239.59L841.739 174.901L874.91 227.447L908.08 152.972L941.25 252.737L974.421 252.583L1007.59 254.082L1040.76 243.363" stroke="#FF7300"/>
<path d="M78.8211 241.448C81.4864 241.448 83.6469 239.097 83.6469 236.196C83.6469 233.295 81.4864 230.944 78.8211 230.944C76.1559 230.944 73.9954 233.295 73.9954 236.196C73.9954 239.097 76.1559 241.448 78.8211 241.448Z" fill="white" stroke="#FF7300"/>
<path d="M111.992 209.911C114.657 209.911 116.817 207.559 116.817 204.659C116.817 201.758 114.657 199.406 111.992 199.406C109.326 199.406 107.166 201.758 107.166 204.659C107.166 207.559 109.326 209.911 111.992 209.911Z" fill="white" stroke="#FF7300"/>
<path d="M145.162 242.271C147.827 242.271 149.988 239.919 149.988 237.018C149.988 234.118 147.827 231.766 145.162 231.766C142.497 231.766 140.336 234.118 140.336 237.018C140.336 239.919 142.497 242.271 145.162 242.271Z" fill="white" stroke="#FF7300"/>
<path d="M178.332 73.0163C180.997 73.0163 183.158 70.6647 183.158 67.764C183.158 64.8632 180.997 62.5117 178.332 62.5117C175.667 62.5117 173.506 64.8632 173.506 67.764C173.506 70.6647 175.667 73.0163 178.332 73.0163Z" fill="white" stroke="#FF7300"/>
<path d="M211.503 284.867C214.168 284.867 216.328 282.516 216.328 279.615C216.328 276.714 214.168 274.363 211.503 274.363C208.837 274.363 206.677 276.714 206.677 279.615C206.677 282.516 208.837 284.867 211.503 284.867Z" fill="white" stroke="#FF7300"/>
<path d="M244.673 191.102C247.338 191.102 249.499 188.751 249.499 185.85C249.499 182.949 247.338 180.598 244.673 180.598C242.008 180.598 239.847 182.949 239.847 185.85C239.847 188.751 242.008 191.102 244.673 191.102Z" fill="white" stroke="#FF7300"/>
<path d="M277.843 242.965C280.508 242.965 282.669 240.613 282.669 237.713C282.669 234.812 280.508 232.46 277.843 232.46C275.178 232.46 273.017 234.812 273.017 237.713C273.017 240.613 275.178 242.965 277.843 242.965Z" fill="white" stroke="#FF7300"/>
<path d="M311.014 201.554C313.679 201.554 315.839 199.203 315.839 196.302C315.839 193.401 313.679 191.05 311.014 191.05C308.348 191.05 306.188 193.401 306.188 196.302C306.188 199.203 308.348 201.554 311.014 201.554Z" fill="white" stroke="#FF7300"/>
<path d="M344.184 176.937C346.849 176.937 349.01 174.586 349.01 171.685C349.01 168.784 346.849 166.433 344.184 166.433C341.519 166.433 339.358 168.784 339.358 171.685C339.358 174.586 341.519 176.937 344.184 176.937Z" fill="white" stroke="#FF7300"/>
<path d="M377.354 166.423C380.02 166.423 382.18 164.071 382.18 161.17C382.18 158.269 380.02 155.918 377.354 155.918C374.689 155.918 372.529 158.269 372.529 161.17C372.529 164.071 374.689 166.423 377.354 166.423Z" fill="white" stroke="#FF7300"/>
<path d="M410.525 248.549C413.19 248.549 415.351 246.197 415.351 243.297C415.351 240.396 413.19 238.044 410.525 238.044C407.86 238.044 405.699 240.396 405.699 243.297C405.699 246.197 407.86 248.549 410.525 248.549Z" fill="white" stroke="#FF7300"/>
<path d="M443.695 114.861C446.36 114.861 448.521 112.51 448.521 109.609C448.521 106.708 446.36 104.357 443.695 104.357C441.03 104.357 438.869 106.708 438.869 109.609C438.869 112.51 441.03 114.861 443.695 114.861Z" fill="white" stroke="#FF7300"/>
<path d="M476.865 112.56C479.531 112.56 481.691 110.208 481.691 107.307C481.691 104.407 479.531 102.055 476.865 102.055C474.2 102.055 472.04 104.407 472.04 107.307C472.04 110.208 474.2 112.56 476.865 112.56Z" fill="white" stroke="#FF7300"/>
<path d="M510.036 233.217C512.701 233.217 514.862 230.866 514.862 227.965C514.862 225.064 512.701 222.713 510.036 222.713C507.371 222.713 505.21 225.064 505.21 227.965C505.21 230.866 507.371 233.217 510.036 233.217Z" fill="white" stroke="#FF7300"/>
<path d="M543.206 166.4C545.871 166.4 548.032 164.049 548.032 161.148C548.032 158.247 545.871 155.896 543.206 155.896C540.541 155.896 538.38 158.247 538.38 161.148C538.38 164.049 540.541 166.4 543.206 166.4Z" fill="white" stroke="#FF7300"/>
<path d="M576.376 190.624C579.042 190.624 581.202 188.273 581.202 185.372C581.202 182.471 579.042 180.12 576.376 180.12C573.711 180.12 571.551 182.471 571.551 185.372C571.551 188.273 573.711 190.624 576.376 190.624Z" fill="white" stroke="#FF7300"/>
<path d="M609.547 201.831C612.212 201.831 614.373 199.479 614.373 196.578C614.373 193.678 612.212 191.326 609.547 191.326C606.882 191.326 604.721 193.678 604.721 196.578C604.721 199.479 606.882 201.831 609.547 201.831Z" fill="white" stroke="#FF7300"/>
<path d="M642.717 123.321C645.382 123.321 647.543 120.969 647.543 118.069C647.543 115.168 645.382 112.816 642.717 112.816C640.052 112.816 637.891 115.168 637.891 118.069C637.891 120.969 640.052 123.321 642.717 123.321Z" fill="white" stroke="#FF7300"/>
<path d="M675.888 227.946C678.553 227.946 680.713 225.594 680.713 222.694C680.713 219.793 678.553 217.441 675.888 217.441C673.222 217.441 671.062 219.793 671.062 222.694C671.062 225.594 673.222 227.946 675.888 227.946Z" fill="white" stroke="#FF7300"/>
<path d="M709.058 147.478C711.723 147.478 713.884 145.126 713.884 142.225C713.884 139.325 711.723 136.973 709.058 136.973C706.393 136.973 704.232 139.325 704.232 142.225C704.232 145.126 706.393 147.478 709.058 147.478Z" fill="white" stroke="#FF7300"/>
<path d="M742.228 164.631C744.893 164.631 747.054 162.279 747.054 159.378C747.054 156.477 744.893 154.126 742.228 154.126C739.563 154.126 737.402 156.477 737.402 159.378C737.402 162.279 739.563 164.631 742.228 164.631Z" fill="white" stroke="#FF7300"/>
<path d="M775.399 154.232C778.064 154.232 780.224 151.881 780.224 148.98C780.224 146.079 778.064 143.728 775.399 143.728C772.733 143.728 770.573 146.079 770.573 148.98C770.573 151.881 772.733 154.232 775.399 154.232Z" fill="white" stroke="#FF7300"/>
<path d="M808.569 244.842C811.234 244.842 813.395 242.49 813.395 239.59C813.395 236.689 811.234 234.337 808.569 234.337C805.904 234.337 803.743 236.689 803.743 239.59C803.743 242.49 805.904 244.842 808.569 244.842Z" fill="white" stroke="#FF7300"/>
<path d="M841.739 180.153C844.404 180.153 846.565 177.802 846.565 174.901C846.565 172 844.404 169.649 841.739 169.649C839.074 169.649 836.913 172 836.913 174.901C836.913 177.802 839.074 180.153 841.739 180.153Z" fill="white" stroke="#FF7300"/>
<path d="M874.91 232.699C877.575 232.699 879.735 230.348 879.735 227.447C879.735 224.546 877.575 222.195 874.91 222.195C872.244 222.195 870.084 224.546 870.084 227.447C870.084 230.348 872.244 232.699 874.91 232.699Z" fill="white" stroke="#FF7300"/>
<path d="M908.08 158.225C910.745 158.225 912.906 155.873 912.906 152.972C912.906 150.072 910.745 147.72 908.08 147.72C905.415 147.72 903.254 150.072 903.254 152.972C903.254 155.873 905.415 158.225 908.08 158.225Z" fill="white" stroke="#FF7300"/>
<path d="M941.25 257.989C943.916 257.989 946.076 255.637 946.076 252.737C946.076 249.836 943.916 247.484 941.25 247.484C938.585 247.484 936.425 249.836 936.425 252.737C936.425 255.637 938.585 257.989 941.25 257.989Z" fill="white" stroke="#FF7300"/>
<path d="M974.421 257.835C977.086 257.835 979.246 255.484 979.246 252.583C979.246 249.682 977.086 247.331 974.421 247.331C971.755 247.331 969.595 249.682 969.595 252.583C969.595 255.484 971.755 257.835 974.421 257.835Z" fill="white" stroke="#FF7300"/>
<path d="M1007.59 259.335C1010.26 259.335 1012.42 256.983 1012.42 254.082C1012.42 251.182 1010.26 248.83 1007.59 248.83C1004.93 248.83 1002.77 251.182 1002.77 254.082C1002.77 256.983 1004.93 259.335 1007.59 259.335Z" fill="white" stroke="#FF7300"/>
<path d="M1040.76 248.615C1043.43 248.615 1045.59 246.263 1045.59 243.363C1045.59 240.462 1043.43 238.11 1040.76 238.11C1038.1 238.11 1035.94 240.462 1035.94 243.363C1035.94 246.263 1038.1 248.615 1040.76 248.615Z" fill="white" stroke="#FF7300"/>
<rect y="372" width="16" height="16" rx="4" fill="#4CDB24"/>
<path d="M25.1937 385H23.5462V376.4H20.6204V375.006H28.1126V376.4H25.1937V385ZM36.214 381.199C36.214 381.828 36.132 382.386 35.9679 382.874C35.8039 383.362 35.5646 383.774 35.2502 384.111C34.9357 384.444 34.5574 384.699 34.1154 384.877C33.6733 385.05 33.1743 385.137 32.6183 385.137C32.0988 385.137 31.6226 385.05 31.1896 384.877C30.7567 384.699 30.3807 384.444 30.0617 384.111C29.7472 383.774 29.5034 383.362 29.3302 382.874C29.1571 382.386 29.0705 381.828 29.0705 381.199C29.0705 380.365 29.214 379.659 29.5011 379.08C29.7928 378.497 30.2075 378.052 30.7453 377.747C31.283 377.442 31.9233 377.289 32.6662 377.289C33.3634 377.289 33.9787 377.442 34.5119 377.747C35.0451 378.052 35.4621 378.497 35.7629 379.08C36.0636 379.663 36.214 380.37 36.214 381.199ZM30.7248 381.199C30.7248 381.751 30.7908 382.222 30.923 382.614C31.0597 383.006 31.2694 383.307 31.5519 383.517C31.8345 383.722 32.199 383.824 32.6457 383.824C33.0923 383.824 33.4569 383.722 33.7394 383.517C34.022 383.307 34.2293 383.006 34.3615 382.614C34.4936 382.222 34.5597 381.751 34.5597 381.199C34.5597 380.648 34.4936 380.181 34.3615 379.798C34.2293 379.41 34.022 379.117 33.7394 378.916C33.4569 378.711 33.09 378.608 32.6388 378.608C31.9735 378.608 31.4881 378.832 31.1828 379.278C30.8774 379.725 30.7248 380.365 30.7248 381.199ZM40.9111 383.838C41.1208 383.838 41.3281 383.82 41.5332 383.783C41.7383 383.742 41.9251 383.694 42.0938 383.64V384.856C41.916 384.934 41.6859 385 41.4033 385.055C41.1208 385.109 40.8268 385.137 40.5215 385.137C40.0931 385.137 39.708 385.066 39.3662 384.925C39.0244 384.779 38.7533 384.531 38.5527 384.18C38.3522 383.829 38.252 383.343 38.252 382.724V378.656H37.2197V377.938L38.3271 377.371L38.8535 375.751H39.8652V377.433H42.0322V378.656H39.8652V382.703C39.8652 383.086 39.9609 383.371 40.1523 383.558C40.3438 383.744 40.5967 383.838 40.9111 383.838ZM46.6336 377.289C47.5907 377.289 48.313 377.501 48.8006 377.925C49.2928 378.349 49.5389 379.009 49.5389 379.907V385H48.3973L48.0897 383.927H48.035C47.8208 384.2 47.5998 384.426 47.3719 384.604C47.144 384.781 46.8797 384.913 46.5789 385C46.2827 385.091 45.9204 385.137 45.492 385.137C45.0409 385.137 44.6375 385.055 44.2821 384.891C43.9266 384.722 43.6463 384.467 43.4412 384.125C43.2362 383.783 43.1336 383.35 43.1336 382.826C43.1336 382.047 43.423 381.461 44.0018 381.069C44.5851 380.677 45.4647 380.461 46.6405 380.42L47.953 380.372V379.976C47.953 379.451 47.8299 379.078 47.5838 378.854C47.3423 378.631 47.0005 378.52 46.5584 378.52C46.1802 378.52 45.8133 378.574 45.4579 378.684C45.1024 378.793 44.756 378.927 44.4188 379.087L43.8993 377.952C44.2684 377.756 44.6877 377.597 45.1571 377.474C45.631 377.351 46.1232 377.289 46.6336 377.289ZM47.9461 381.384L46.9686 381.418C46.1665 381.445 45.6037 381.582 45.2801 381.828C44.9565 382.074 44.7948 382.411 44.7948 382.84C44.7948 383.214 44.9064 383.487 45.1297 383.66C45.353 383.829 45.647 383.913 46.0116 383.913C46.5676 383.913 47.0278 383.756 47.3924 383.441C47.7616 383.122 47.9461 382.655 47.9461 382.04V381.384ZM53.4362 385H51.8229V374.363H53.4362V385Z" fill="#262627"/>
<rect x="71" y="372" width="16" height="16" rx="4" fill="#0080FF"/>
<path d="M100.331 385H98.6976V380.488H94.0902V385H92.4495V375.006H94.0902V379.094H98.6976V375.006H100.331V385ZM109.547 381.199C109.547 381.828 109.465 382.386 109.301 382.874C109.137 383.362 108.898 383.774 108.583 384.111C108.269 384.444 107.89 384.699 107.448 384.877C107.006 385.05 106.507 385.137 105.951 385.137C105.432 385.137 104.956 385.05 104.523 384.877C104.09 384.699 103.714 384.444 103.395 384.111C103.08 383.774 102.836 383.362 102.663 382.874C102.49 382.386 102.403 381.828 102.403 381.199C102.403 380.365 102.547 379.659 102.834 379.08C103.126 378.497 103.541 378.052 104.078 377.747C104.616 377.442 105.256 377.289 105.999 377.289C106.696 377.289 107.312 377.442 107.845 377.747C108.378 378.052 108.795 378.497 109.096 379.08C109.397 379.663 109.547 380.37 109.547 381.199ZM104.058 381.199C104.058 381.751 104.124 382.222 104.256 382.614C104.393 383.006 104.602 383.307 104.885 383.517C105.167 383.722 105.532 383.824 105.979 383.824C106.425 383.824 106.79 383.722 107.072 383.517C107.355 383.307 107.562 383.006 107.694 382.614C107.827 382.222 107.893 381.751 107.893 381.199C107.893 380.648 107.827 380.181 107.694 379.798C107.562 379.41 107.355 379.117 107.072 378.916C106.79 378.711 106.423 378.608 105.972 378.608C105.306 378.608 104.821 378.832 104.516 379.278C104.21 379.725 104.058 380.365 104.058 381.199ZM114.244 383.838C114.454 383.838 114.661 383.82 114.866 383.783C115.071 383.742 115.258 383.694 115.427 383.64V384.856C115.249 384.934 115.019 385 114.736 385.055C114.454 385.109 114.16 385.137 113.854 385.137C113.426 385.137 113.041 385.066 112.699 384.925C112.357 384.779 112.086 384.531 111.886 384.18C111.685 383.829 111.585 383.343 111.585 382.724V378.656H110.553V377.938L111.66 377.371L112.187 375.751H113.198V377.433H115.365V378.656H113.198V382.703C113.198 383.086 113.294 383.371 113.485 383.558C113.677 383.744 113.93 383.838 114.244 383.838ZM120.014 377.289C120.689 377.289 121.268 377.428 121.751 377.706C122.234 377.984 122.605 378.378 122.865 378.889C123.125 379.399 123.255 380.01 123.255 380.721V381.582H118.203C118.221 382.316 118.417 382.881 118.791 383.277C119.169 383.674 119.698 383.872 120.377 383.872C120.86 383.872 121.293 383.826 121.676 383.735C122.063 383.64 122.462 383.501 122.872 383.318V384.624C122.494 384.802 122.109 384.932 121.717 385.014C121.325 385.096 120.855 385.137 120.308 385.137C119.566 385.137 118.912 384.993 118.347 384.706C117.786 384.414 117.346 383.981 117.027 383.407C116.713 382.833 116.556 382.12 116.556 381.268C116.556 380.42 116.699 379.7 116.986 379.107C117.273 378.515 117.677 378.064 118.196 377.754C118.716 377.444 119.322 377.289 120.014 377.289ZM120.014 378.499C119.509 378.499 119.098 378.663 118.784 378.991C118.474 379.319 118.292 379.8 118.237 380.434H121.682C121.678 380.055 121.614 379.72 121.491 379.429C121.373 379.137 121.19 378.909 120.944 378.745C120.703 378.581 120.393 378.499 120.014 378.499ZM126.715 385H125.101V374.363H126.715V385Z" fill="#262627"/>
<rect x="144" y="372" width="16" height="16" rx="4" fill="#FF7300"/>
<path d="M172.935 385H171.048L167.938 380.461L166.953 381.261V385H165.312V375.006H166.953V379.784C167.154 379.538 167.356 379.292 167.562 379.046C167.767 378.8 167.972 378.554 168.177 378.308L170.993 375.006H172.846L169.113 379.381L172.935 385ZM177.139 377.289C177.814 377.289 178.393 377.428 178.876 377.706C179.359 377.984 179.73 378.378 179.99 378.889C180.25 379.399 180.38 380.01 180.38 380.721V381.582H175.328C175.346 382.316 175.542 382.881 175.916 383.277C176.294 383.674 176.823 383.872 177.502 383.872C177.985 383.872 178.418 383.826 178.801 383.735C179.188 383.64 179.587 383.501 179.997 383.318V384.624C179.619 384.802 179.234 384.932 178.842 385.014C178.45 385.096 177.98 385.137 177.433 385.137C176.691 385.137 176.037 384.993 175.472 384.706C174.911 384.414 174.471 383.981 174.152 383.407C173.838 382.833 173.681 382.12 173.681 381.268C173.681 380.42 173.824 379.7 174.111 379.107C174.398 378.515 174.802 378.064 175.321 377.754C175.841 377.444 176.447 377.289 177.139 377.289ZM177.139 378.499C176.634 378.499 176.223 378.663 175.909 378.991C175.599 379.319 175.417 379.8 175.362 380.434H178.807C178.803 380.055 178.739 379.72 178.616 379.429C178.498 379.137 178.315 378.909 178.069 378.745C177.828 378.581 177.518 378.499 177.139 378.499ZM186.061 377.289C186.189 377.289 186.328 377.296 186.478 377.31C186.629 377.323 186.758 377.341 186.868 377.364L186.717 378.868C186.622 378.841 186.503 378.82 186.362 378.807C186.225 378.793 186.102 378.786 185.993 378.786C185.706 378.786 185.432 378.834 185.173 378.93C184.913 379.021 184.683 379.162 184.482 379.354C184.282 379.54 184.124 379.775 184.01 380.058C183.896 380.34 183.84 380.668 183.84 381.042V385H182.226V377.433H183.484L183.703 378.766H183.778C183.928 378.497 184.115 378.251 184.339 378.027C184.562 377.804 184.817 377.626 185.104 377.494C185.396 377.357 185.715 377.289 186.061 377.289ZM191.319 377.289C191.993 377.289 192.572 377.428 193.055 377.706C193.538 377.984 193.91 378.378 194.169 378.889C194.429 379.399 194.559 380.01 194.559 380.721V381.582H189.507C189.526 382.316 189.722 382.881 190.095 383.277C190.473 383.674 191.002 383.872 191.681 383.872C192.164 383.872 192.597 383.826 192.98 383.735C193.367 383.64 193.766 383.501 194.176 383.318V384.624C193.798 384.802 193.413 384.932 193.021 385.014C192.629 385.096 192.16 385.137 191.613 385.137C190.87 385.137 190.216 384.993 189.651 384.706C189.09 384.414 188.651 383.981 188.332 383.407C188.017 382.833 187.86 382.12 187.86 381.268C187.86 380.42 188.003 379.7 188.291 379.107C188.578 378.515 188.981 378.064 189.501 377.754C190.02 377.444 190.626 377.289 191.319 377.289ZM191.319 378.499C190.813 378.499 190.403 378.663 190.088 378.991C189.779 379.319 189.596 379.8 189.542 380.434H192.987C192.982 380.055 192.918 379.72 192.795 379.429C192.677 379.137 192.495 378.909 192.249 378.745C192.007 378.581 191.697 378.499 191.319 378.499ZM199.222 383.838C199.432 383.838 199.639 383.82 199.844 383.783C200.049 383.742 200.236 383.694 200.405 383.64V384.856C200.227 384.934 199.997 385 199.714 385.055C199.432 385.109 199.138 385.137 198.832 385.137C198.404 385.137 198.019 385.066 197.677 384.925C197.335 384.779 197.064 384.531 196.864 384.18C196.663 383.829 196.563 383.343 196.563 382.724V378.656H195.531V377.938L196.638 377.371L197.164 375.751H198.176V377.433H200.343V378.656H198.176V382.703C198.176 383.086 198.272 383.371 198.463 383.558C198.655 383.744 198.908 383.838 199.222 383.838ZM204.945 377.289C205.902 377.289 206.624 377.501 207.112 377.925C207.604 378.349 207.85 379.009 207.85 379.907V385H206.708L206.401 383.927H206.346C206.132 384.2 205.911 384.426 205.683 384.604C205.455 384.781 205.191 384.913 204.89 385C204.594 385.091 204.231 385.137 203.803 385.137C203.352 385.137 202.948 385.055 202.593 384.891C202.237 384.722 201.957 384.467 201.752 384.125C201.547 383.783 201.445 383.35 201.445 382.826C201.445 382.047 201.734 381.461 202.313 381.069C202.896 380.677 203.776 380.461 204.951 380.42L206.264 380.372V379.976C206.264 379.451 206.141 379.078 205.895 378.854C205.653 378.631 205.311 378.52 204.869 378.52C204.491 378.52 204.124 378.574 203.769 378.684C203.413 378.793 203.067 378.927 202.73 379.087L202.21 377.952C202.579 377.756 202.999 377.597 203.468 377.474C203.942 377.351 204.434 377.289 204.945 377.289ZM206.257 381.384L205.279 381.418C204.477 381.445 203.915 381.582 203.591 381.828C203.267 382.074 203.106 382.411 203.106 382.84C203.106 383.214 203.217 383.487 203.441 383.66C203.664 383.829 203.958 383.913 204.322 383.913C204.878 383.913 205.339 383.756 205.703 383.441C206.072 383.122 206.257 382.655 206.257 382.04V381.384ZM220.163 385L219.185 382.225H215.364L214.387 385H212.657L216.376 374.965H218.194L221.906 385H220.163ZM218.762 380.816L217.811 378.082C217.775 377.964 217.723 377.797 217.654 377.583C217.586 377.364 217.517 377.143 217.449 376.92C217.381 376.692 217.324 376.501 217.278 376.346C217.233 376.533 217.176 376.742 217.107 376.975C217.044 377.202 216.98 377.417 216.916 377.617C216.857 377.818 216.811 377.973 216.779 378.082L215.822 380.816H218.762ZM226.979 377.289C227.877 377.289 228.597 377.617 229.139 378.273C229.686 378.93 229.96 379.905 229.96 381.199C229.96 382.056 229.832 382.778 229.577 383.366C229.326 383.95 228.973 384.392 228.517 384.692C228.066 384.989 227.54 385.137 226.938 385.137C226.555 385.137 226.223 385.087 225.94 384.986C225.658 384.886 225.416 384.756 225.216 384.597C225.015 384.433 224.846 384.255 224.71 384.063H224.614C224.637 384.246 224.657 384.449 224.676 384.672C224.698 384.891 224.71 385.091 224.71 385.273V388.356H223.096V377.433H224.409L224.634 378.479H224.71C224.851 378.264 225.022 378.066 225.222 377.884C225.427 377.701 225.674 377.558 225.961 377.453C226.252 377.344 226.592 377.289 226.979 377.289ZM226.549 378.602C226.106 378.602 225.751 378.69 225.482 378.868C225.218 379.041 225.024 379.303 224.901 379.654C224.783 380.005 224.719 380.445 224.71 380.974V381.199C224.71 381.76 224.767 382.236 224.881 382.628C224.999 383.015 225.193 383.312 225.462 383.517C225.735 383.717 226.104 383.817 226.569 383.817C226.961 383.817 227.285 383.71 227.54 383.496C227.8 383.282 227.993 382.977 228.121 382.58C228.248 382.184 228.312 381.716 228.312 381.179C228.312 380.363 228.166 379.729 227.875 379.278C227.588 378.827 227.146 378.602 226.549 378.602ZM233.461 377.433V385H231.854V377.433H233.461ZM232.668 374.534C232.914 374.534 233.126 374.6 233.303 374.732C233.486 374.865 233.577 375.092 233.577 375.416C233.577 375.735 233.486 375.963 233.303 376.1C233.126 376.232 232.914 376.298 232.668 376.298C232.412 376.298 232.196 376.232 232.018 376.1C231.845 375.963 231.758 375.735 231.758 375.416C231.758 375.092 231.845 374.865 232.018 374.732C232.196 374.6 232.412 374.534 232.668 374.534Z" fill="#262627"/>
</svg>
