<svg width="19" height="21" viewBox="0 0 19 21" fill="none" xmlns="http://www.w3.org/2000/svg">
<path d="M0.799805 20.5L2.2998 19L3.7998 20.5L5.2998 19L6.7998 20.5L8.2998 19L9.7998 20.5L11.2998 19L12.7998 20.5L14.2998 19L15.7998 20.5L17.2998 19L18.7998 20.5V0.5L17.2998 2L15.7998 0.5L14.2998 2L12.7998 0.5L11.2998 2L9.7998 0.5L8.2998 2L6.7998 0.5L5.2998 2L3.7998 0.5L2.2998 2L0.799805 0.5V20.5ZM15.7998 7.5H3.7998V5.5H15.7998V7.5ZM15.7998 11.5H3.7998V9.5H15.7998V11.5ZM15.7998 15.5H3.7998V13.5H15.7998V15.5Z" fill="#0080FF"/>
</svg>
