<svg width="20" height="21" viewBox="0 0 20 21" fill="none" xmlns="http://www.w3.org/2000/svg">
<path d="M6.5 13.47C6.76522 13.47 7.01957 13.5753 7.20711 13.7629C7.39464 13.9504 7.5 14.2048 7.5 14.47C7.5 14.7352 7.39464 14.9895 7.20711 15.1771C7.01957 15.3646 6.76522 15.47 6.5 15.47C6.23478 15.47 5.98043 15.3646 5.79289 15.1771C5.60536 14.9895 5.5 14.7352 5.5 14.47C5.5 14.2048 5.60536 13.9504 5.79289 13.7629C5.98043 13.5753 6.23478 13.47 6.5 13.47ZM5 7.46997H15V12.47H5V7.46997ZM13.5 13.47C13.7652 13.47 14.0196 13.5753 14.2071 13.7629C14.3946 13.9504 14.5 14.2048 14.5 14.47C14.5 14.7352 14.3946 14.9895 14.2071 15.1771C14.0196 15.3646 13.7652 15.47 13.5 15.47C13.2348 15.47 12.9804 15.3646 12.7929 15.1771C12.6054 14.9895 12.5 14.7352 12.5 14.47C12.5 14.2048 12.6054 13.9504 12.7929 13.7629C12.9804 13.5753 13.2348 13.47 13.5 13.47ZM16 14.35V7.46997C16 4.84997 13.32 4.46997 10 4.46997C7 4.46997 4 4.83997 4 7.46997V14.35C4 15.0448 4.27603 15.7112 4.76738 16.2026C5.25873 16.6939 5.92513 16.97 6.62 16.97L5.5 18.09V18.47H7.17L8.67 16.97H11.5L13 18.47H14.5V18.09L13.37 16.97C14.82 16.97 16 15.8 16 14.35ZM15.8 1.26997C18.47 2.30997 20 4.51997 20 7.32997V20.47H0V7.32997C0 4.51997 1.53 2.30997 4.2 1.26997C6 0.559971 8.14 0.469971 10 0.469971C11.86 0.469971 14 0.559971 15.8 1.26997Z" fill="#0080FF"/>
</svg>
