<svg width="20" height="16" viewBox="0 0 20 16" fill="none" xmlns="http://www.w3.org/2000/svg">
<path d="M11 4.5H9V2.5H11V4.5ZM11 9H9V7H11V9ZM11 13.5H9V11.5H11V13.5ZM20 6V2C20 0.89 19.1 0 18 0H2C1.46957 0 0.960859 0.210714 0.585786 0.585786C0.210714 0.960859 0 1.46957 0 2V6C1.11 6 2 6.9 2 8C2 8.53043 1.78929 9.03914 1.41421 9.41421C1.03914 9.78929 0.530433 10 0 10V14C0 14.5304 0.210714 15.0391 0.585786 15.4142C0.960859 15.7893 1.46957 16 2 16H18C18.5304 16 19.0391 15.7893 19.4142 15.4142C19.7893 15.0391 20 14.5304 20 14V10C19.4696 10 18.9609 9.78929 18.5858 9.41421C18.2107 9.03914 18 8.53043 18 8C18 7.46957 18.2107 6.96086 18.5858 6.58579C18.9609 6.21071 19.4696 6 20 6Z" fill="#0080FF"/>
</svg>
