<svg width="32" height="39" viewBox="0 0 32 39" xmlns="http://www.w3.org/2000/svg">
<path d="M16 0.5C8 0.5 0 1.5 0 8.5V27.5C0 29.3565 0.737498 31.137 2.05025 32.4497C3.36301 33.7625 5.14348 34.5 7 34.5L4 37.5V38.5H8.46L12.46 34.5H20L24 38.5H28V37.5L25 34.5C26.8565 34.5 28.637 33.7625 29.9497 32.4497C31.2625 31.137 32 29.3565 32 27.5V8.5C32 1.5 24.84 0.5 16 0.5ZM7 30.5C6.20435 30.5 5.44129 30.1839 4.87868 29.6213C4.31607 29.0587 4 28.2956 4 27.5C4 26.7044 4.31607 25.9413 4.87868 25.3787C5.44129 24.8161 6.20435 24.5 7 24.5C7.79565 24.5 8.55871 24.8161 9.12132 25.3787C9.68393 25.9413 10 26.7044 10 27.5C10 28.2956 9.68393 29.0587 9.12132 29.6213C8.55871 30.1839 7.79565 30.5 7 30.5ZM14 16.5H4V8.5H14V16.5ZM18 16.5V8.5H28V16.5H18ZM25 30.5C24.2044 30.5 23.4413 30.1839 22.8787 29.6213C22.3161 29.0587 22 28.2956 22 27.5C22 26.7044 22.3161 25.9413 22.8787 25.3787C23.4413 24.8161 24.2044 24.5 25 24.5C25.7956 24.5 26.5587 24.8161 27.1213 25.3787C27.6839 25.9413 28 26.7044 28 27.5C28 28.2956 27.6839 29.0587 27.1213 29.6213C26.5587 30.1839 25.7956 30.5 25 30.5Z" fill="#0080ff"/>
</svg>